<svg width="260" height="80" viewBox="0 0 260 80" fill="none" xmlns="http://www.w3.org/2000/svg">
<circle cx="40" cy="40" r="40" fill="#CEDDF0"/>
<path d="M29.9624 33.2275C29.9624 35.0089 31.4521 36.453 33.2898 36.453C35.1275 36.453 36.6172 35.0089 36.6172 33.2275C36.6172 31.4461 35.1275 30.002 33.2898 30.002C31.4521 30.002 29.9624 31.4461 29.9624 33.2275Z" fill="#212F4E"/>
<path d="M10.0015 33.2255C10.0015 35.0069 11.4912 36.451 13.3289 36.451C15.1665 36.451 16.6563 35.0069 16.6563 33.2255C16.6563 31.4441 15.1665 30 13.3289 30C11.4912 30 10.0015 31.4441 10.0015 33.2255Z" fill="#212F4E"/>
<path d="M30.9883 48.7632C30.9883 49.5916 30.3167 50.2632 29.4883 50.2632C28.6599 50.2632 27.9883 49.5916 27.9883 48.7632H30.9883ZM14.6392 47.2637L13.1691 46.9654L13.1691 46.9654L14.6392 47.2637ZM15.9892 48.7632C15.9892 49.5916 15.3177 50.2632 14.4892 50.2632C13.6608 50.2632 12.9892 49.5916 12.9892 48.7632H15.9892ZM27.9883 48.7632C27.9883 45.4497 25.3022 42.7637 21.9888 42.7637V39.7637C26.9591 39.7637 30.9883 43.7929 30.9883 48.7632H27.9883ZM21.9888 42.7637C19.0879 42.7637 16.6648 44.824 16.1092 47.562L13.1691 46.9654C14.0029 42.8567 17.633 39.7637 21.9888 39.7637V42.7637ZM16.1092 47.562C16.0307 47.9489 15.9892 48.3504 15.9892 48.7632H12.9892C12.9892 48.1489 13.051 47.5475 13.1691 46.9654L16.1092 47.562Z" fill="#212F4E"/>
<circle cx="130" cy="40" r="40" fill="#A1C39B"/>
<path d="M123.655 13.2275C123.655 15.0089 122.165 16.453 120.327 16.453C118.49 16.453 117 15.0089 117 13.2275C117 11.4461 118.49 10.002 120.327 10.002C122.165 10.002 123.655 11.4461 123.655 13.2275Z" fill="#212F4E"/>
<path d="M143.616 13.2255C143.616 15.0069 142.126 16.451 140.288 16.451C138.451 16.451 136.961 15.0069 136.961 13.2255C136.961 11.4441 138.451 10 140.288 10C142.126 10 143.616 11.4441 143.616 13.2255Z" fill="#212F4E"/>
<path d="M121.5 28.7632C121.5 29.5916 122.172 30.2632 123 30.2632C123.828 30.2632 124.5 29.5916 124.5 28.7632H121.5ZM137.849 27.2637L139.319 26.9654L139.319 26.9654L137.849 27.2637ZM136.499 28.7632C136.499 29.5916 137.171 30.2632 137.999 30.2632C138.827 30.2632 139.499 29.5916 139.499 28.7632H136.499ZM124.5 28.7632C124.5 25.4497 127.186 22.7637 130.5 22.7637V19.7637C125.529 19.7637 121.5 23.7929 121.5 28.7632H124.5ZM130.5 22.7637C133.4 22.7637 135.823 24.824 136.379 27.562L139.319 26.9654C138.485 22.8567 134.855 19.7637 130.5 19.7637V22.7637ZM136.379 27.562C136.458 27.9489 136.499 28.3504 136.499 28.7632H139.499C139.499 28.1489 139.437 27.5475 139.319 26.9654L136.379 27.562Z" fill="#212F4E"/>
<circle cx="220" cy="40" r="40" fill="#F8B814"/>
<path d="M229.655 33.2275C229.655 35.0089 228.165 36.453 226.327 36.453C224.49 36.453 223 35.0089 223 33.2275C223 31.4461 224.49 30.002 226.327 30.002C228.165 30.002 229.655 31.4461 229.655 33.2275Z" fill="#212F4E"/>
<path d="M249.616 33.2255C249.616 35.0069 248.126 36.451 246.288 36.451C244.451 36.451 242.961 35.0069 242.961 33.2255C242.961 31.4441 244.451 30 246.288 30C248.126 30 249.616 31.4441 249.616 33.2255Z" fill="#212F4E"/>
<path d="M228.629 48.7632C228.629 49.5916 229.3 50.2632 230.129 50.2632C230.957 50.2632 231.629 49.5916 231.629 48.7632H228.629ZM244.978 47.2637L246.448 46.9654L246.448 46.9654L244.978 47.2637ZM243.628 48.7632C243.628 49.5916 244.3 50.2632 245.128 50.2632C245.956 50.2632 246.628 49.5916 246.628 48.7632H243.628ZM231.629 48.7632C231.629 45.4497 234.315 42.7637 237.628 42.7637V39.7637C232.658 39.7637 228.629 43.7929 228.629 48.7632H231.629ZM237.628 42.7637C240.529 42.7637 242.952 44.824 243.508 47.562L246.448 46.9654C245.614 42.8567 241.984 39.7637 237.628 39.7637V42.7637ZM243.508 47.562C243.586 47.9489 243.628 48.3504 243.628 48.7632H246.628C246.628 48.1489 246.566 47.5475 246.448 46.9654L243.508 47.562Z" fill="#212F4E"/>
</svg>
