<svg width="40" height="40" viewBox="0 0 40 40" fill="none" xmlns="http://www.w3.org/2000/svg">
<rect width="40" height="40" fill="#CD201F"/>
<rect width="40" height="40" fill="white" fill-opacity="0.2"/>
<path fill-rule="evenodd" clip-rule="evenodd" d="M26.7726 14.3737C27.5184 14.5794 28.1058 15.1853 28.3051 15.9548C28.6673 17.3494 28.6673 20.2593 28.6673 20.2593C28.6673 20.2593 28.6673 23.169 28.3051 24.5637C28.1058 25.3332 27.5184 25.9391 26.7726 26.1449C25.421 26.5185 20.0007 26.5185 20.0007 26.5185C20.0007 26.5185 14.5803 26.5185 13.2286 26.1449C12.4828 25.9391 11.8954 25.3332 11.6961 24.5637C11.334 23.169 11.334 20.2593 11.334 20.2593C11.334 20.2593 11.334 17.3494 11.6961 15.9548C11.8954 15.1853 12.4828 14.5794 13.2286 14.3737C14.5803 14 20.0007 14 20.0007 14C20.0007 14 25.421 14 26.7726 14.3737ZM18.3746 17.8102V23.253L22.7079 20.5317L18.3746 17.8102Z" fill="white"/>
</svg>
