<svg width="15" height="15" viewBox="0 0 15 15" fill="none" xmlns="http://www.w3.org/2000/svg">
<circle cx="7.5" cy="7.5" r="7.5" fill="#212F4E"/>
<path d="M6.6701 8.86328H7.85263V8.77095C7.85973 8.01811 8.10476 7.67365 8.68359 7.31854C9.337 6.92791 9.74538 6.39524 9.74538 5.58203C9.74538 4.38175 8.81143 3.62891 7.4549 3.62891C6.212 3.62891 5.20348 4.31783 5.16797 5.66726H6.43217C6.46413 4.99964 6.94709 4.68004 7.4478 4.68004C7.99112 4.68004 8.42791 5.04226 8.42791 5.59979C8.42791 6.09695 8.09766 6.43786 7.66797 6.70774C7.03942 7.09837 6.6772 7.49254 6.6701 8.77095V8.86328ZM7.29155 11.0792C7.71058 11.0792 8.06925 10.7312 8.0728 10.2979C8.06925 9.8718 7.71058 9.52379 7.29155 9.52379C6.85831 9.52379 6.50675 9.8718 6.5103 10.2979C6.50675 10.7312 6.85831 11.0792 7.29155 11.0792Z" fill="white"/>
</svg>
