<svg width="40" height="40" viewBox="0 0 40 40" fill="none" xmlns="http://www.w3.org/2000/svg">
<rect width="40" height="40" rx="8" fill="#1F617F"/>
<path d="M27.5911 12.4074C25.9801 10.7965 23.3684 10.7965 21.7574 12.4074L18.3098 15.855C16.6435 17.5214 16.7977 20.1766 18.3098 21.6887C18.563 21.9419 18.8432 22.1484 19.139 22.3179L19.7682 21.6887C20.1809 21.2759 20.0357 20.7934 20.0282 20.4452C19.9377 20.381 19.8496 20.3116 19.7682 20.2303C18.9923 19.4544 18.9574 18.1243 19.7682 17.3134C19.8886 17.193 23.1427 13.939 23.2158 13.8659C24.0201 13.0615 25.3283 13.0615 26.1326 13.8659C26.937 14.6702 26.937 15.9784 26.1326 16.7827L23.8538 19.0615C23.9197 19.4262 24.3152 20.2899 24.1117 21.7147C24.1217 21.7049 24.1336 21.6986 24.1435 21.6887L27.5911 18.2411C29.202 16.6302 29.202 14.0184 27.5911 12.4074Z" fill="white"/>
<path d="M21.9558 18.0433C21.7026 17.7901 21.4224 17.5836 21.1267 17.4141L20.4974 18.0433C20.0847 18.456 20.2299 18.9385 20.2374 19.2867C20.328 19.3509 20.4161 19.4203 20.4974 19.5017C21.2734 20.2776 21.3083 21.6077 20.4974 22.4185C20.3768 22.5392 16.8532 26.0628 16.7827 26.1333C15.9783 26.9376 14.6702 26.9376 13.8658 26.1333C13.0615 25.3289 13.0615 24.0208 13.8658 23.2165L16.4119 20.6704C16.346 20.3058 15.9505 19.4421 16.1539 18.0173C16.144 18.027 16.132 18.0334 16.1221 18.0433L12.4074 21.7581C10.7965 23.369 10.7965 25.9808 12.4074 27.5918C14.0183 29.2026 16.6301 29.2026 18.241 27.5918L21.9558 23.877C23.5912 22.2415 23.5019 19.5893 21.9558 18.0433Z" fill="white"/>
</svg>
