<svg width="100" height="100" viewBox="0 0 100 100" fill="none" xmlns="http://www.w3.org/2000/svg">
<path d="M97.8548 49.5492C97.8541 58.9886 95.0416 68.2158 89.7729 76.064C84.5042 83.9123 77.016 90.0291 68.2551 93.6409C59.4942 97.2527 49.8542 98.1974 40.554 96.3554C31.2539 94.5134 22.7112 89.9676 16.0064 83.2926C9.30149 76.6177 4.73553 68.1135 2.88585 58.8554C1.03618 49.5974 1.98585 40.0012 5.6148 31.2804C9.24374 22.5596 15.389 15.1058 23.2734 9.86161C31.1578 4.61743 40.4274 1.81836 49.9098 1.81836C62.6257 1.82024 74.8201 6.84972 83.8112 15.8007C92.8023 24.7516 97.8538 36.8911 97.8548 49.5492" fill="white"/>
<path d="M65.6443 73.9716C75.1658 67.7531 77.1497 60.0339 76.7942 53.9004C76.5844 53.9287 76.5844 53.1925 76.7479 53.1925C76.663 52.2702 76.5265 51.3532 76.3391 50.446L76.1897 49.7382C75.6968 47.5168 74.9001 45.3732 73.8218 43.3674C70.3891 45.6278 67.3637 48.448 64.8728 51.7095L64.4142 52.336C64.0586 52.8492 63.7031 53.373 63.3475 53.9216C61.5208 53.0229 59.5495 52.4515 57.5237 52.2334C57.0153 52.205 56.5638 52.1661 56.2509 52.1166C54.6138 52.0005 52.9693 52.0444 51.3408 52.2475C50.3422 53.9315 49.5429 55.7248 48.9587 57.5918L48.8058 58.0944C48.2408 59.9668 48.0003 61.9213 48.0947 63.8741C40.2728 65.0066 34.1966 69.229 34.1966 69.229C34.767 69.9671 35.3896 70.6638 36.0596 71.3136L36.7707 71.9826C41.3536 76.2297 51.8066 82.9543 65.6301 73.9398L65.6443 73.9716ZM36.6178 31.617L37.1796 30.7782L38.1786 30.5977C38.1444 29.7453 38.1681 28.8916 38.2498 28.0423C38.2498 28.0423 38.3102 27.9645 38.2853 27.7132C38.2142 26.8248 38.968 24.3049 39.519 23.0095C36.9254 21.0827 33.6879 20.22 30.474 20.5992C29.3098 22.5749 28.7156 24.832 28.7568 27.1221V27.3451C28.7767 28.1795 28.8827 29.0097 29.0732 29.8226C31.6843 29.8473 34.257 30.4519 36.6036 31.5922L36.6178 31.617ZM34.7654 64.2705C37.7495 62.6633 40.9212 61.4283 44.2087 60.5931C44.315 59.6955 44.4777 58.8054 44.6957 57.9281V57.9281C44.6957 57.9281 45.2859 55.8753 45.5882 55.0577C44.4781 53.8211 43.1771 52.7685 41.7341 51.9396C33.713 47.2642 27.4448 51.8051 27.4448 51.8051C27.4448 51.8051 26.5311 59.4641 34.5557 64.1572C34.6268 64.1997 34.6979 64.228 34.7654 64.274V64.2705ZM34.5805 45.7494C33.4845 42.3257 33.5432 38.6392 34.7477 35.2519C31.9149 33.8732 28.676 33.5639 25.6315 34.3812C25.6315 34.3812 23.029 40.5679 27.9319 47.0412C30.0504 46.185 32.3191 45.7578 34.6054 45.7848L34.5805 45.7494ZM54.8714 43.4064C55.0554 45.0524 55.5069 46.6578 56.2082 48.1596C58.1248 48.2654 60.0234 48.5848 61.8685 49.1117C63.9424 46.4475 66.3378 44.0476 69.0007 41.9659C69.0007 41.8739 69.0007 41.7995 69.0007 41.7146C67.8807 32.5125 60.4676 30.2969 60.4676 30.2969C60.4676 30.2969 53.787 34.2113 54.8998 43.3922L54.8714 43.4064ZM39.6115 34.406C38.5468 36.2255 37.9542 38.2804 37.8872 40.385C37.8202 42.4896 38.2808 44.5778 39.2275 46.4608C42.2911 47.358 45.103 48.9526 47.4405 51.1185C47.7036 50.6442 47.9205 50.2974 47.9881 50.17L48.9623 48.6091L50.7791 48.3366C50.9284 48.3366 51.3302 48.2694 51.8848 48.2127C51.3702 46.8099 51.0195 45.3527 50.8395 43.87C50.6272 42.2062 50.6272 40.5223 50.8395 38.8584C49.4815 37.2451 47.7416 35.9934 45.7765 35.2161C43.8115 34.4389 41.6831 34.1605 39.583 34.406H39.6115ZM42.3065 30.3641C42.1539 27.2186 43.1532 24.1249 45.1188 21.6575C45.1188 21.6575 51.8742 21.753 55.8598 28.7962C54.2317 30.3916 52.9332 32.289 52.0377 34.3812C49.3149 32.0312 45.9009 30.6219 42.3065 30.3641Z" fill="#212121"/>
<path d="M49.9936 3.05469C40.756 3.05609 31.7262 5.7842 24.0461 10.894C16.366 16.0039 10.3805 23.266 6.84636 31.7621C3.31226 40.2582 2.3883 49.6067 4.19133 58.6255C5.99436 67.6443 10.4434 75.9283 16.9759 82.4301C23.5083 88.932 31.8309 93.3595 40.8911 95.153C49.9513 96.9465 59.3423 96.0253 67.8766 92.5059C76.4109 88.9866 83.7052 83.0271 88.8372 75.3811C93.9692 67.7351 96.7083 58.7459 96.7083 49.5503C96.7083 43.4438 95.5 37.3971 93.1523 31.7556C90.8045 26.114 87.3634 20.988 83.0255 16.6704C78.6875 12.3528 73.5377 8.92813 67.87 6.59192C62.2023 4.25572 56.1279 3.05376 49.9936 3.05469V3.05469ZM49.9936 13.2301C57.2099 13.2294 64.2644 15.359 70.265 19.3495C76.2655 23.3399 80.9425 29.0121 83.7046 35.6487C86.4667 42.2853 87.1897 49.5882 85.7823 56.6338C84.3749 63.6795 80.9002 70.1514 75.7977 75.2313C70.6952 80.3111 64.1941 83.7706 57.1164 85.1723C50.0388 86.574 42.7025 85.8549 36.0354 83.1061C29.3683 80.3572 23.6698 75.7019 19.6605 69.729C15.6512 63.7561 13.5113 56.7339 13.5113 49.5503C13.5226 39.9216 17.3698 30.6905 24.209 23.8817C31.0482 17.0729 40.321 13.2423 49.9936 13.2301" fill="#212121"/>
<path d="M1.21094 73.7832C16.0715 65.3407 32.8864 60.9004 49.9968 60.9004C67.1071 60.9004 83.922 65.3407 98.7826 73.7832C94.6369 80.3521 92.6139 83.6578 88.6745 90.2904C76.8791 83.6382 63.5536 80.1416 49.9968 80.1416C36.4399 80.1416 23.1144 83.6382 11.319 90.2904C7.36894 83.6578 5.33168 80.3627 1.21094 73.7832Z" fill="#212121"/>
<path d="M49.9893 60.0544C32.4216 60.0314 15.1655 64.6728 0 73.5001C4.52251 80.6424 6.72687 84.2312 11.0218 91.4514C22.8609 84.6059 36.3086 81.0001 50 81.0001C63.6914 81.0001 77.1391 84.6059 88.9782 91.4514C93.2625 84.2312 95.4775 80.6424 100 73.5001C84.828 64.6725 67.5664 60.03 49.9929 60.0509L49.9893 60.0544ZM49.9929 61.7462C66.6514 61.7394 83.0335 65.9836 97.5752 74.0735C96.153 76.3528 95.4419 77.4995 94.0198 79.793C92.1887 82.7518 90.5283 85.4842 88.356 89.1438C76.6104 82.6853 63.4112 79.2977 49.9929 79.2977C36.5746 79.2977 23.3754 82.6853 11.6298 89.1438C9.57477 85.7 8.53303 83.98 6.44599 80.561C4.83894 77.9596 4.04608 76.6678 2.4248 74.077C16.9601 65.9873 33.3365 61.743 49.9893 61.7497" fill="white"/>
<path d="M16.6594 80.2672C16.551 80.4388 16.4052 80.584 16.2328 80.6919C16.0748 80.8093 15.9043 80.909 15.7244 80.9892C15.6086 81.0482 15.49 81.1014 15.3688 81.1485C15.2357 81.2084 15.0978 81.257 14.9564 81.2936L13.8435 78.9046L14.4977 78.5896C14.7282 78.4865 14.9658 78.4001 15.2088 78.3312C15.4056 78.278 15.61 78.2588 15.8133 78.2746C16.0028 78.2882 16.1837 78.3585 16.3323 78.4763C16.5084 78.621 16.6452 78.8071 16.7306 79.0178C16.8479 79.2344 16.8986 79.4806 16.8763 79.7257C16.8479 79.924 16.771 80.1124 16.6523 80.2743L16.6594 80.2672ZM13.4524 76.9721L13.0009 77.1526L11.9627 74.9583L12.2009 74.8096C12.2881 74.7775 12.3725 74.7384 12.4534 74.6928C12.6089 74.6224 12.7693 74.5633 12.9334 74.5159C13.1042 74.4743 13.2806 74.46 13.456 74.4734C13.6282 74.499 13.7923 74.5631 13.936 74.661C14.099 74.7938 14.2291 74.9621 14.3164 75.1529C14.4195 75.3213 14.4776 75.5131 14.4851 75.7101C14.4925 75.9072 14.4492 76.1028 14.3591 76.2784C14.1347 76.5992 13.8189 76.8458 13.4524 76.9863V76.9721ZM19.0558 78.0905C18.9072 77.7833 18.7157 77.4985 18.4869 77.2446C18.2853 77.0374 18.0569 76.8577 17.8078 76.7102C17.5866 76.5829 17.3467 76.4909 17.0968 76.4377C16.862 76.397 16.624 76.3768 16.3857 76.3775C16.5507 76.0205 16.6321 75.6308 16.6239 75.2379C16.6234 74.798 16.5238 74.3638 16.3323 73.9673C16.1496 73.5196 15.8501 73.1286 15.4648 72.8347C15.1293 72.5902 14.7363 72.4354 14.3235 72.3852C13.8635 72.3427 13.3995 72.3847 12.9547 72.5091C12.4487 72.6457 11.9551 72.8244 11.4792 73.0435C10.9423 73.2948 10.4766 73.5249 10.0783 73.7514C9.71056 73.9492 9.35444 74.1678 9.01172 74.4061L13.5449 84.079C14.1138 83.8914 14.6364 83.7003 15.0915 83.5092C15.5466 83.3181 15.9768 83.1553 16.3608 82.9677C16.8851 82.7221 17.3892 82.4357 17.8683 82.1112C18.285 81.8238 18.6463 81.4642 18.9349 81.0494C19.2153 80.6605 19.3837 80.2028 19.422 79.7257C19.4449 79.1628 19.3225 78.6035 19.0665 78.1012" fill="white"/>
<path d="M26.0343 72.3619C25.9856 72.584 25.8912 72.7937 25.7569 72.9777C25.6872 73.1089 25.5972 73.2283 25.4903 73.3316C25.127 73.4776 24.7474 73.5798 24.3596 73.636L24.5054 74.1775L23.5348 70.6382C23.5922 70.613 23.6516 70.5929 23.7126 70.5781C23.7671 70.5598 23.823 70.5456 23.8797 70.5356C24.1107 70.4678 24.3499 70.4321 24.5908 70.4294C24.8014 70.4201 25.0115 70.4576 25.2058 70.5391C25.4014 70.6246 25.5733 70.7557 25.7072 70.9214C25.8616 71.1347 25.975 71.3747 26.0414 71.6292C26.1124 71.878 26.1124 72.1415 26.0414 72.3902L26.0343 72.3619ZM31.2323 77.5611C31.2572 77.5611 31.1612 77.4797 30.987 77.2992C30.8128 77.1187 30.5639 76.9028 30.2972 76.6444C30.0306 76.386 29.7248 76.0923 29.3977 75.7879C29.0706 75.4835 28.7826 75.2004 28.5088 74.9208C28.2351 74.6412 27.9862 74.443 27.7978 74.2589C27.6093 74.0749 27.5169 73.9935 27.5169 73.9935L27.5773 73.9368C27.7316 73.7562 27.8707 73.5632 27.9933 73.3599C28.1485 73.1364 28.2684 72.8905 28.3488 72.6309C28.4386 72.3436 28.4923 72.0464 28.5088 71.746C28.5216 71.3879 28.4796 71.0299 28.3844 70.6842C28.2557 70.1125 27.9673 69.5886 27.5524 69.173C27.1906 68.8245 26.7488 68.5694 26.2654 68.4297C25.7559 68.2938 25.2263 68.2483 24.701 68.2952C24.1484 68.3268 23.6011 68.4193 23.069 68.5713C22.6246 68.6881 22.2264 68.8261 21.846 68.9642C21.4655 69.1022 21.0567 69.2579 20.6016 69.4455L23.4246 79.7094L25.8529 79.0476L24.5303 74.2518L28.5906 78.2689L31.2323 77.5611Z" fill="white"/>
<path d="M32.2148 66.2947L38.4937 65.332C38.4511 65.7249 38.4013 66.093 38.3551 66.454C38.3088 66.815 38.2591 67.1618 38.2271 67.5158L34.9454 68.0148C34.9527 68.0741 34.967 68.1323 34.9881 68.1882C34.9881 68.2661 35.013 68.3156 35.0236 68.3581L35.2583 69.9154L38.2697 69.4518L38.6039 71.5753L35.5961 72.039L35.9089 74.0634V74.4174L39.8412 73.8157L40.1754 75.9216L33.8361 76.8984L32.2148 66.2947Z" fill="white"/>
<path d="M42.4648 64.8468H45.0816L46.4754 71.5325L48.1144 64.8185H50.3792L52.0645 71.6599L53.4867 64.8008H55.8795C55.8795 64.8008 55.8404 64.9494 55.7764 65.2574C55.7124 65.5653 55.6235 65.9652 55.499 66.4713C55.3746 66.9774 55.2431 67.5508 55.0937 68.1985C54.9444 68.8462 54.7773 69.4868 54.628 70.1593C54.4786 70.8317 54.3115 71.4936 54.1622 72.1306C54.0129 72.7677 53.8671 73.3588 53.7427 73.8543C53.6182 74.3498 53.5116 74.7603 53.4369 75.0647C53.3622 75.3691 53.3302 75.5248 53.3302 75.5248L50.7668 75.5425L49.1704 69.0656L47.51 75.5425H45.0994L42.4648 64.8468Z" fill="white"/>
<path d="M60.0728 65.5234L62.4371 65.8491L61.3029 74.3327L63.0095 74.5663L63.3722 74.6548L63.5144 73.6496L65.6619 72.9736L65.1144 77.0226L58.6328 76.1484L60.0728 65.5234Z" fill="white"/>
<path d="M75.3748 74.0197L75.2788 74.1648C75.2433 74.271 75.2219 74.3666 75.1793 74.4798C74.8237 75.5805 74.4326 76.345 73.9562 76.8016C73.7305 77.0053 73.4551 77.1463 73.1575 77.2107C72.8598 77.2751 72.5504 77.2605 72.2602 77.1684C71.97 77.0762 71.7092 76.9099 71.5039 76.6859C71.2986 76.4618 71.1561 76.1881 71.0905 75.892C70.9625 75.2514 71.0905 74.3913 71.4461 73.2906C71.5822 72.8349 71.7582 72.392 71.9723 71.9669C71.9793 71.9318 71.9925 71.8983 72.0114 71.8678C72.3669 70.8344 73.4975 70.307 74.3544 70.7069C75.6912 71.3157 75.3606 71.3405 75.5384 71.9351C75.7161 72.5297 75.5384 73.3508 75.3855 74.0197H75.3748ZM77.8743 71.1883C77.6791 70.6086 77.3346 70.0899 76.8752 69.6841C76.3299 69.2107 75.6865 68.8627 74.9908 68.6648C74.3058 68.4307 73.5785 68.345 72.8576 68.4135C72.2544 68.4957 71.6793 68.7189 71.1794 69.0647C70.9952 69.2015 70.8195 69.3492 70.6532 69.5071L69.8354 70.5689C69.4767 71.1776 69.1881 71.8247 68.975 72.4978C68.742 73.2072 68.6022 73.9436 68.559 74.6886C68.5066 75.333 68.5827 75.9813 68.783 76.5963C68.9888 77.1789 69.3327 77.7034 69.7857 78.1253C70.3232 78.6101 70.9673 78.9628 71.6665 79.1552C72.3491 79.3996 73.0793 79.4832 73.7998 79.3994C74.4114 79.3084 74.9926 79.0743 75.4957 78.7163C76.0188 78.3374 76.4581 77.8556 76.7863 77.3006C77.1731 76.6612 77.4845 75.9795 77.7143 75.2691C77.9387 74.5598 78.0795 73.827 78.1338 73.0853C78.1928 72.4412 78.1128 71.792 77.8992 71.1812" fill="white"/>
<path d="M83.6836 77.9001L88.5296 74.375L90.9864 75.55L86.1759 78.9761L86.6239 85.3574L84.1565 84.1682L83.6836 77.9001Z" fill="white"/>
<path d="M82.9265 73.7399L81.9061 73.255L83.5914 71.9844L85.9451 73.1134L81.2555 82.7933L79.0547 81.7316L82.9265 73.7399Z" fill="white"/>
<path d="M6.01276 46.9957C6.00744 46.4895 6.19859 46.0009 6.54635 45.6316C6.89411 45.2624 7.37164 45.041 7.87936 45.0137L7.82247 46.0578C7.57519 46.0932 7.34827 46.214 7.18128 46.399C7.01429 46.584 6.91783 46.8215 6.90873 47.07C6.8554 48.0256 7.65181 48.4255 8.50156 48.4857C9.35131 48.5459 10.1548 48.2167 10.2117 47.2682C10.2473 46.6134 9.82774 46.2241 9.18776 46.1073L9.24465 45.0738C9.51551 45.0968 9.77904 45.1734 10.0198 45.299C10.2606 45.4246 10.4738 45.5967 10.647 45.8053C10.8201 46.0139 10.9497 46.2548 11.0282 46.5139C11.1067 46.773 11.1325 47.0451 11.1041 47.3142C11.0188 48.8042 9.84551 49.6289 8.44468 49.551C7.04384 49.4732 5.92388 48.514 6.01276 47.0204" fill="white"/>
<path d="M9.01823 41.6129L9.27067 40.4733C9.36311 39.999 9.23156 39.7123 8.74802 39.6132C8.26448 39.5141 8.03693 39.7123 7.93027 40.1795L7.67783 41.3191L9.01823 41.6129ZM6.63965 42.1863L7.20141 39.6344C7.22859 39.453 7.29317 39.2791 7.39108 39.1237C7.489 38.9683 7.61813 38.8347 7.77038 38.7314C7.92262 38.628 8.09469 38.5571 8.27578 38.5231C8.45687 38.4891 8.64307 38.4927 8.82268 38.5337C9.07999 38.5672 9.31903 38.6842 9.50285 38.8665C9.68666 39.0489 9.80499 39.2864 9.83953 39.5424V39.5424C10.0955 39.0611 10.6182 39.0221 11.1088 39.0929C11.4075 39.1425 11.9692 39.277 12.275 39.1425L12.0439 40.1795C11.6512 40.194 11.258 40.1679 10.8706 40.1016C10.3622 40.0627 10.0955 40.2078 9.98886 40.7245L9.75065 41.7863L11.6208 42.165L11.379 43.2268L6.63965 42.1863Z" fill="white"/>
<path d="M11.9929 34.3251L10.1049 34.2614L11.5271 35.4895L11.9929 34.3251ZM8.79297 34.3428L9.18762 33.3164L14.3857 33.3624L13.991 34.3959L12.8426 34.3499L12.1884 36.0417L13.0666 36.7849L12.6755 37.7936L8.79297 34.3428Z" fill="white"/>
<path d="M10.8789 29.5691L12.5535 26.5996L13.3393 27.0349L12.1873 29.0771L13.1757 29.6257L14.1677 27.8525L14.9001 28.256L13.901 30.0256L15.6538 31.0025L15.1348 31.9369L10.8789 29.5691Z" fill="white"/>
<path d="M15.3347 24.1791L14.4565 25.34L13.7383 24.7985L16.1489 21.6309L16.8599 22.1724L15.9853 23.3297L19.1496 25.7081L18.5061 26.5575L15.3347 24.1791Z" fill="white"/>
<path d="M24.0436 19.588C24.162 19.4804 24.2552 19.3482 24.3166 19.2008C24.3781 19.0535 24.4063 18.8944 24.3992 18.735L23.1121 18.4908C23.0039 18.6469 22.9459 18.8321 22.9459 19.0217C22.9459 19.2114 23.0039 19.3965 23.1121 19.5526C23.2329 19.6821 23.3995 19.7596 23.5767 19.7689C23.7539 19.7781 23.9278 19.7183 24.0614 19.6022L24.0436 19.588ZM22.6393 16.7389C22.5628 16.6468 22.4535 16.5876 22.3343 16.5738C22.215 16.5599 22.095 16.5924 21.9993 16.6645C21.9098 16.7378 21.8531 16.8434 21.8418 16.9582C21.8305 17.073 21.8654 17.1876 21.9388 17.2768C22.1474 17.4666 22.4173 17.5758 22.6997 17.5848C22.772 17.4528 22.8047 17.3029 22.794 17.153C22.7832 17.0031 22.7296 16.8593 22.6393 16.7389V16.7389ZM22.3157 18.3563C21.9237 18.3261 21.5578 18.149 21.2917 17.8608C21.1986 17.7354 21.1313 17.5929 21.0936 17.4416C21.0559 17.2902 21.0486 17.1329 21.072 16.9787C21.0955 16.8245 21.1492 16.6765 21.2303 16.543C21.3113 16.4095 21.418 16.2933 21.5442 16.2009C22.1095 15.7337 22.8348 15.6523 23.3219 16.2363C23.4811 16.446 23.577 16.6965 23.5984 16.9585C23.6199 17.2205 23.5659 17.4831 23.4428 17.7157L24.4099 17.9033C24.3688 17.6997 24.2905 17.5053 24.1788 17.3299L24.8116 16.792C25.0643 17.1512 25.2142 17.572 25.2454 18.0095L26.7422 18.2537L25.8143 19.0146L25.1956 18.9014C25.1834 19.1551 25.1184 19.4034 25.0045 19.6307C24.8907 19.858 24.7305 20.0592 24.5343 20.2215C23.8623 20.7843 22.9841 20.8197 22.401 20.1189C21.9602 19.5986 22.0455 18.9191 22.3264 18.3492" fill="white"/>
<path d="M30.4708 10.2659C31.4237 9.79519 32.5223 9.94738 33.1339 10.8959L32.2023 11.3525C32.0491 11.1589 31.8329 11.0244 31.591 10.9721C31.349 10.9198 31.0963 10.9529 30.8762 11.0658C30.0086 11.4905 30.0513 12.3895 30.4353 13.1469C30.8193 13.9043 31.5019 14.4352 32.3481 14.014C32.9312 13.7238 33.0592 13.1575 32.8459 12.5488L33.7774 12.0816C33.8934 12.3273 33.9589 12.5938 33.9699 12.8651C33.9809 13.1365 33.9373 13.4073 33.8415 13.6616C33.7458 13.9159 33.5999 14.1486 33.4124 14.3458C33.2249 14.5431 32.9996 14.7011 32.7499 14.8104C31.4059 15.4793 30.1011 14.8705 29.4789 13.6141C28.8567 12.3576 29.1233 10.9278 30.4744 10.2624" fill="white"/>
<path d="M34.9453 8.46587L35.9551 8.13672L37.1852 11.8884L39.4323 11.1628L39.7096 12.0122L36.4386 13.0634L34.9453 8.46587Z" fill="white"/>
<path d="M43.6173 9.3203L42.7106 7.67453L42.3871 9.52912L43.6173 9.3203ZM41.9533 6.58797L43.0448 6.40039L45.651 10.867L44.5523 11.051L44.0084 10.0529L42.2307 10.3609L42.0422 11.4757L40.9756 11.6633L41.9533 6.58797Z" fill="white"/>
<path d="M47.9963 9.12305C47.9963 9.77074 48.5189 10.0114 49.0913 9.99371C49.4682 9.99371 50.0406 9.86276 50.0229 9.3708C50.0051 8.87884 49.2762 8.78328 48.5651 8.60631C47.8541 8.42935 47.1074 8.15329 47.079 7.25785C47.047 6.26331 47.9856 5.77489 48.8567 5.75719C49.8735 5.72888 50.8193 6.15005 50.8442 7.26493L49.8024 7.29324C49.7598 6.71634 49.3509 6.58538 48.8318 6.58538C48.4763 6.58538 48.1207 6.74111 48.1207 7.15167C48.1207 7.56222 48.3696 7.57284 49.5891 7.85952C49.9446 7.93031 51.0362 8.14621 51.0753 9.23985C51.0753 10.1211 50.4068 10.8042 49.0771 10.8325C48.0105 10.8573 46.9759 10.3512 46.9688 9.15844L47.9963 9.12305Z" fill="white"/>
<path d="M53.8519 9.25049C53.7772 9.88402 54.2537 10.1955 54.8119 10.2627C55.1887 10.3087 55.7683 10.2627 55.8287 9.77431C55.8892 9.28588 55.1674 9.09122 54.4777 8.81162C53.7879 8.53202 53.1124 8.16393 53.2119 7.27911C53.3257 6.28103 54.3177 5.93418 55.1923 6.03682C56.1949 6.15716 57.0767 6.70221 56.9309 7.80646L55.9141 7.68613C55.9461 7.11276 55.5585 6.90394 55.0465 6.84378C54.691 6.80484 54.2999 6.90041 54.2537 7.30388C54.2074 7.70736 54.4279 7.75691 55.6012 8.2064C55.9567 8.32674 56.9949 8.68774 56.8705 9.76723C56.7638 10.652 56.0029 11.2325 54.6768 11.0732C53.6101 10.9493 52.6608 10.3017 52.8315 9.116L53.8519 9.25049Z" fill="white"/>
<path d="M59.6665 6.91016L60.7118 7.15791L59.574 11.8687L58.543 11.6245L59.6665 6.91016Z" fill="white"/>
<path d="M65.454 8.50317C66.4495 8.8748 67.0859 9.77023 66.8157 10.8674L65.8379 10.5135C65.8746 10.2677 65.8235 10.017 65.6935 9.80488C65.5636 9.59277 65.3631 9.43272 65.1268 9.3526C64.2238 8.99867 63.6051 9.66052 63.31 10.4533C63.0149 11.2461 63.0931 12.0814 63.9962 12.4353C64.6078 12.6548 65.1055 12.3681 65.4184 11.7982L66.3961 12.1522C66.2944 12.4033 66.1435 12.6318 65.9522 12.8243C65.761 13.0169 65.5332 13.1696 65.282 13.2737C65.0309 13.3778 64.7615 13.4311 64.4895 13.4306C64.2175 13.43 63.9483 13.3757 63.6976 13.2706C62.2754 12.7539 61.8416 11.3948 62.3287 10.0852C62.8158 8.7757 64.0638 7.99351 65.4682 8.50671" fill="white"/>
<path d="M73.6624 15.0798C73.7216 15.1382 73.7934 15.1824 73.8723 15.209C73.9512 15.2356 74.0352 15.244 74.1178 15.2334C74.2004 15.2228 74.2795 15.1936 74.3491 15.148C74.4187 15.1023 74.4769 15.0415 74.5193 14.9701C74.7753 14.5879 74.5442 14.3083 74.2242 14.0995L73.3958 13.5367L72.7594 14.4782L73.6624 15.0798ZM72.5318 16.8212C72.8874 17.0477 73.2607 17.1468 73.5451 16.7291C73.8295 16.3115 73.6838 15.9859 73.2962 15.7275L72.3363 15.0798L71.5896 16.1806L72.5318 16.8212ZM72.9691 12.252L74.8606 13.5367C75.625 14.0534 75.9806 14.648 75.4686 15.3913C75.3525 15.5753 75.1826 15.7194 74.9817 15.8042C74.7808 15.889 74.5586 15.9104 74.3451 15.8656C74.5339 16.0696 74.6431 16.3341 74.6528 16.6114C74.6626 16.8886 74.5724 17.1601 74.3984 17.3768C73.8438 18.1944 72.9158 18.0847 72.1869 17.5821L70.2314 16.2655L72.9691 12.252Z" fill="white"/>
<path d="M77.73 18.5332L78.5761 19.3225C78.9317 19.6481 79.2552 19.6764 79.5894 19.3225C79.9237 18.9685 79.8632 18.6571 79.5077 18.3315L78.6508 17.5387L77.73 18.5332ZM78.441 16.1973L80.361 17.9669C80.5031 18.0817 80.6199 18.2246 80.7038 18.3865C80.7878 18.5484 80.8372 18.7259 80.8489 18.9078C80.8606 19.0896 80.8343 19.2719 80.7718 19.4432C80.7092 19.6145 80.6117 19.771 80.4854 19.9029C80.3246 20.1032 80.1028 20.2461 79.8533 20.3099C79.6038 20.3738 79.3403 20.3551 79.1023 20.2568V20.2568C79.3868 20.7169 79.1592 21.177 78.8428 21.5593C78.6544 21.7964 78.2526 22.2141 78.2135 22.5432L77.4277 21.8176C77.6185 21.4769 77.8423 21.1557 78.0962 20.8585C78.3877 20.4303 78.3877 20.1506 78.0037 19.7649L77.218 19.057L75.9238 20.4479L75.1416 19.7189L78.441 16.1973Z" fill="white"/>
<path d="M83.316 21.0332L85.5808 23.8682L84.8733 24.4238L83.284 22.4206L82.4663 23.0683L83.9276 24.9016L83.284 25.4184L81.8121 23.5815L80.8806 24.3212L82.5161 26.3634L81.8085 26.919L79.5117 24.0416L83.316 21.0332Z" fill="white"/>
<path d="M85.1702 32.5032L84.6582 31.5724L87.1612 29.2612L87.1577 29.2471L83.8547 30.1354L83.332 29.1798L86.9799 25.7148L87.4954 26.6528L84.9604 28.9144L84.9675 28.9321L88.2812 28.0791L88.7683 28.9427L86.2297 31.2892L86.2368 31.2998L89.5683 30.3796L90.0696 31.2963L85.1702 32.5032Z" fill="white"/>
<path d="M90.9569 33.6113L92.1515 37.048L91.3018 37.3347L90.4591 34.9173L89.4778 35.2571L90.2458 37.4798L89.4601 37.7488L88.685 35.5296L87.5579 35.9154L88.4183 38.3858L87.5757 38.6796L86.3633 35.204L90.9569 33.6113Z" fill="white"/>
<path d="M90.8919 41.1573L91.0981 42.304C91.187 42.7818 91.4323 42.9871 91.9194 42.9057C92.4065 42.8243 92.5345 42.5518 92.4491 42.0669L92.2358 40.9166L90.8919 41.1573ZM92.8651 39.7168L93.3273 42.2863C93.3738 42.464 93.3826 42.6495 93.3531 42.8308C93.3237 43.0121 93.2567 43.1853 93.1564 43.3394C93.0561 43.4935 92.9246 43.6252 92.7704 43.726C92.6162 43.8268 92.4426 43.8946 92.2607 43.925C92.0101 43.9936 91.7438 43.9776 91.5032 43.8797C91.2627 43.7817 91.0614 43.6073 90.931 43.3835V43.3835C90.8812 43.9215 90.419 44.1551 89.939 44.2789C89.6368 44.3497 89.0644 44.4417 88.8404 44.6824L88.6484 43.6383C89.0063 43.4747 89.3805 43.349 89.7648 43.2632C90.2554 43.0968 90.4403 42.8668 90.3479 42.3359L90.1523 41.2741L88.2822 41.6103L88.0938 40.5485L92.8651 39.7168Z" fill="white"/>
<path d="M90.9345 47.6759L93.8499 45.793L93.8819 46.9928L91.9975 48.1926L93.9637 49.2509L93.9992 50.4365L90.938 48.7447L89.075 48.8084L89.043 47.7431L90.9345 47.6759Z" fill="white"/>
</svg>
