<svg width="220" height="220" viewBox="0 0 220 220" fill="none" xmlns="http://www.w3.org/2000/svg">
<path fill-rule="evenodd" clip-rule="evenodd" d="M55.9749 161.334C55.8653 161.834 55.6524 162.306 55.3496 162.72C55.1925 163.015 54.9896 163.284 54.7484 163.517C53.9292 163.845 53.0733 164.075 52.1991 164.202L52.5278 165.42L50.3392 157.456C50.4686 157.399 50.6027 157.353 50.7401 157.32C50.8631 157.279 50.989 157.247 51.1169 157.225C51.6377 157.072 52.1772 156.992 52.7202 156.986C53.1952 156.965 53.6689 157.049 54.1071 157.233C54.5479 157.425 54.9356 157.72 55.2374 158.093C55.5857 158.573 55.8412 159.113 55.991 159.686C56.1512 160.245 56.1512 160.838 55.991 161.398L55.9749 161.334ZM34.8189 179.143C34.5744 179.529 34.2616 179.84 33.8729 180.083C33.5166 180.347 33.1322 180.571 32.7265 180.752C32.4656 180.885 32.198 181.004 31.9249 181.11C31.6248 181.245 31.3137 181.355 30.9949 181.437L28.4857 176.061L29.9608 175.352C30.4804 175.12 31.0162 174.925 31.5641 174.77C32.0077 174.651 32.4687 174.607 32.9269 174.643C33.3542 174.674 33.7622 174.832 34.0974 175.097C34.4942 175.422 34.8029 175.841 34.9952 176.316C35.2599 176.803 35.3742 177.357 35.3239 177.908C35.2597 178.355 35.0863 178.779 34.8189 179.143ZM27.6039 171.712L26.5858 172.118L24.2449 167.18L24.7821 166.845C24.9785 166.773 25.1689 166.685 25.3512 166.582C25.7019 166.424 26.0636 166.291 26.4335 166.184C26.8188 166.091 27.2165 166.059 27.6119 166.089C28.0001 166.146 28.3702 166.291 28.6942 166.511C29.0616 166.81 29.3551 167.189 29.5519 167.618C29.7845 167.997 29.9154 168.428 29.9322 168.872C29.9491 169.315 29.8513 169.756 29.6481 170.151C29.1421 170.873 28.4301 171.396 27.6039 171.712ZM167.248 165.068L166.92 165.68C166.947 165.586 166.887 165.777 166.92 165.68C166.88 165.816 166.84 165.953 166.783 166.104C165.981 168.581 165.099 170.301 164.025 171.329C163.516 171.787 162.895 172.105 162.224 172.25C161.553 172.394 160.855 172.362 160.201 172.154C159.547 171.947 158.959 171.573 158.496 171.068C158.033 170.564 157.711 169.948 157.564 169.282C157.275 167.84 157.564 165.905 158.365 163.428C158.672 162.402 159.069 161.405 159.552 160.449C159.567 160.37 159.597 160.294 159.64 160.226C160.441 157.9 162.991 156.713 164.923 157.613C167.3 158.694 167.339 158.957 167.445 159.676C167.474 159.869 167.508 160.094 167.592 160.377C167.993 161.715 167.592 163.563 167.248 165.068Z" fill="white"/>
<path fill-rule="evenodd" clip-rule="evenodd" d="M0 164.535C33.507 145.536 71.4203 135.544 110 135.544C148.58 135.544 186.493 145.536 220 164.535C210.653 179.318 206.091 186.757 197.209 201.683C170.613 186.713 140.567 178.845 110 178.845C79.4327 178.845 49.3869 186.713 22.7912 201.683C13.8848 186.757 9.29126 179.342 0 164.535ZM63.5587 169.044C64.2962 169.729 64.9856 170.39 65.5869 170.972C65.8484 171.225 66.1023 171.46 66.3381 171.678C66.6444 171.961 66.9201 172.216 67.1421 172.445C67.283 172.591 67.4012 172.708 67.4922 172.798C67.6551 172.959 67.7312 173.035 67.6952 173.035L61.7389 174.628L52.5839 165.588L55.5661 176.38L50.0907 177.869L43.7255 154.771C44.7517 154.349 45.6736 153.999 46.5314 153.688C47.3891 153.378 48.287 153.067 49.2891 152.804C50.4886 152.462 51.7228 152.254 52.9687 152.183C54.1532 152.077 55.3472 152.18 56.496 152.485C57.5861 152.8 58.5823 153.374 59.398 154.158C60.3335 155.093 60.9838 156.272 61.2739 157.559C61.4887 158.337 61.5833 159.143 61.5545 159.949C61.5173 160.625 61.3962 161.293 61.1938 161.94C61.0124 162.524 60.7421 163.077 60.3921 163.58C60.1157 164.038 59.802 164.472 59.4541 164.879L59.3179 165.006C59.3179 165.006 59.5263 165.189 59.9512 165.604C60.1219 165.77 60.3145 165.941 60.524 166.128C60.836 166.406 61.1852 166.717 61.5545 167.093C62.1718 167.722 62.8211 168.359 63.5587 169.044ZM84.0654 145.516L69.908 147.682L73.5636 171.545L87.8572 169.347L87.1037 164.607L78.2373 165.961V165.165L77.5318 160.609L84.3139 159.566L83.5603 154.787L76.7702 155.83L76.2411 152.326C76.2349 152.301 76.2265 152.275 76.2175 152.247C76.1918 152.168 76.161 152.073 76.161 151.943C76.1135 151.818 76.0812 151.687 76.0648 151.553L83.4641 150.43C83.5201 149.812 83.6001 149.204 83.6818 148.584C83.7055 148.404 83.7293 148.223 83.7527 148.041C83.7739 147.875 83.7955 147.709 83.8172 147.542C83.902 146.889 83.9887 146.22 84.0654 145.516ZM98.9167 144.425H93.0165L98.9568 168.495H104.392L108.136 153.919L111.735 168.495L117.515 168.455C117.515 168.455 117.587 168.104 117.756 167.419C117.851 167.034 117.968 166.572 118.103 166.044L118.104 166.041C118.208 165.631 118.323 165.181 118.445 164.695C118.726 163.58 119.054 162.25 119.391 160.817C119.515 160.29 119.644 159.756 119.774 159.216C119.999 158.286 120.228 157.338 120.441 156.38C120.632 155.523 120.836 154.688 121.038 153.86L121.038 153.859C121.192 153.227 121.346 152.599 121.492 151.968L121.563 151.657C121.871 150.326 122.145 149.138 122.405 148.081C122.686 146.942 122.886 146.042 123.031 145.349C123.175 144.656 123.263 144.321 123.263 144.321H117.868L114.661 159.757L110.861 144.361H105.755L102.059 159.47L98.9167 144.425ZM138.056 146.679L132.725 145.946L129.479 169.856L144.093 171.824L145.327 162.712L140.485 164.233L140.165 166.495L139.347 166.296L135.499 165.77L138.056 146.679ZM196.888 165.865L185.961 173.798L187.027 187.904L192.591 190.58L191.581 176.219L202.427 168.509L196.888 165.865ZM181.948 163.35L184.248 164.441L175.518 182.425L180.481 184.815L191.054 163.031L185.747 160.49L181.948 163.35ZM40.2381 174.229C39.903 173.537 39.4712 172.896 38.9554 172.325C38.5007 171.859 37.9859 171.454 37.4243 171.122C36.9255 170.836 36.3844 170.629 35.8209 170.509C35.2915 170.418 34.755 170.372 34.2176 170.374C34.5896 169.57 34.7733 168.693 34.7547 167.809C34.7536 166.819 34.529 165.842 34.0974 164.95C33.6853 163.942 33.01 163.062 32.1413 162.401C31.3847 161.851 30.4987 161.502 29.568 161.389C28.5307 161.294 27.4845 161.388 26.4816 161.668C25.3406 161.976 24.2277 162.378 23.1547 162.871C21.9442 163.436 20.894 163.954 19.9961 164.464C19.1669 164.909 18.3639 165.401 17.5911 165.937L27.8123 187.705C29.095 187.283 30.2734 186.853 31.2996 186.423C31.601 186.297 31.8976 186.176 32.1881 186.057C32.8866 185.773 33.55 185.502 34.1615 185.204C35.3437 184.652 36.4803 184.007 37.5605 183.277C38.5 182.63 39.3147 181.821 39.9655 180.887C40.5977 180.012 40.9774 178.982 41.0638 177.908C41.1155 176.642 40.8154 175.359 40.2381 174.229ZM170.607 155.312C171.642 156.225 172.419 157.392 172.859 158.697C173.341 160.071 173.578 161.516 173.444 162.966C173.322 164.635 173.005 166.284 172.498 167.88C171.98 169.479 171.278 171.013 170.406 172.452C169.666 173.701 168.676 174.785 167.496 175.638C166.362 176.443 165.051 176.97 163.672 177.175C162.048 177.364 160.401 177.176 158.862 176.625C157.286 176.193 155.833 175.399 154.621 174.308C153.6 173.358 152.825 172.178 152.361 170.867C151.909 169.483 151.737 168.024 151.856 166.574C151.953 164.897 152.268 163.24 152.794 161.644C153.274 160.129 153.925 158.673 154.734 157.303L156.577 154.913C156.952 154.558 157.349 154.225 157.764 153.918C158.891 153.139 160.188 152.637 161.548 152.452C163.173 152.298 164.813 152.491 166.358 153.018C167.926 153.463 169.377 154.246 170.607 155.312Z" fill="white"/>
<path d="M79.8408 69.6423L81.1074 67.7547L83.3601 67.3485C83.2828 65.4302 83.3364 63.5089 83.5204 61.5978C83.5204 61.5978 83.6567 61.4226 83.6006 60.8571C83.4403 58.8579 85.1398 53.187 86.3824 50.2718C80.5342 45.9357 73.2345 43.9943 65.9881 44.8478C63.363 49.2939 62.0232 54.3732 62.1161 59.527V60.0288C62.161 61.9066 62.4001 63.7749 62.8295 65.6042C68.717 65.6598 74.5178 67.0204 79.8087 69.5866L79.8408 69.6423ZM75.2473 101.446C72.776 93.7413 72.9084 85.4452 75.6241 77.8222C69.2368 74.7197 61.9339 74.0236 55.0695 75.8629C55.0695 75.8629 49.2013 89.7854 60.2562 104.353C65.0329 102.426 70.1484 101.465 75.3034 101.526L75.2473 101.446ZM120.998 96.1732C121.413 99.8775 122.431 103.49 124.012 106.87C128.334 107.108 132.615 107.827 136.775 109.013C141.451 103.017 146.852 97.6161 152.856 92.9315C152.856 92.7244 152.856 92.5572 152.856 92.366C150.331 71.6574 133.616 66.6714 133.616 66.6714C133.616 66.6714 118.553 75.4806 121.062 96.1414L120.998 96.1732ZM86.5908 75.9186C84.1903 80.0133 82.8541 84.6376 82.7029 89.3739C82.5518 94.1102 83.5904 98.8093 85.725 103.047C92.6328 105.066 98.9728 108.654 104.243 113.529C104.837 112.461 105.326 111.681 105.478 111.394L107.675 107.882L111.771 107.268C112.108 107.268 113.014 107.117 114.264 106.989C113.104 103.832 112.313 100.553 111.907 97.2166C111.429 93.4722 111.429 89.6828 111.907 85.9384C108.845 82.3077 104.922 79.4909 100.491 77.7418C96.0608 75.9926 91.2617 75.3661 86.5267 75.9186H86.5908ZM92.6674 66.8228C92.3234 59.7442 94.5766 52.7821 99.0085 47.2293C99.0085 47.2293 114.24 47.4443 123.227 63.2944C119.556 66.8847 116.628 71.1545 114.609 75.8629C108.47 70.5744 100.772 67.403 92.6674 66.8228Z" fill="white"/>
<path d="M17.609 92.1423L18.1782 89.5776C18.3866 88.5103 18.09 87.8651 16.9997 87.6421C15.9094 87.4191 15.3964 87.8651 15.1559 88.9165L14.5867 91.4812L17.609 92.1423Z" fill="white"/>
<path fill-rule="evenodd" clip-rule="evenodd" d="M52.0998 41.7065C51.9613 42.0382 51.7512 42.3356 51.4843 42.5778L51.5244 42.6096C51.223 42.8711 50.831 43.0057 50.4314 42.9848C50.0319 42.964 49.6562 42.7895 49.3839 42.4981C49.1399 42.1469 49.0091 41.7302 49.0091 41.3034C49.0091 40.8766 49.1399 40.4599 49.3839 40.1087L52.286 40.6582C52.3019 41.017 52.2383 41.3748 52.0998 41.7065ZM47.63 35.7945C47.8989 35.8257 48.1453 35.9588 48.3177 36.1661C48.5213 36.4372 48.6424 36.7606 48.6665 37.098C48.6907 37.4354 48.6169 37.7726 48.454 38.0697C47.8173 38.0495 47.2088 37.8037 46.7385 37.3767C46.5728 37.176 46.4941 36.9181 46.5196 36.6597C46.5452 36.4014 46.6729 36.1637 46.8747 35.9988C47.0906 35.8365 47.3612 35.7634 47.63 35.7945ZM24.313 75.7418L20.0562 75.5985L23.2628 78.3623L24.313 75.7418ZM95.6213 19.4697L93.577 15.7661L92.8475 19.9397L95.6213 19.4697ZM163.364 32.43C163.497 32.5614 163.659 32.6609 163.837 32.7207C164.015 32.7806 164.204 32.7994 164.391 32.7755C164.577 32.7517 164.755 32.686 164.912 32.5833C165.069 32.4807 165.2 32.3438 165.296 32.1831C165.873 31.3229 165.352 30.6937 164.631 30.2238L162.763 28.9573L161.328 31.076L163.364 32.43ZM160.815 36.3487C161.616 36.8585 162.458 37.0815 163.099 36.1416C163.741 35.2018 163.412 34.469 162.538 33.8876L160.374 32.43L158.69 34.9071L160.815 36.3487ZM174.443 41.9799L172.535 40.2037L174.612 37.9656L176.544 39.7497C177.345 40.4825 177.482 41.1834 176.728 41.9799C175.974 42.7764 175.245 42.7126 174.443 41.9799ZM202.675 93.6963L202.21 91.1157L205.24 90.5741L205.721 93.1627C205.914 94.2539 205.625 94.8672 204.527 95.0504C203.429 95.2336 202.875 94.7716 202.675 93.6963Z" fill="white"/>
<path fill-rule="evenodd" clip-rule="evenodd" d="M202.21 91.1157L202.675 93.6963C202.875 94.7716 203.429 95.2336 204.527 95.0504C205.625 94.8672 205.914 94.2539 205.721 93.1627L205.24 90.5741L202.21 91.1157ZM172.535 40.2037L174.443 41.9799C175.245 42.7126 175.974 42.7764 176.728 41.9799C177.482 41.1834 177.345 40.4825 176.544 39.7497L174.612 37.9656L172.535 40.2037ZM163.837 32.7207C163.659 32.6609 163.497 32.5614 163.364 32.43L161.328 31.076L162.763 28.9573L164.631 30.2238C165.352 30.6937 165.873 31.3229 165.296 32.1831C165.2 32.3438 165.069 32.4807 164.912 32.5833C164.755 32.686 164.577 32.7517 164.391 32.7755C164.204 32.7994 164.015 32.7806 163.837 32.7207ZM163.099 36.1416C162.458 37.0815 161.616 36.8585 160.815 36.3487L158.69 34.9071L160.374 32.43L162.538 33.8876C163.412 34.469 163.741 35.2018 163.099 36.1416ZM95.6213 19.4697L93.577 15.7661L92.8475 19.9397L95.6213 19.4697ZM52.0998 41.7065C51.9613 42.0382 51.7512 42.3356 51.4843 42.5778L51.5244 42.6096C51.223 42.8711 50.831 43.0057 50.4314 42.9848C50.0319 42.964 49.6562 42.7895 49.3839 42.4981C49.1399 42.1469 49.0091 41.7302 49.0091 41.3034C49.0091 40.8766 49.1399 40.4599 49.3839 40.1087L52.286 40.6582C52.3019 41.017 52.2383 41.3748 52.0998 41.7065ZM47.63 35.7945C47.8989 35.8257 48.1453 35.9588 48.3177 36.1661C48.5213 36.4372 48.6424 36.7606 48.6665 37.098C48.6907 37.4354 48.6169 37.7726 48.454 38.0697C47.8173 38.0495 47.2088 37.8037 46.7385 37.3767C46.5728 37.176 46.4941 36.9181 46.5196 36.6597C46.5452 36.4014 46.6729 36.1637 46.8747 35.9988C47.0906 35.8365 47.3612 35.7634 47.63 35.7945ZM24.313 75.7418L20.0562 75.5985L23.2628 78.3623L24.313 75.7418ZM18.1782 89.5776L17.609 92.1423L14.5867 91.4812L15.1559 88.9165C15.3964 87.8651 15.9094 87.4191 16.9997 87.6421C18.09 87.8651 18.3866 88.5103 18.1782 89.5776Z" fill="white"/>
<path fill-rule="evenodd" clip-rule="evenodd" d="M109.994 5.36621C89.1651 5.36936 68.8052 11.5087 51.4885 23.008C34.1718 34.5072 20.6759 50.85 12.7073 69.9696C4.7388 89.0893 2.65551 110.127 6.7209 130.423C8.25664 138.09 10.6438 145.521 13.8139 152.589C20.7852 149.335 27.9078 146.442 35.1527 143.918C30.2858 133.316 27.7351 121.754 27.7351 110C27.7606 88.332 36.435 67.5582 51.8557 52.2356C67.2764 36.913 88.1844 28.2925 109.994 28.2651C126.265 28.2636 142.171 33.0559 155.701 42.0361C169.23 51.0163 179.776 63.7811 186.004 78.7161C192.231 93.6511 193.862 110.086 190.688 125.941C189.442 132.17 187.476 138.199 184.851 143.917C192.101 146.443 199.228 149.338 206.203 152.594C212.19 139.249 215.324 124.742 215.324 110C215.324 96.2582 212.599 82.6508 207.306 69.9549C202.012 57.2591 194.253 45.7236 184.472 36.0072C174.691 26.2908 163.08 18.5839 150.301 13.3264C137.521 8.06902 123.825 5.36412 109.994 5.36621ZM12.0349 101.187C11.2508 102.018 10.8198 103.117 10.8318 104.256C10.6314 107.617 13.1566 109.832 16.3151 110.007C19.4737 110.182 22.1192 108.326 22.3116 104.973C22.3756 104.367 22.3174 103.755 22.1405 103.172C21.9635 102.589 21.6712 102.047 21.2808 101.578C20.8904 101.108 20.4097 100.721 19.8667 100.438C19.3238 100.155 18.7296 99.9831 18.1189 99.9314L17.9906 102.257C19.4336 102.52 20.3796 103.396 20.2994 104.87C20.1711 107.004 18.3594 107.745 16.4434 107.609C14.5274 107.474 12.7317 106.574 12.852 104.424C12.8725 103.864 13.09 103.33 13.4665 102.914C13.843 102.497 14.3547 102.225 14.9122 102.146L15.0405 99.796C13.8957 99.8575 12.819 100.356 12.0349 101.187ZM13.5125 87.6899L12.2459 93.4326L22.932 95.7742L23.4771 93.3848L19.2604 92.5325L19.7975 90.1431C20.038 88.9802 20.6393 88.6537 21.7856 88.7413C22.659 88.8903 23.5456 88.949 24.4311 88.9165L24.9522 86.5828C24.3605 86.8425 23.3438 86.6565 22.6417 86.528L22.6381 86.5273C22.5235 86.5064 22.4173 86.487 22.3227 86.4713C21.2164 86.312 20.038 86.3996 19.4608 87.4828C19.3829 86.9067 19.1161 86.3721 18.7017 85.9618C18.2872 85.5514 17.7482 85.2882 17.1681 85.2128C16.7631 85.1205 16.3432 85.1123 15.9349 85.1889C15.5266 85.2654 15.1386 85.425 14.7954 85.6576C14.4521 85.8902 14.1609 86.1908 13.9402 86.5406C13.7194 86.8903 13.5738 87.2816 13.5125 87.6899ZM17.9879 73.4719L17.0981 75.7817L25.8522 83.5474L26.734 81.2774L24.7539 79.6048L26.229 75.7976L28.8184 75.9011L29.7082 73.5754L17.9879 73.4719ZM25.5822 58.3541L21.8063 65.0366L31.4022 70.3651L32.5727 68.2624L28.6205 66.0641L30.8731 62.0817L29.2217 61.1737L26.9851 65.1641L24.7565 63.9295L27.3538 59.3338L25.5822 58.3541ZM29.8712 55.5192L31.8513 52.9067L39.0021 58.2591L40.4531 56.3475L33.3183 50.9951L35.2904 48.3906L33.6871 47.172L28.2518 54.3006L29.8712 55.5192ZM45.2794 38.6909C45.8793 39.3395 46.7043 39.7379 47.5882 39.806C46.9549 41.0883 46.7866 42.6017 47.7806 43.7725C49.0953 45.3495 51.0754 45.2699 52.5906 44.0035C53.033 43.6382 53.3941 43.1854 53.6508 42.6739C53.9075 42.1624 54.0543 41.6035 54.0817 41.0326L55.4766 41.2874L57.5689 39.575L54.1939 39.0254C54.1237 38.041 53.7857 37.094 53.2159 36.2855L51.7889 37.4962C52.0409 37.8909 52.2175 38.3283 52.31 38.7865L50.1295 38.3644C50.407 37.841 50.5287 37.2499 50.4805 36.6603C50.4322 36.0707 50.2159 35.507 49.8569 35.0351C48.7586 33.7209 47.1233 33.904 45.8486 34.9554C45.564 35.1633 45.3235 35.4249 45.1408 35.7252C44.9581 36.0256 44.8369 36.3588 44.784 36.7058C44.7311 37.0528 44.7477 37.4068 44.8327 37.7474C44.9177 38.088 45.0695 38.4087 45.2794 38.6909ZM71.9856 23.0162C70.6067 20.8816 68.1376 20.5311 65.9891 21.5905C62.9428 23.0878 62.3416 26.3056 63.7445 29.1332C65.1474 31.9607 68.0895 33.3306 71.1198 31.8253C71.6829 31.5793 72.1908 31.2239 72.6135 30.7799C73.0363 30.3359 73.3653 29.8124 73.5812 29.2401C73.7971 28.6678 73.8956 28.0584 73.8707 27.4477C73.8459 26.837 73.6983 26.2375 73.4366 25.6844L71.3362 26.7357C71.8172 28.1057 71.5286 29.3801 70.2139 30.0332C68.3059 30.981 66.7668 29.7863 65.901 28.0818C65.0352 26.3773 64.939 24.3543 66.895 23.3985C67.3913 23.1445 67.9611 23.0699 68.5067 23.1876C69.0523 23.3053 69.5396 23.608 69.8852 24.0436L71.9856 23.0162ZM78.3478 16.8036L76.0711 17.5443L79.438 27.8906L86.8133 25.5251L86.188 23.6135L81.1215 25.2463L78.3478 16.8036ZM94.3306 12.8987L91.8695 13.3209L89.6649 24.7425L92.0699 24.3203L92.4948 21.8114L96.5031 21.1185L97.7296 23.3645L100.207 22.9504L94.3306 12.8987ZM107.967 20.9847C106.676 21.0245 105.497 20.4829 105.497 19.0253L103.181 19.105C103.197 21.7891 105.53 22.9281 107.934 22.8723C110.933 22.8086 112.44 21.2714 112.44 19.2881C112.352 16.8302 109.897 16.3424 109.092 16.1825L109.089 16.1819C108.809 16.1162 108.552 16.057 108.316 16.0026L108.312 16.0017C106.23 15.5224 105.778 15.4183 105.778 14.5889C105.778 13.665 106.58 13.3145 107.381 13.3145C108.552 13.3145 109.474 13.6092 109.57 14.9075L111.919 14.8438C111.863 12.3348 109.73 11.387 107.437 11.4507C105.473 11.4906 103.357 12.5897 103.429 14.8278C103.493 16.8429 105.177 17.4642 106.78 17.8624C106.992 17.915 107.204 17.9645 107.414 18.0131C108.79 18.3331 110.032 18.622 110.067 19.5828C110.107 20.69 108.816 20.9847 107.967 20.9847ZM120.862 21.59C119.604 21.4387 118.53 20.7378 118.698 19.3121L116.397 19.0094C116.012 21.6777 118.153 23.1352 120.558 23.414C123.548 23.7724 125.263 22.4662 125.504 20.475C125.785 18.0457 123.444 17.2333 122.642 16.9625C122.442 16.8861 122.255 16.8149 122.079 16.7481C119.925 15.9296 119.507 15.7709 119.604 14.9314C119.708 14.0234 120.59 13.8084 121.391 13.896C122.546 14.0314 123.42 14.5013 123.348 15.7916L125.64 16.0624C125.969 13.5774 123.981 12.3508 121.72 12.08C119.748 11.849 117.511 12.6296 117.255 14.8757C117.03 16.8669 118.554 17.6952 120.109 18.3245C120.327 18.4128 120.547 18.4974 120.763 18.5806C122.086 19.0898 123.272 19.5461 123.155 20.4909C123.019 21.59 121.712 21.6936 120.862 21.59ZM134.167 14.6049L131.811 14.0473L129.277 24.6565L131.602 25.2061L134.167 14.6049ZM147.928 22.952C148.537 20.4829 147.102 18.4678 144.858 17.6315C141.691 16.4766 138.909 18.2448 137.811 21.1918C136.713 24.1388 137.691 27.1973 140.898 28.3602C141.463 28.5966 142.07 28.719 142.683 28.7202C143.297 28.7214 143.904 28.6014 144.47 28.3672C145.036 28.133 145.55 27.7892 145.981 27.3559C146.413 26.9226 146.753 26.4084 146.982 25.8433L144.778 25.0468C144.072 26.3291 142.95 26.9743 141.571 26.4805C139.535 25.684 139.358 23.8043 140.024 22.0202C140.689 20.236 142.084 18.7466 144.12 19.5431C144.653 19.7234 145.105 20.0836 145.398 20.5609C145.691 21.0382 145.806 21.6025 145.724 22.1556L147.928 22.952ZM166.066 28.9573L161.801 26.0661L155.628 35.0982L160.037 38.0612C161.681 39.1922 163.773 39.4391 165.023 37.5992C165.416 37.1115 165.619 36.5004 165.597 35.8766C165.575 35.2527 165.329 34.6573 164.903 34.1982C165.385 34.2991 165.886 34.2509 166.339 34.0601C166.792 33.8692 167.175 33.5449 167.436 33.1309C168.591 31.4583 167.789 30.1202 166.066 28.9573ZM178.468 38.9293L174.139 34.9469L166.699 42.8719L168.463 44.5127L171.381 41.3825L173.153 42.9755C174.018 43.8436 174.018 44.4729 173.361 45.4366C172.789 46.1053 172.284 46.8283 171.854 47.5951L173.626 49.2279C173.698 48.6176 174.326 47.8722 174.782 47.3301C174.88 47.2142 174.97 47.1076 175.045 47.0136C175.758 46.1534 176.271 45.118 175.63 44.0826C176.166 44.3038 176.76 44.3458 177.323 44.2021C177.885 44.0584 178.386 43.7369 178.748 43.2861C179.033 42.9892 179.253 42.637 179.394 42.2516C179.535 41.8662 179.594 41.456 179.568 41.0467C179.541 40.6374 179.43 40.238 179.241 39.8736C179.051 39.5092 178.788 39.1877 178.468 38.9293ZM190.241 52.2071L185.134 45.8272L176.556 52.5973L181.735 59.0728L183.33 57.8223L179.643 53.2266L181.743 51.5619L185.062 55.6957L186.513 54.5328L183.218 50.407L185.062 48.9495L188.645 53.4576L190.241 52.2071ZM188.154 69.5453L189.308 71.6401L200.355 68.9241L199.225 66.8612L191.713 68.932L191.697 68.9081L197.421 63.6274L196.323 61.684L188.851 63.6036L188.835 63.5637L194.551 58.4742L193.389 56.3635L185.164 64.1611L186.342 66.3116L193.79 64.3124L193.798 64.3443L188.154 69.5453ZM205.053 81.867L202.359 74.1332L192.002 77.7173L194.735 85.5388L196.635 84.8777L194.695 79.3183L197.236 78.4501L198.984 83.4441L200.756 82.8387L199.024 77.8368L201.237 77.0722L203.137 82.5122L205.053 81.867ZM207.701 93.6565L206.659 87.874L195.901 89.7458L196.326 92.1352L200.543 91.3786L200.984 93.768C201.192 94.9627 200.775 95.4805 199.669 95.8548C198.802 96.0479 197.959 96.3309 197.152 96.6991L197.584 99.0487C198.017 98.5844 199.028 98.3659 199.737 98.2127C199.855 98.1871 199.964 98.1634 200.062 98.1407C201.144 97.8619 202.186 97.3363 202.298 96.1256C202.592 96.6292 203.046 97.0218 203.588 97.2422C204.131 97.4627 204.731 97.4986 205.296 97.3442C205.707 97.2758 206.098 97.1233 206.446 96.8964C206.793 96.6695 207.09 96.3732 207.316 96.0264C207.542 95.6795 207.693 95.2897 207.76 94.8817C207.826 94.4737 207.806 94.0565 207.701 93.6565ZM208.885 101.548L202.312 105.785L198.047 105.937L198.119 108.334L202.32 108.191L209.222 111.998L209.142 109.33L204.709 106.948L208.957 104.248L208.885 101.548Z" fill="white"/>
<path d="M98.0546 128.853C98.0546 128.853 99.3853 124.233 100.067 122.393C97.5638 119.611 94.6303 117.242 91.3767 115.376C73.2912 104.855 59.1579 115.074 59.1579 115.074C59.1579 115.074 57.8762 125.796 66.2126 135.509C76.4987 133.492 86.9371 132.184 97.4539 131.603C97.6274 130.681 97.8277 129.764 98.0546 128.853Z" fill="white"/>
<path d="M170.429 119.789C169.956 119.853 169.956 118.196 170.324 118.196C170.133 116.12 169.825 114.057 169.402 112.015L169.066 110.422C167.954 105.423 166.158 100.599 163.727 96.0856C155.987 101.172 149.165 107.519 143.549 114.859L142.515 116.269C141.713 117.423 140.911 118.602 140.11 119.837C135.991 117.814 131.546 116.528 126.979 116.038C125.832 115.974 124.814 115.886 124.109 115.775C120.417 115.514 116.709 115.612 113.038 116.069C110.786 119.859 108.984 123.895 107.666 128.096L107.322 129.227C107.116 129.907 106.93 130.592 106.762 131.28C107.842 131.265 108.922 131.257 110.003 131.257C129.569 131.257 148.966 133.779 167.726 138.698C170.163 132.107 170.768 125.629 170.429 119.789Z" fill="white"/>
<path d="M89.4698 212.625C109.898 216.661 131.073 214.588 150.315 206.668C158.044 203.487 165.322 199.42 172.014 194.578C161.854 190.693 151.35 187.772 140.644 185.854C135.947 187.727 131.065 189.174 126.054 190.164C110.392 193.26 94.1683 191.759 79.3604 185.854C68.6579 187.772 58.1576 190.691 48.0012 194.574C60.2912 203.469 74.4297 209.654 89.4698 212.625Z" fill="white"/>
<path fill-rule="evenodd" clip-rule="evenodd" d="M17.609 92.1423L18.1782 89.5776C18.3866 88.5103 18.09 87.8651 16.9997 87.6421C15.9094 87.4191 15.3964 87.8651 15.1559 88.9165L14.5867 91.4812L17.609 92.1423ZM20.0562 75.5985L24.313 75.7418L23.2628 78.3623L20.0562 75.5985ZM51.4843 42.5778C51.7512 42.3356 51.9613 42.0382 52.0998 41.7065C52.2383 41.3748 52.3019 41.017 52.286 40.6582L49.3839 40.1087C49.1399 40.4599 49.0091 40.8766 49.0091 41.3034C49.0091 41.7302 49.1399 42.1469 49.3839 42.4981C49.6562 42.7895 50.0319 42.964 50.4314 42.9848C50.831 43.0057 51.223 42.8711 51.5244 42.6096L51.4843 42.5778ZM48.3177 36.1661C48.1453 35.9588 47.8989 35.8257 47.63 35.7945C47.3612 35.7634 47.0906 35.8365 46.8747 35.9988C46.6729 36.1637 46.5452 36.4014 46.5196 36.6597C46.4941 36.9181 46.5728 37.176 46.7385 37.3767C47.2088 37.8037 47.8173 38.0495 48.454 38.0697C48.6169 37.7726 48.6907 37.4354 48.6665 37.098C48.6424 36.7606 48.5213 36.4372 48.3177 36.1661ZM93.577 15.7661L95.6213 19.4697L92.8475 19.9397L93.577 15.7661ZM163.364 32.43C163.497 32.5614 163.659 32.6609 163.837 32.7207C164.015 32.7806 164.204 32.7994 164.391 32.7755C164.577 32.7517 164.755 32.686 164.912 32.5833C165.069 32.4807 165.2 32.3438 165.296 32.1831C165.873 31.3229 165.352 30.6937 164.631 30.2238L162.763 28.9573L161.328 31.076L163.364 32.43ZM160.815 36.3487C161.616 36.8585 162.458 37.0815 163.099 36.1416C163.741 35.2018 163.412 34.469 162.538 33.8876L160.374 32.43L158.69 34.9071L160.815 36.3487ZM174.443 41.9799L172.535 40.2037L174.612 37.9656L176.544 39.7497C177.345 40.4825 177.482 41.1834 176.728 41.9799C175.974 42.7764 175.245 42.7126 174.443 41.9799ZM202.675 93.6963L202.21 91.1157L205.24 90.5741L205.721 93.1627C205.914 94.2539 205.625 94.8672 204.527 95.0504C203.429 95.2336 202.875 94.7716 202.675 93.6963Z" fill="white"/>
</svg>
