<svg width="66" height="66" viewBox="0 0 66 66" fill="none" xmlns="http://www.w3.org/2000/svg">
<path d="M40.3546 16.8627C40.4474 15.3656 40.4482 15.3656 40.4491 15.3657L40.4509 15.3658L40.4551 15.3661L40.4652 15.3667L40.4923 15.3688C40.5135 15.3705 40.5409 15.3729 40.574 15.3761C40.6403 15.3827 40.7299 15.3928 40.8402 15.4082C41.0606 15.439 41.3651 15.491 41.7324 15.5781C42.465 15.7517 43.46 16.0679 44.5382 16.6421C46.7214 17.8048 49.1904 20.0006 50.5046 24.0371C50.5203 24.0845 50.532 24.1254 50.54 24.1543L50.5477 24.1829L50.9672 25.2183C51.1246 25.0383 51.2706 24.8754 51.403 24.7303C51.6454 24.4649 51.843 24.2586 51.9824 24.1164C52.0521 24.0452 52.1073 23.99 52.1464 23.9514L52.1927 23.9059L52.2064 23.8926L52.2108 23.8884L52.2124 23.8868L52.2131 23.8862C52.2133 23.886 52.2136 23.8857 53.2522 24.968L52.2136 23.8857L53.3562 22.7892L54.3892 23.9896C54.9328 24.6213 55.4291 25.2929 55.8743 25.9991L55.8806 26.0091L55.8868 26.0192L56.3006 26.6992L56.3067 26.7091L56.3066 26.7091C57.6983 29.0361 59.3665 32.7973 59.3534 37.3488C59.3402 41.9522 57.606 47.2055 52.4536 52.4381L52.4455 52.4464L52.4373 52.4545C47.2047 57.6067 41.9516 59.3407 37.3483 59.3537C32.7969 59.3666 29.036 57.6984 26.709 56.3067L26.6991 56.3008L26.6991 56.3007L26.0191 55.8869L26.009 55.8807L25.999 55.8744C25.2928 55.4292 24.6212 54.9329 23.9895 54.3893L22.7892 53.3563L23.8856 52.2137L24.9679 53.2523C23.8856 52.2137 23.8859 52.2134 23.8861 52.2132L23.8868 52.2125L23.8883 52.2109L23.8925 52.2065L23.9058 52.1928L23.9513 52.1465C23.9899 52.1074 24.0451 52.0522 24.1163 51.9825C24.2585 51.8431 24.4648 51.6455 24.7303 51.4031C24.8753 51.2707 25.0382 51.1246 25.2182 50.9673L24.1828 50.5478L24.1542 50.5401C24.1254 50.5321 24.0845 50.5204 24.0372 50.5048C20.0006 49.1906 17.8047 46.7215 16.642 44.5383C16.0678 43.4601 15.7516 42.4651 15.578 41.7325C15.4909 41.3652 15.4389 41.0607 15.4081 40.8403C15.3927 40.73 15.3826 40.6404 15.3761 40.5741C15.3728 40.541 15.3704 40.5136 15.3687 40.4924L15.3667 40.4652L15.366 40.4552L15.3657 40.451L15.3656 40.4492C15.3655 40.4483 15.3655 40.4475 16.8626 40.3547M40.3546 16.8627C39.3367 15.761 39.3361 15.7615 39.3355 15.7621L39.3342 15.7633L39.3312 15.766L39.324 15.7727L39.3045 15.7913C39.2892 15.8059 39.2695 15.825 39.2457 15.8485C39.1982 15.8955 39.1344 15.9604 39.0573 16.0428C38.9033 16.2074 38.6955 16.4427 38.4586 16.7457C37.986 17.3503 37.3901 18.2339 36.8773 19.3717C35.8425 21.6673 35.1613 24.9726 36.4641 29.0029C36.9249 30.4576 37.6174 31.8222 38.5165 33.0446L39.067 33.7931L39.9824 33.6335C40.2884 33.5802 40.8646 33.5095 41.4034 33.4491C41.6644 33.4198 41.9038 33.3944 42.0782 33.3762C42.1652 33.3671 42.2358 33.3599 42.2845 33.3549L42.3318 33.3501C43.0102 33.3084 43.6883 33.3088 44.3624 33.3511L45.3577 33.4136L45.8004 32.52C46.8873 30.3265 48.2067 28.2506 49.7345 26.33L49.998 26.3786C49.8407 26.5755 49.6785 26.783 49.5125 27.0005C48.2175 28.6978 46.673 31.0381 45.4828 33.8108C44.1496 33.6139 42.7899 33.5912 41.4374 33.7437L41.4342 33.7441L40.9996 33.794L40.9996 33.794L40.9879 33.7954C39.2662 34.007 37.5591 34.4007 35.9001 35.0072L35.2456 35.2465L35.0063 35.901C34.3998 37.56 34.0069 39.2668 33.7953 40.988L33.7953 40.988L33.7939 40.9997L33.744 41.4343L33.7436 41.4375C33.5911 42.79 33.6138 44.1497 33.8107 45.4829C31.038 46.6731 28.6977 48.2176 27.0004 49.5126C26.7828 49.6786 26.5753 49.8409 26.3784 49.9982L26.3298 49.7347C28.2505 48.2069 30.3263 46.8874 32.5199 45.8005L33.4135 45.3578L33.351 44.3625C33.3087 43.6884 33.3083 43.0103 33.35 42.3319L33.3548 42.2845C33.3598 42.2359 33.367 42.1653 33.3761 42.0783C33.3943 41.9039 33.4197 41.6645 33.449 41.4034C33.5094 40.8647 33.5801 40.2885 33.6334 39.9825L33.793 39.0671L33.0445 38.5166C31.8221 37.6174 30.4574 36.925 29.0027 36.4641C24.9724 35.1614 21.6672 35.8426 19.3716 36.8774C18.2338 37.3902 17.3502 37.9861 16.7457 38.4587C16.4426 38.6956 16.2073 38.9034 16.0427 39.0574C15.9603 39.1345 15.8954 39.1983 15.8484 39.2458C15.8383 39.256 15.829 39.2655 15.8206 39.2741C15.8093 39.2857 15.7995 39.2958 15.7912 39.3046L15.7726 39.3241L15.7659 39.3313L15.7632 39.3343L15.762 39.3356C15.7614 39.3362 15.7609 39.3368 16.8626 40.3547M40.3546 16.8627L40.4474 15.3656L39.8075 15.3259L39.3367 15.761L40.3546 16.8627ZM16.8626 40.3547L15.3655 40.4475L15.3258 39.8076L15.7609 39.3368L16.8626 40.3547ZM26.2484 11.3228C26.2476 11.323 26.2468 11.3231 26.5685 12.7882L26.2468 11.3231L25.5557 11.4749L25.2333 12.1047C23.8647 14.7784 23.4821 17.8345 24.1754 20.7101L24.2468 21.0063L23.6935 20.5229C23.3443 18.7952 23.353 16.9931 23.7249 15.2278L23.9753 14.0391L22.8647 13.5471C22.1435 13.2276 21.3893 12.9851 20.6143 12.8231L20.5965 12.8194L20.5787 12.8161L20.4111 12.7853C18.3291 12.3654 16.1966 12.4473 14.104 13.2059L13.4442 13.4451L13.2051 14.1049C12.4465 16.1976 12.3654 18.3297 12.7852 20.4111L12.816 20.5787L12.8193 20.5966L12.823 20.6144C12.985 21.3894 13.2275 22.1436 13.547 22.8648L14.0391 23.9754L15.2277 23.725C16.9931 23.3531 18.7952 23.3444 20.5229 23.6936L21.0066 24.247L20.71 24.1755C17.8345 23.4822 14.7783 23.8648 12.1046 25.2334L11.4748 25.5558L11.323 26.2469L12.7881 26.5686C11.323 26.2469 11.3229 26.2477 11.3227 26.2485L11.3223 26.2501L11.3215 26.2539L11.3196 26.2629L11.3146 26.287C11.3108 26.3057 11.3061 26.3298 11.3007 26.3591C11.2899 26.4176 11.2764 26.4968 11.262 26.5951C11.2332 26.7915 11.2009 27.065 11.1805 27.4023C11.1398 28.0752 11.1459 29.0118 11.3278 30.1005C11.6943 32.2939 12.7745 35.0886 15.561 37.5357L16.4282 38.2972L17.3866 37.6542C18.8292 36.6862 20.4377 36.0085 22.1166 35.6588L24.7242 35.1157L24.9127 35.3582L25.5843 35.4029C27.9856 35.5629 30.2878 36.2786 32.3113 37.4885L33.9126 38.446L34.5038 36.6763C34.5699 36.4786 34.6322 36.3046 34.6843 36.1613C34.6935 36.1359 34.703 36.1098 34.7123 36.0842C34.7278 36.0416 34.7428 36.0005 34.7551 35.9665C34.7723 35.9187 34.7954 35.8541 34.8146 35.7939L35.0557 35.0561L35.794 34.8147C35.8541 34.7955 35.9187 34.7724 35.9664 34.7552C36.0001 34.743 36.041 34.7281 36.0832 34.7127C36.1091 34.7033 36.1355 34.6937 36.1612 34.6844C36.3045 34.6323 36.4785 34.57 36.6763 34.5039L38.4459 33.9127L37.4884 32.3114C36.2785 30.2879 35.5628 27.9856 35.4029 25.5844L35.3581 24.9128L35.1156 24.7243L35.6587 22.1167C36.0084 20.4378 36.6861 18.8293 37.6541 17.3867L38.2972 16.4283L37.5356 15.5611C35.0885 12.7746 32.2938 11.6944 30.1004 11.3279C29.0117 11.146 28.0751 11.1399 27.4022 11.1806C27.0649 11.201 26.7914 11.2333 26.595 11.2621C26.4968 11.2765 26.4175 11.29 26.359 11.3008C26.3297 11.3062 26.3056 11.3109 26.2869 11.3147L26.2628 11.3197L26.2538 11.3216L26.25 11.3224L26.2484 11.3228ZM22.9166 22.7339L24.6264 22.0409L25.8731 21.8393C28.4344 21.4251 31.0137 21.8351 33.2445 22.9939L34.31 24.1208C32.8647 23.122 31.2044 22.4665 29.4498 22.2021C27.509 21.9097 25.5622 22.0505 23.6434 22.7395L22.9777 22.9786L22.7387 23.6443C22.0497 25.5632 21.9097 27.5096 22.202 29.4499C22.4664 31.2045 23.122 32.8648 24.1207 34.3101L22.9938 33.2446C21.835 31.0138 21.425 28.4345 21.8392 25.8731L22.0401 24.6309L22.7341 22.9159L22.7864 22.7866L22.9166 22.7339Z" fill="white" stroke="#3F8800" stroke-width="3"/>
</svg>
