<svg width="66" height="66" viewBox="0 0 66 66" fill="none" xmlns="http://www.w3.org/2000/svg">
<path d="M40.3546 16.8622C40.4474 15.3651 40.4482 15.3651 40.4491 15.3652L40.4509 15.3653L40.4551 15.3656L40.4652 15.3663L40.4923 15.3683C40.5135 15.37 40.5409 15.3724 40.574 15.3757C40.6403 15.3822 40.7299 15.3923 40.8402 15.4077C41.0606 15.4385 41.3651 15.4905 41.7324 15.5776C42.465 15.7512 43.46 16.0674 44.5382 16.6416C46.7214 17.8043 49.1904 20.0001 50.5046 24.0366C50.5203 24.084 50.532 24.1249 50.54 24.1538L50.5477 24.1824L50.9672 25.2178C51.1246 25.0378 51.2706 24.8749 51.403 24.7299C51.6454 24.4644 51.843 24.2581 51.9824 24.1159C52.0521 24.0447 52.1073 23.9895 52.1464 23.9509L52.1927 23.9054L52.2064 23.8922L52.2108 23.8879L52.2124 23.8864L52.2131 23.8857C52.2133 23.8855 52.2136 23.8852 53.2522 24.9675L52.2136 23.8852L53.3562 22.7888L54.3892 23.9891C54.9328 24.6208 55.4291 25.2924 55.8743 25.9986L55.8806 26.0086L55.8868 26.0187L56.3006 26.6987L56.3067 26.7086L56.3066 26.7086C57.6983 29.0356 59.3665 32.7968 59.3534 37.3483C59.3402 41.9517 57.606 47.205 52.4536 52.4376L52.4455 52.4459L52.4373 52.454C47.2047 57.6062 41.9516 59.3402 37.3483 59.3532C32.7969 59.3661 29.036 57.6979 26.709 56.3062L26.6991 56.3003L26.6991 56.3002L26.0191 55.8864L26.009 55.8802L25.999 55.8739C25.2928 55.4287 24.6212 54.9324 23.9895 54.3888L22.7892 53.3558L23.8856 52.2132L24.9679 53.2518C23.8856 52.2132 23.8859 52.2129 23.8861 52.2127L23.8868 52.212L23.8883 52.2104L23.8925 52.206L23.9058 52.1923L23.9513 52.146C23.9899 52.1069 24.0451 52.0517 24.1163 51.982C24.2585 51.8426 24.4648 51.645 24.7303 51.4026C24.8753 51.2702 25.0382 51.1242 25.2182 50.9668L24.1828 50.5474L24.1542 50.5396C24.1254 50.5317 24.0845 50.5199 24.0372 50.5043C20.0006 49.1901 17.8047 46.721 16.642 44.5378C16.0678 43.4596 15.7516 42.4646 15.578 41.732C15.4909 41.3647 15.4389 41.0602 15.4081 40.8398C15.3927 40.7295 15.3826 40.6399 15.3761 40.5736C15.3728 40.5405 15.3704 40.5131 15.3687 40.4919L15.3667 40.4648L15.366 40.4547L15.3657 40.4505L15.3656 40.4487C15.3655 40.4478 15.3655 40.447 16.8626 40.3542M40.3546 16.8622C39.3367 15.7605 39.3361 15.761 39.3355 15.7616L39.3342 15.7628L39.3312 15.7655L39.324 15.7722L39.3045 15.7908C39.2892 15.8054 39.2695 15.8245 39.2457 15.848C39.1982 15.895 39.1344 15.9599 39.0573 16.0423C38.9033 16.2069 38.6955 16.4422 38.4586 16.7453C37.986 17.3498 37.3901 18.2334 36.8773 19.3712C35.8425 21.6668 35.1613 24.9721 36.4641 29.0024C36.9249 30.4571 37.6174 31.8217 38.5165 33.0441L39.067 33.7926L39.9824 33.633C40.2884 33.5797 40.8646 33.509 41.4034 33.4486C41.6644 33.4194 41.9038 33.3939 42.0782 33.3757C42.1652 33.3666 42.2358 33.3594 42.2845 33.3544L42.3318 33.3496C43.0102 33.3079 43.6883 33.3083 44.3624 33.3506L45.3577 33.4131L45.8004 32.5195C46.8873 30.326 48.2067 28.2501 49.7345 26.3295L49.998 26.3781C49.8407 26.575 49.6785 26.7825 49.5125 27C48.2175 28.6973 46.673 31.0376 45.4828 33.8103C44.1496 33.6134 42.7899 33.5907 41.4374 33.7432L41.4342 33.7436L40.9996 33.7935L40.9996 33.7935L40.9879 33.7949C39.2662 34.0066 37.5591 34.4002 35.9001 35.0067L35.2456 35.246L35.0063 35.9005C34.3998 37.5596 34.0069 39.2663 33.7953 40.9875L33.7953 40.9875L33.7939 40.9992L33.744 41.4338L33.7436 41.437C33.5911 42.7895 33.6138 44.1492 33.8107 45.4824C31.038 46.6726 28.6977 48.2171 27.0004 49.5121C26.7828 49.6781 26.5753 49.8404 26.3784 49.9977L26.3298 49.7342C28.2505 48.2064 30.3263 46.8869 32.5199 45.8L33.4135 45.3573L33.351 44.362C33.3087 43.6879 33.3083 43.0098 33.35 42.3314L33.3548 42.2841C33.3598 42.2354 33.367 42.1648 33.3761 42.0778C33.3943 41.9034 33.4197 41.664 33.449 41.403C33.5094 40.8643 33.5801 40.288 33.6334 39.982L33.793 39.0666L33.0445 38.5161C31.8221 37.617 30.4575 36.9245 29.0028 36.4637C24.9725 35.1609 21.6672 35.8421 19.3716 36.8769C18.2338 37.3897 17.3502 37.9856 16.7457 38.4582C16.4426 38.6951 16.2073 38.9029 16.0427 39.0569C15.9603 39.134 15.8954 39.1978 15.8484 39.2453C15.8383 39.2555 15.829 39.265 15.8206 39.2736C15.8093 39.2852 15.7995 39.2954 15.7912 39.3041L15.7726 39.3236L15.7659 39.3308L15.7632 39.3338L15.762 39.3351C15.7614 39.3357 15.7609 39.3363 16.8626 40.3542M40.3546 16.8622L40.4474 15.3651L39.8075 15.3254L39.3367 15.7605L40.3546 16.8622ZM16.8626 40.3542L15.3655 40.447L15.3258 39.8071L15.7609 39.3363L16.8626 40.3542ZM26.2484 11.3223C26.2476 11.3225 26.2468 11.3226 26.5685 12.7877L26.2468 11.3226L25.5557 11.4744L25.2333 12.1042C23.8647 14.7779 23.4821 17.8341 24.1754 20.7096L24.2468 21.0059L23.6934 20.5224C23.3443 18.7947 23.353 16.9926 23.7249 15.2273L23.9753 14.0387L22.8647 13.5466C22.1435 13.2271 21.3893 12.9846 20.6143 12.8226L20.5965 12.8189L20.5787 12.8156L20.4111 12.7848C18.3291 12.3649 16.1966 12.4468 14.104 13.2055L13.4442 13.4447L13.2051 14.1045C12.4465 16.1971 12.3654 18.3293 12.7852 20.4107L12.816 20.5783L12.8193 20.5961L12.823 20.614C12.985 21.3889 13.2275 22.1431 13.547 22.8643L14.0391 23.9749L15.2277 23.7245C16.9931 23.3526 18.7952 23.3439 20.5229 23.6931L21.0066 24.2465L20.71 24.175C17.8345 23.4817 14.7783 23.8643 12.1046 25.2329L11.4748 25.5553L11.323 26.2464L12.7881 26.5681C11.323 26.2464 11.3229 26.2472 11.3227 26.248L11.3223 26.2496L11.3215 26.2534L11.3196 26.2624L11.3146 26.2865C11.3108 26.3052 11.3061 26.3293 11.3007 26.3586C11.2899 26.4171 11.2764 26.4964 11.262 26.5946C11.2332 26.791 11.2009 27.0646 11.1805 27.4018C11.1398 28.0747 11.1459 29.0113 11.3278 30.1C11.6943 32.2934 12.7745 35.0881 15.561 37.5352L16.4282 38.2968L17.3866 37.6537C18.8292 36.6857 20.4377 36.008 22.1166 35.6583L24.7242 35.1152L24.9127 35.3577L25.5843 35.4025C27.9856 35.5624 30.2878 36.2781 32.3113 37.488L33.9126 38.4455L34.5038 36.6759C34.5699 36.4781 34.6322 36.3041 34.6843 36.1608C34.6936 36.1352 34.7032 36.1088 34.7126 36.0829C34.728 36.0406 34.7429 35.9997 34.7551 35.966C34.7723 35.9183 34.7954 35.8536 34.8146 35.7935L35.0557 35.0557L35.794 34.8141C35.8541 34.795 35.9187 34.7719 35.9664 34.7547C36.0003 34.7425 36.0413 34.7275 36.0837 34.7121C36.1095 34.7027 36.1357 34.6931 36.1612 34.6839C36.3045 34.6318 36.4785 34.5695 36.6763 34.5034L38.4459 33.9122L37.4884 32.3109C36.2785 30.2874 35.5628 27.9852 35.4029 25.5839L35.3581 24.9123L35.1156 24.7238L35.6587 22.1162C36.0084 20.4373 36.6861 18.8288 37.6541 17.3862L38.2972 16.4278L37.5356 15.5606C35.0885 12.7741 32.2938 11.6939 30.1004 11.3274C29.0117 11.1455 28.0751 11.1394 27.4022 11.1801C27.0649 11.2005 26.7914 11.2328 26.595 11.2616C26.4968 11.276 26.4175 11.2895 26.359 11.3003C26.3297 11.3057 26.3056 11.3104 26.2869 11.3142L26.2628 11.3192L26.2538 11.3211L26.25 11.3219L26.2484 11.3223ZM22.9166 22.7334L24.6264 22.0404L25.8731 21.8388C28.4344 21.4246 31.0137 21.8346 33.2445 22.9934L34.31 24.1203C32.8647 23.1216 31.2044 22.466 29.4498 22.2017C27.509 21.9092 25.5622 22.05 23.6434 22.7391L22.9777 22.9781L22.7387 23.6439C22.0497 25.5627 21.9097 27.5091 22.202 29.4494C22.4664 31.204 23.122 32.8643 24.1207 34.3096L22.9938 33.2441C21.835 31.0133 21.425 28.434 21.8392 25.8727L22.0401 24.6304L22.7341 22.9154L22.7864 22.7862L22.9166 22.7334Z" fill="white" stroke="#353535" stroke-width="3"/>
</svg>
