<svg width="180" height="180" viewBox="0 0 180 180" fill="none" xmlns="http://www.w3.org/2000/svg">
<path d="M109.458 114.875H71.5417C68.5501 114.875 66.125 112.45 66.125 109.458V71.5417C66.125 68.5501 68.5501 66.125 71.5417 66.125H109.458C112.45 66.125 114.875 68.5501 114.875 71.5417V109.458C114.875 112.45 112.45 114.875 109.458 114.875ZM71.5417 71.5417V109.458H109.458V71.5417H71.5417ZM106.75 104.042H74.25L82.375 93.2083L85.0833 95.9167L93.2083 85.0833L106.75 104.042ZM81.0208 87.7917C78.7772 87.7917 76.9583 85.9728 76.9583 83.7292C76.9583 81.4855 78.7772 79.6667 81.0208 79.6667C83.2645 79.6667 85.0833 81.4855 85.0833 83.7292C85.0833 85.9728 83.2645 87.7917 81.0208 87.7917Z" fill="#D1D1D1"/>
</svg>
