<svg width="100" height="100" viewBox="0 0 100 100" fill="none" xmlns="http://www.w3.org/2000/svg">
<circle cx="50" cy="50" r="48.5" fill="#FAFAFA" stroke="#A5AFC3" stroke-width="3"/>
<path d="M41.5 63.1304C41.5 63.9588 42.1716 64.6304 43 64.6304C43.8284 64.6304 44.5 63.9588 44.5 63.1304H41.5ZM57.8491 61.6309L59.3191 61.3325L59.3191 61.3325L57.8491 61.6309ZM56.499 63.1304C56.499 63.9588 57.1706 64.6304 57.999 64.6304C58.8275 64.6304 59.499 63.9588 59.499 63.1304H56.499ZM44.5 63.1304C44.5 59.8169 47.1861 57.1309 50.4995 57.1309V54.1309C45.5292 54.1309 41.5 58.1601 41.5 63.1304H44.5ZM50.4995 57.1309C53.4004 57.1309 55.8234 59.1912 56.3791 61.9292L59.3191 61.3325C58.4853 57.2239 54.8553 54.1309 50.4995 54.1309V57.1309ZM56.3791 61.9292C56.4576 62.3161 56.499 62.7176 56.499 63.1304H59.499C59.499 62.5161 59.4373 61.9147 59.3191 61.3325L56.3791 61.9292Z" fill="#A5AFC3"/>
<rect width="20" height="20" transform="translate(27 34)" fill="#FAFAFA"/>
<path d="M32 39L42.0005 49.0005" stroke="#A5AFC3" stroke-width="3" stroke-linecap="round"/>
<path d="M32 49L42.0005 38.9995" stroke="#A5AFC3" stroke-width="3" stroke-linecap="round"/>
<rect width="20" height="20" transform="translate(52 34)" fill="#FAFAFA"/>
<path d="M57 39L67.0005 49.0005" stroke="#A5AFC3" stroke-width="3" stroke-linecap="round"/>
<path d="M57 49L67.0005 38.9995" stroke="#A5AFC3" stroke-width="3" stroke-linecap="round"/>
</svg>
