<svg width="139" height="66" viewBox="0 0 139 66" fill="none" xmlns="http://www.w3.org/2000/svg">
<path fill-rule="evenodd" clip-rule="evenodd" d="M76 48.011C77.9145 48.011 79.829 48.011 81.7435 48.011C82.1966 48.0073 82.6435 48.1161 83.0442 48.3276C83.445 48.5392 83.7869 48.8469 84.0394 49.2231C84.496 49.8723 84.6702 50.659 84.8958 51.409C85.5889 53.7435 86.2711 56.0797 86.9661 58.4142C86.979 58.625 87.2907 58.7057 87.3512 58.482C88.0609 56.1256 88.7449 53.7618 89.4491 51.4035C89.6912 50.571 89.8984 49.6889 90.4614 49.0068C90.8281 48.5638 91.3245 48.247 91.8807 48.1009C92.3483 47.9707 92.8398 48.0202 93.3202 48.0128C95 48.0128 96.6816 47.9982 98.3632 48.0238C98.3504 53.892 98.3632 59.7492 98.3522 65.6118C96.5349 65.6008 94.7158 65.6283 92.8985 65.5972C92.8985 62.1588 92.8985 58.7186 92.8985 55.2802C92.8856 54.9739 92.3795 54.9996 92.3483 55.2802C91.2646 58.7167 90.1753 62.1496 89.108 65.5898C87.8244 65.6192 86.5407 65.5898 85.257 65.6027C84.1751 62.1661 83.1023 58.7277 82.0112 55.2949C81.9654 55.0125 81.6298 55.0015 81.4501 55.1683C81.4501 58.6434 81.4501 62.1184 81.4501 65.5935C79.6346 65.6155 77.8191 65.5935 76.0037 65.6045V48L76 48.011ZM100.844 48.022C102.66 47.9945 104.475 48.0367 106.291 48C106.318 51.4842 106.291 54.9684 106.302 58.4417C106.458 58.581 106.744 58.625 106.839 58.394C108.048 55.8609 109.254 53.3272 110.457 50.7929C110.84 50.0062 111.15 49.1535 111.774 48.5171C112.054 48.2531 112.401 47.9982 112.804 48.0165C114.655 48.0165 116.505 48.0037 118.357 48.0165C118.357 53.8773 118.357 59.7382 118.357 65.599C116.542 65.6137 114.726 65.6137 112.909 65.599C112.909 62.1276 112.909 58.6544 112.909 55.183C112.909 54.8859 112.401 54.9098 112.348 55.183C111.21 57.6953 110.073 60.2076 108.939 62.7199C108.588 63.4828 108.257 64.2676 107.734 64.9315C107.442 65.2982 107.019 65.6338 106.524 65.6118C104.633 65.6118 102.74 65.6118 100.85 65.6118C100.85 59.7437 100.85 53.881 100.85 48.0238L100.844 48.022ZM121.016 56.0541C126.719 56.0155 132.424 56.0541 138.127 56.0357C137.935 56.8206 137.427 57.5028 136.888 58.0877C136.355 58.6629 135.714 59.1266 135.001 59.4521C134.288 59.7776 133.517 59.9584 132.734 59.9839C130.651 59.9931 128.568 59.9839 126.485 59.9839C126.472 61.8599 126.485 63.734 126.485 65.61C124.667 65.61 122.85 65.61 121.031 65.61C121.011 62.4228 121.029 59.2375 121.011 56.0541H121.016Z" fill="#00B557"/>
<path fill-rule="evenodd" clip-rule="evenodd" d="M120.318 48.0215C124.579 48.0215 128.839 48.0215 133.1 48.0215C134.221 48.118 135.29 48.5378 136.177 49.23C136.822 49.7322 137.358 50.3604 137.752 51.0763C138.147 51.7923 138.391 52.581 138.471 53.3945C138.51 53.9814 138.489 54.5707 138.407 55.1531C135.796 55.1678 133.184 55.1531 130.575 55.1531C129.678 55.1531 128.778 55.1898 127.886 55.0578C125.882 54.8047 123.905 53.9685 122.486 52.5051C121.302 51.2812 120.542 49.7095 120.318 48.0215Z" fill="#0096D4"/>
<g clip-path="url(#clip0_8995_93775)">
<path fill-rule="evenodd" clip-rule="evenodd" d="M35.7883 58.0546C35.8936 57.915 35.8932 57.7262 35.9456 57.5648C36.2602 57.5648 36.5749 57.5648 36.8895 57.5648C36.8523 57.7921 36.8405 58.025 36.7719 58.2464C36.6976 58.5032 36.4342 58.6745 36.1724 58.7075C35.8823 58.7357 35.5904 58.728 35.2985 58.7503C35.3133 58.9643 35.3146 59.1784 35.3334 59.3925C35.3334 59.5038 35.458 59.5774 35.5628 59.5663C35.8272 59.5586 36.0911 59.5346 36.3559 59.5235C36.2913 59.818 36.2139 60.11 36.1493 60.4045C35.8215 60.4144 35.4938 60.4075 35.1661 60.4088C34.931 60.4024 34.6928 60.4041 34.4639 60.3485C34.3869 60.3313 34.3184 60.2887 34.2698 60.2278C34.2213 60.1669 34.1957 60.0914 34.1973 60.0141C34.1584 59.2156 34.123 58.4168 34.0959 57.6166C34.4924 57.6166 34.8887 57.6166 35.2849 57.6166C35.2967 57.7733 35.2998 57.9304 35.2985 58.0875C35.4597 58.0798 35.6323 58.1145 35.7866 58.055L35.7883 58.0546ZM28.6081 56.7599C28.6732 56.4846 28.7392 56.2089 28.8099 55.9354C29.9775 55.9384 31.1455 55.9354 32.3135 55.9354C32.2458 56.2098 32.1785 56.4838 32.1134 56.7586C31.6446 56.7586 31.1761 56.7586 30.7077 56.7586C30.6491 56.9915 30.5945 57.2249 30.5368 57.4578C31.0127 57.4578 31.4886 57.4578 31.9644 57.4578C31.8949 57.742 31.8228 58.0255 31.7569 58.3106H30.331C30.2388 58.6775 30.1444 59.044 30.0623 59.4126C30.0225 59.5115 30.1536 59.5286 30.22 59.5496C30.5639 59.6194 30.9087 59.5093 31.2517 59.4819C31.1757 59.7936 31.0957 60.1044 31.0232 60.417C30.4551 60.417 29.8831 60.417 29.3133 60.417C29.1307 60.4011 28.9157 60.3823 28.7929 60.2307C28.7029 60.1237 28.6033 59.9914 28.6478 59.8454C28.7649 59.3359 28.9004 58.8308 29.0158 58.3213C28.7536 58.3213 28.4879 58.3213 28.224 58.3213C28.2934 58.0336 28.3655 57.7463 28.4337 57.4582H29.2325C29.2871 57.2257 29.3448 56.9941 29.4007 56.7616C29.1385 56.7591 28.8729 56.7616 28.6089 56.7616L28.6081 56.7599ZM43.1766 54.0131C43.6406 54.0092 44.1047 54.0131 44.5687 54.0131C44.5936 54.1998 44.5569 54.3963 44.6063 54.5791C44.7217 54.6793 44.9035 54.6313 45.0472 54.6429C44.9834 54.9259 44.9122 55.2076 44.8366 55.4867C44.5115 55.4828 44.1868 55.4867 43.8617 55.4867C43.6467 55.4833 43.4077 55.4186 43.281 55.2358C43.2089 55.1459 43.208 55.0273 43.2037 54.9194C43.1945 54.6197 43.1905 54.3166 43.1766 54.0157V54.0131ZM39.354 58.2793C39.2819 58.6013 39.1993 58.9215 39.1259 59.243C39.4663 59.243 39.8071 59.243 40.1479 59.243C40.2266 58.922 40.307 58.6009 40.3752 58.2776C40.0343 58.2776 39.6939 58.2776 39.354 58.2776V58.2793ZM39.766 56.5668C39.6725 56.9432 39.5808 57.3203 39.4969 57.6984C39.8336 57.5082 40.209 57.3933 40.5963 57.3619C40.6612 57.0973 40.7258 56.8326 40.7898 56.5677C40.4486 56.5651 40.1077 56.5677 39.7669 56.5677L39.766 56.5668ZM40.1615 54.8972C40.0793 55.2624 39.9867 55.625 39.9032 55.9915C40.2467 55.8313 40.6111 55.7093 40.9957 55.6973C41.0612 55.431 41.1224 55.1639 41.1857 54.8972H40.1615ZM39.0581 54.0003C38.6448 55.768 38.2174 57.5331 37.7971 59.2991H37.5349C37.4685 59.5813 37.3959 59.8621 37.3304 60.1442C38.1915 60.1442 39.0528 60.1442 39.9142 60.1442C39.8927 60.2363 39.8705 60.3292 39.8508 60.4217C40.2764 60.4217 40.702 60.4217 41.1281 60.4217C41.1525 60.3288 41.1761 60.2359 41.2006 60.143H41.5502C41.5305 60.2346 41.5108 60.3266 41.4929 60.4191C41.846 60.4191 42.1986 60.4234 42.5517 60.4191C42.7164 60.4134 42.8775 60.3707 43.0226 60.2943C43.1678 60.2179 43.2931 60.1099 43.3889 59.9786C43.6183 59.6609 43.8193 59.3248 44.0505 59.0089C44.1331 59.3248 44.1864 59.6468 44.272 59.9606C44.3419 60.1918 44.5945 60.2881 44.8034 60.3669C45.0944 60.4097 45.3915 60.3994 45.6861 60.3994C45.7589 60.0897 45.8326 59.7803 45.9072 59.4712C45.7499 59.4712 45.5891 59.4802 45.4361 59.4408C45.3636 59.425 45.3671 59.3394 45.3487 59.285C45.2766 58.9549 45.1958 58.627 45.1237 58.2973C44.9218 58.2922 44.7195 58.2973 44.5176 58.2926C44.5976 58.1873 44.6797 58.0833 44.7628 57.9809H46.2664C46.3246 57.7309 46.3846 57.4815 46.4464 57.2326C45.981 57.2326 45.5161 57.2326 45.0516 57.2326C45.1066 57.007 45.1608 56.7813 45.2176 56.5561C45.6817 56.5561 46.1453 56.5561 46.6094 56.5561C46.6797 56.2753 46.7448 55.994 46.8139 55.7132C45.4272 55.7132 44.0409 55.7132 42.6548 55.7132C42.5906 55.9936 42.518 56.2727 42.4573 56.554C42.9533 56.557 43.4492 56.554 43.9456 56.5566C43.8844 56.7805 43.8364 57.0078 43.7752 57.2317C43.2723 57.2317 42.7702 57.2292 42.2668 57.2317C42.2122 57.48 42.1479 57.7275 42.092 57.9767C42.5316 57.9788 42.9707 57.9767 43.4103 57.9788C43.101 58.4497 42.7986 58.9232 42.4861 59.3916C42.2991 59.6343 41.9618 59.6057 41.6891 59.5975C41.7162 59.4759 41.7455 59.3556 41.773 59.2349C41.6546 59.2349 41.5362 59.2349 41.4178 59.2349C41.7606 57.7896 42.1053 56.3445 42.4516 54.8997C42.5996 54.898 42.7479 54.898 42.8965 54.8997C42.9738 54.6048 43.0428 54.3076 43.118 54.0127C42.4455 54.0182 41.7726 54.0366 41.1027 54.0932C40.7916 54.112 40.518 54.273 40.2672 54.4404C40.3022 54.2948 40.335 54.1484 40.3682 54.002L39.0581 54.0003ZM33.832 56.2363C33.801 56.3686 33.7669 56.5009 33.7446 56.6349C34.4036 56.6058 35.0643 56.6349 35.7241 56.6216C35.7586 56.4932 35.7936 56.3648 35.8294 56.2363C35.1993 56.2363 34.5687 56.2363 33.9386 56.2363L33.8307 56.2398L33.832 56.2363ZM34.1672 54.9173C34.0636 55.2268 34.0099 55.5496 33.9229 55.8639C33.9666 55.8258 34.0164 55.7907 34.0627 55.7534C34.2336 55.642 34.4187 55.553 34.6133 55.4888C35.0752 55.3274 35.572 55.4101 36.0514 55.3899C36.0885 55.2362 36.1265 55.0825 36.1641 54.9293C35.4986 54.919 34.8318 54.9421 34.1672 54.9173ZM33.094 54.0003C32.6398 55.8492 32.1883 57.6989 31.7394 59.5496C31.7049 59.729 31.6397 59.9109 31.6616 60.095C31.7529 60.2508 31.9168 60.3827 32.106 60.3947C32.3835 60.4225 32.6627 60.42 32.9415 60.4208H33.9085C33.9884 60.1001 34.061 59.7786 34.1396 59.4571C33.8089 59.4712 33.4741 59.5693 33.1451 59.5063C33.0542 59.3873 33.1206 59.2435 33.1451 59.1155C33.2932 58.5465 33.4138 57.9707 33.5733 57.403C34.3219 57.4188 35.0713 57.4077 35.8198 57.409C36.1768 57.4158 36.5674 57.3092 36.7916 57.0202C36.9624 56.7895 37.045 56.5103 37.1176 56.2381C37.2989 55.4918 37.4772 54.7452 37.6603 53.9998C37.1053 53.9998 36.5504 54.0208 35.9954 54.0101C35.6533 53.9947 35.3164 54.067 34.9865 54.1462C34.7584 54.1998 34.5561 54.3213 34.3699 54.4571C34.3083 54.4999 34.2476 54.5465 34.1868 54.5919C34.2331 54.3954 34.2782 54.1972 34.3245 54.0007C33.9137 54.0007 33.503 54.0007 33.0922 54.0007L33.094 54.0003ZM29.4514 54.8008C29.6048 54.544 29.7241 54.267 29.8609 54.0011C30.3415 54.0011 30.8222 54.0011 31.3028 54.0011C31.2286 54.1582 31.1543 54.3145 31.0791 54.472C31.5598 54.472 32.0365 54.472 32.5154 54.472C32.4438 54.7559 32.3782 55.041 32.3052 55.3236C31.6498 55.3236 30.9965 55.321 30.342 55.3236C30.2419 55.4165 30.1514 55.5291 30.019 55.5779C29.8176 55.6601 29.6192 55.7633 29.3977 55.7778C29.1442 55.7924 28.8899 55.78 28.636 55.7834C28.7042 55.5054 28.7722 55.2277 28.8401 54.9503C29.0446 54.9387 29.3269 55.0111 29.4518 54.7996L29.4514 54.8008ZM25.8469 49.5589C26.3826 49.4883 26.9157 49.4001 27.4479 49.3059C27.423 49.4793 27.3863 49.6509 27.3382 49.8196C27.1739 50.4901 27.0136 51.1614 26.8663 51.8352C26.8226 52.0108 26.8305 52.1991 26.7479 52.364C26.4228 52.3588 26.0981 52.361 25.7735 52.3614C25.5803 52.3614 25.3867 52.3914 25.1949 52.364C25.2758 52.0005 25.447 51.664 25.52 51.2984C25.6647 50.7255 25.7569 50.1424 25.8469 49.5598V49.5589ZM43.7092 49.5084C43.406 49.6047 43.2902 49.9314 43.2015 50.2011C43.1014 50.5534 42.9904 50.9126 42.9992 51.2817C42.9992 51.4367 43.0865 51.6092 43.2565 51.6323C43.3567 51.6372 43.4568 51.6219 43.5507 51.5874C43.6446 51.5529 43.7302 51.4998 43.8023 51.4315C43.9976 51.2175 44.0321 50.9229 44.1082 50.6583C44.1873 50.3428 44.2969 49.9909 44.1414 49.6809C44.0728 49.5208 43.8705 49.4544 43.7088 49.5097L43.7092 49.5084ZM42.473 49.106C42.8187 48.8311 43.2399 48.6222 43.6904 48.5973C43.9906 48.5794 44.2611 48.7716 44.4189 49.0092C44.4368 48.9321 44.4425 48.8183 44.553 48.8255C45.0564 48.7583 45.558 48.6761 46.057 48.5884C46.0483 48.6594 46.0418 48.7313 46.026 48.8024C45.7372 49.9635 45.4484 51.1284 45.2565 52.31C45.2575 52.3251 45.255 52.3403 45.249 52.3542C45.243 52.3682 45.2339 52.3806 45.2222 52.3905C45.2105 52.4005 45.1966 52.4076 45.1817 52.4114C45.1667 52.4152 45.151 52.4155 45.1359 52.4123C44.6513 52.4123 44.1663 52.4072 43.6826 52.4397C43.662 52.349 43.697 52.2595 43.7127 52.1713C43.5257 52.3134 43.3194 52.4462 43.0796 52.4783C42.7383 52.5143 42.3939 52.4495 42.0907 52.292C41.968 52.2289 41.8601 52.1413 41.7741 52.0348C41.688 51.9283 41.6258 51.8054 41.5912 51.6738C41.4785 51.2457 41.569 50.7983 41.6848 50.38C41.8158 49.8954 42.0658 49.4215 42.4748 49.106H42.473ZM46.7461 48.7613C47.2076 48.7039 47.6638 48.6132 48.1187 48.5181C48.1951 48.6393 48.1715 48.7861 48.1851 48.9214C48.2047 49.4116 48.2454 49.901 48.2559 50.3916L48.2279 50.4545C48.2983 50.443 48.3105 50.3625 48.3415 50.3111C48.4368 50.0992 48.5513 49.8971 48.6675 49.6946C48.8244 49.4198 48.952 49.1304 49.0844 48.8435C49.1136 48.742 49.2364 48.7579 49.3203 48.7412C49.7368 48.6932 50.1471 48.6072 50.5583 48.5301C50.6181 48.5113 50.6588 48.6025 50.6098 48.6414C49.4119 50.7058 48.2126 52.7694 47.0118 54.8321C46.834 55.2127 46.4411 55.4918 46.0068 55.4824C45.7009 55.4854 45.3972 55.5025 45.0922 55.4961C45.1582 55.2118 45.2233 54.9276 45.2862 54.6429C45.4344 54.6394 45.5873 54.657 45.7311 54.6125C45.8888 54.4746 45.9675 54.2725 46.0903 54.1069C46.4481 53.585 46.7309 53.0199 47.0625 52.483C47.1062 52.4243 47.0975 52.3503 47.0927 52.2826C47.0179 51.5407 46.924 50.8009 46.8222 50.0624C46.7732 49.6826 46.7348 49.3012 46.6614 48.9253C46.6391 48.8572 46.6518 48.754 46.7488 48.7613H46.7461ZM29.9028 49.4253C29.6799 49.4823 29.5532 49.6933 29.4715 49.8868C29.3478 50.2119 29.2575 50.5482 29.2019 50.8908C29.1827 51.0783 29.1416 51.2941 29.2605 51.4589C29.3627 51.6015 29.579 51.6011 29.714 51.506C29.9531 51.3463 30.0505 51.0638 30.1326 50.8056C30.226 50.5142 30.2878 50.214 30.317 49.91C30.3232 49.7653 30.3205 49.6034 30.2218 49.4857C30.1383 49.4061 30.0099 49.4001 29.9028 49.4253ZM29.7783 48.5751C30.2629 48.5323 30.7872 48.525 31.2242 48.7652C31.3663 48.8424 31.4881 48.9508 31.5801 49.082C31.6721 49.2132 31.7317 49.3636 31.7542 49.5212C31.8145 49.9335 31.7315 50.3509 31.6157 50.7469C31.5004 51.113 31.3422 51.479 31.0743 51.7642C30.6024 52.2741 29.8713 52.474 29.1866 52.4423C28.8292 52.4205 28.4525 52.3691 28.1541 52.1593C27.9472 52.0099 27.8059 51.7891 27.7586 51.5415C27.6743 51.1562 27.7503 50.7594 27.846 50.3856C27.9732 49.8988 28.1982 49.4133 28.5945 49.0803C28.9236 48.7956 29.3479 48.6354 29.7787 48.5768L29.7783 48.5751ZM33.5965 48.5806C33.2469 48.6504 32.8921 48.6791 32.543 48.7463C32.4272 49.7451 32.196 50.726 31.9561 51.7004C31.9124 51.9247 31.822 52.1426 31.811 52.3725C32.231 52.3704 32.6509 52.3486 33.0713 52.3605C33.1534 52.352 33.3068 52.3897 33.312 52.2689C33.4816 51.423 33.6555 50.5774 33.8534 49.7374C34.0256 49.6676 34.2165 49.5722 34.4058 49.6381C34.5617 49.704 34.5469 49.895 34.5307 50.0337C34.411 50.8236 34.2017 51.5972 34.023 52.3747C34.3022 52.3747 34.581 52.3558 34.8606 52.3575C35.0507 52.3545 35.2421 52.3678 35.4322 52.3524C35.5279 52.3563 35.5318 52.2458 35.5471 52.1812C35.6708 51.4028 35.8617 50.6373 36.0313 49.8693C36.0889 49.5717 36.1624 49.2528 36.0483 48.9595C35.9883 48.8157 35.8805 48.696 35.7424 48.6196C35.3959 48.4736 35.0031 48.5263 34.6522 48.6269C34.4311 48.6877 34.2349 48.8071 34.0404 48.9227C34.0758 48.7887 34.1134 48.6547 34.1488 48.5207C33.9618 48.4779 33.7791 48.5558 33.596 48.5819L33.5965 48.5806ZM22.1042 48.6641C21.9295 48.695 21.7446 48.692 21.5755 48.7523C21.553 48.838 21.5375 48.9254 21.5292 49.0135C21.3867 50.1527 21.073 51.2611 20.8196 52.379C21.2469 52.3695 21.6747 52.3545 22.1029 52.3644C22.1781 52.3533 22.307 52.3927 22.3306 52.2916C22.5089 51.4401 22.6745 50.5847 22.879 49.7383C23.0411 49.6685 23.2115 49.6099 23.3915 49.6176C23.5305 49.6694 23.5891 49.8136 23.5637 49.9511C23.4584 50.7731 23.2233 51.5719 23.0507 52.3811C23.5209 52.3554 23.9924 52.3678 24.4626 52.3567C24.5478 52.3618 24.5499 52.2625 24.5652 52.206C24.6784 51.5334 24.8248 50.8668 24.9825 50.2032C25.0647 49.7653 25.2526 49.2746 25.0171 48.8534C24.9122 48.6714 24.7046 48.5729 24.5006 48.5434C24.2021 48.5036 23.8984 48.5562 23.614 48.6453C23.4182 48.7099 23.2408 48.8165 23.0651 48.921C23.1044 48.7981 23.1359 48.673 23.1595 48.5464C23.1473 48.5323 23.1228 48.5036 23.1106 48.4903C22.7737 48.5421 22.442 48.6226 22.1056 48.6654L22.1042 48.6641ZM26.6732 48.1855C26.9004 48.1388 27.1468 48.1337 27.3645 48.224C27.4846 48.2758 27.6039 48.3679 27.6266 48.5023C27.6655 48.6684 27.5703 48.832 27.4497 48.9428C27.1779 49.1717 26.8259 49.2878 26.4682 49.2665C26.2808 49.2515 26.075 49.1946 25.9574 49.0417C25.856 48.9133 25.8783 48.7305 25.9692 48.6046C26.1278 48.3734 26.4023 48.248 26.6714 48.1855H26.6732ZM15.1359 49.6985C15.431 48.425 15.7242 47.1511 16.0155 45.877C16.6356 45.9199 17.2591 45.886 17.8805 45.8972C17.5589 46.9974 17.2871 48.1114 16.9961 49.2198C16.893 49.5837 16.8545 49.9609 16.7872 50.333C16.7282 50.6656 16.8475 51.0693 17.1805 51.2196C17.6175 51.4033 18.1615 51.286 18.5014 50.9627C18.8414 50.6395 18.9511 50.1557 19.0612 49.7165C19.3527 48.4372 19.6314 47.1554 19.915 45.8749C20.4394 45.9207 20.9677 45.8899 21.4942 45.8967C21.1556 47.0844 20.8633 48.2831 20.5548 49.478C20.4044 50.0602 20.269 50.6613 19.9461 51.1798C19.6703 51.6128 19.2568 51.945 18.7693 52.1251C18.1082 52.3755 17.3854 52.4308 16.6837 52.3755C16.2371 52.3327 15.7739 52.2402 15.4055 51.9748C15.1394 51.7869 14.9922 51.4735 14.959 51.1592C14.9275 50.9263 14.9799 50.6939 15.0083 50.464C15.0446 50.2071 15.0678 49.9502 15.1359 49.6993V49.6985ZM39.2836 46.8245C39.1486 47.5621 38.9463 48.2874 38.7885 49.022C39.2023 49.022 39.6345 49.0469 40.0252 48.8868C40.5316 48.6693 40.8598 48.1358 40.8633 47.5994C40.8707 47.3147 40.6968 47.0099 40.4066 46.9294C40.0335 46.8836 39.6577 46.8622 39.2836 46.8245ZM37.9002 45.8604C37.6533 47.0441 37.3942 48.224 37.0931 49.3945C36.8461 50.39 36.5999 51.3858 36.3546 52.3819C36.9065 52.3682 37.4602 52.3597 38.012 52.3819C38.1728 51.6473 38.3087 50.9071 38.515 50.1827C38.5382 50.1245 38.5897 50.0838 38.6295 50.0363C38.9926 50.044 39.3562 50.0324 39.7184 50.0093C40.3249 49.9665 40.9458 49.8243 41.4427 49.466C42.1104 48.9964 42.4993 48.2172 42.591 47.4294C42.6308 47.0711 42.591 46.6729 42.3489 46.3861C42.1007 46.0838 41.6992 45.9631 41.3203 45.9152C40.789 45.8544 40.2519 45.8595 39.718 45.8775C39.111 45.8685 38.5049 45.8946 37.9002 45.8612V45.8604Z" fill="white"/>
<path fill-rule="evenodd" clip-rule="evenodd" d="M17.173 39.3463C16.3585 39.75 15.6816 40.4355 15.3377 41.2677C15.2132 41.5619 15.1573 41.8765 15.0803 42.1843C13.4321 49.1262 11.7834 56.0679 10.1343 63.0095C10.0758 63.2488 10.0163 63.4903 10.0032 63.7373C9.96433 64.3119 10.1444 64.9117 10.5512 65.3364C10.9733 65.7885 11.6086 66.0012 12.2239 65.9961C15.551 65.9961 18.878 65.9961 22.2051 65.9961C25.8263 66.0047 29.4474 65.9961 33.0685 66.0004C33.3119 66.0004 33.5588 65.9983 33.797 65.9396C34.2479 66.0218 34.708 65.9974 35.1647 66.0008H44.7343C45.2149 66.0008 45.7061 66.0209 46.1763 65.8908C46.7125 65.7398 47.2089 65.4762 47.6307 65.1184C48.0526 64.7605 48.39 64.3171 48.6193 63.8187C48.7902 63.4552 48.8544 63.057 48.951 62.6709C50.6089 55.6888 52.2667 48.7064 53.9246 41.7237C54.0766 41.0918 53.9993 40.3841 53.6038 39.8489C53.2145 39.3014 52.5302 39.0047 51.859 39.0017H41.4155C41.0056 39.0055 40.5923 38.9781 40.1872 39.0556C39.8752 38.97 39.5496 39.0128 39.2311 39.0025C35.641 39.0055 32.0504 38.9965 28.4607 39.0068C25.1752 38.9978 21.8892 39.0068 18.6036 39.0025C18.1077 38.9953 17.6169 39.1331 17.173 39.3463Z" fill="white"/>
<path fill-rule="evenodd" clip-rule="evenodd" d="M17.1747 39.3467C17.6187 39.1327 18.1094 38.9965 18.6066 39.0042C21.8922 39.0081 25.1782 38.9995 28.4638 39.0085C26.8784 39.1515 25.4823 40.4213 25.2035 41.9548C24.6748 44.1851 24.1452 46.4153 23.6147 48.6455C23.419 48.7102 23.2416 48.8168 23.0659 48.9213C23.1052 48.7984 23.1367 48.6733 23.1603 48.5466C23.1481 48.5325 23.1236 48.5038 23.1113 48.4906C22.7744 48.5424 22.4428 48.6229 22.1063 48.6657C21.9315 48.6965 21.7467 48.6935 21.5776 48.7539C21.5544 48.8391 21.5382 48.926 21.5291 49.0137C21.3866 50.153 21.0729 51.2614 20.8195 52.3792C21.2468 52.3698 21.6746 52.3548 22.1028 52.3646C22.178 52.3535 22.3069 52.3929 22.3305 52.2919C22.5088 51.4403 22.6744 50.5849 22.8789 49.7385C23.041 49.6688 23.2114 49.6101 23.3914 49.6178C22.9173 51.5384 22.4738 53.4662 22.0132 55.3889C21.4283 57.8583 20.842 60.3284 20.2545 62.7993C20.1736 63.1533 20.0644 63.5057 20.0714 63.8696C20.0596 64.4488 20.2846 65.0414 20.7268 65.4352C21.1236 65.8026 21.6707 65.976 22.209 65.9918C18.8819 65.9984 15.5549 65.9984 12.2278 65.9918C11.6125 65.9969 10.9772 65.7842 10.5551 65.3321C10.1483 64.9074 9.96824 64.3076 10.0071 63.733C10.0189 63.486 10.0784 63.2445 10.1382 63.0052C11.7847 56.0665 13.4325 49.1263 15.0816 42.1847C15.1585 41.8769 15.2127 41.5623 15.339 41.2681C15.6833 40.4359 16.3602 39.7504 17.1743 39.3467H17.1747ZM15.1358 49.6987C15.0676 49.9488 15.0445 50.2073 15.0082 50.4634C14.9798 50.6933 14.9274 50.9257 14.9588 51.1586C14.9921 51.4729 15.1393 51.7863 15.4054 51.9742C15.7738 52.2396 16.2357 52.3334 16.6836 52.3749C17.3853 52.4302 18.1081 52.3749 18.7692 52.1245C19.2566 51.9446 19.67 51.6128 19.946 51.18C20.2689 50.6616 20.4043 50.0605 20.5546 49.4782C20.8631 48.2834 21.1555 47.0846 21.4941 45.897C20.9676 45.8901 20.4397 45.921 19.9149 45.8752C19.6313 47.1557 19.3526 48.4375 19.0611 49.7167C18.951 50.156 18.8461 50.6355 18.5018 50.963C18.1574 51.2905 17.62 51.4031 17.1808 51.2198C16.8474 51.0696 16.7281 50.6659 16.7876 50.3332C16.8548 49.9625 16.8933 49.5853 16.9964 49.2201C17.2874 48.1117 17.5592 46.9977 17.8808 45.8974C17.2595 45.8863 16.6359 45.9218 16.0159 45.8773C15.7243 47.152 15.4309 48.4258 15.1358 49.6987Z" fill="#E21836"/>
<path fill-rule="evenodd" clip-rule="evenodd" d="M28.4633 39.007C32.053 38.9967 35.6435 39.007 39.2337 39.0027C39.5522 39.0126 39.8778 38.971 40.1898 39.0558C38.8352 39.367 37.6698 40.4429 37.3639 41.7847C36.8255 44.0637 36.2849 46.3416 35.7419 48.6183C35.3953 48.4724 35.0025 48.525 34.6516 48.6256C34.4305 48.6864 34.2343 48.8059 34.0399 48.9215C34.0753 48.7875 34.1128 48.6535 34.1482 48.5195C33.9612 48.4766 33.7786 48.5546 33.5955 48.5807C33.2459 48.6505 32.8911 48.6791 32.5419 48.7464C32.4262 49.7452 32.195 50.726 31.9551 51.7004C31.9114 51.9247 31.821 52.1427 31.81 52.3726C32.23 52.3704 32.6499 52.3486 33.0702 52.3606C33.1524 52.352 33.3058 52.3897 33.311 52.269C33.4806 51.423 33.6545 50.5774 33.8524 49.7375C34.0246 49.6677 34.2155 49.5722 34.4047 49.6381C34.5607 49.7041 34.5459 49.895 34.5297 50.0337C34.41 50.8236 34.2007 51.5972 34.022 52.3747C34.3012 52.3747 34.58 52.3559 34.8596 52.3576C34.7565 52.7322 34.6774 53.1124 34.5843 53.4895C34.5127 53.8115 34.4178 54.1291 34.3707 54.4562C34.309 54.499 34.2483 54.5457 34.1876 54.5911C34.2339 54.3946 34.2789 54.1964 34.3252 53.9999C33.9145 53.9999 33.5037 53.9999 33.093 53.9999C32.6388 55.8488 32.1873 57.6986 31.7384 59.5492C31.7038 59.7286 31.6387 59.9105 31.6606 60.0946C31.7519 60.2505 31.9158 60.3823 32.105 60.3943C32.3825 60.4221 32.6617 60.4196 32.9405 60.4204C32.7198 61.3409 32.5035 62.2613 32.2824 63.1839C32.1784 63.574 32.1644 63.9819 32.2413 64.378C32.3341 64.8192 32.5757 65.2171 32.9274 65.5074C33.179 65.7146 33.4849 65.8477 33.7982 65.9389C33.5601 65.9976 33.3132 65.998 33.0698 65.9997C29.4487 65.9963 25.8275 66.004 22.2064 65.9954C21.668 65.9774 21.1209 65.8041 20.7242 65.4389C20.2833 65.045 20.0582 64.4542 20.0687 63.8732C20.0617 63.5072 20.171 63.1548 20.2518 62.8029C20.8408 60.3292 21.4281 57.8574 22.0137 55.3874C22.4751 53.4647 22.9177 51.5369 23.3918 49.6163C23.5308 49.6681 23.5894 49.8124 23.564 49.9498C23.4587 50.7718 23.2236 51.5707 23.051 52.3798C23.5212 52.3541 23.9927 52.3666 24.4629 52.3554C24.5481 52.3606 24.5502 52.2612 24.5655 52.2047C24.6787 51.5322 24.8251 50.8656 24.9828 50.202C25.065 49.764 25.2529 49.2734 25.0174 48.8521C24.9125 48.6702 24.7049 48.5717 24.5009 48.5421C24.2024 48.5023 23.8987 48.555 23.6143 48.644C24.1447 46.4138 24.6743 44.1836 25.2031 41.9533C25.4819 40.4185 26.878 39.15 28.4633 39.007ZM26.6717 48.1855C26.4026 48.248 26.1281 48.3735 25.9695 48.6046C25.8786 48.7305 25.8563 48.915 25.9577 49.0418C26.0766 49.1946 26.2811 49.2515 26.4685 49.2665C26.8262 49.2878 27.1782 49.1717 27.45 48.9429C27.5706 48.832 27.6658 48.6684 27.6269 48.5023C27.6025 48.3679 27.4832 48.2759 27.3648 48.224C27.1463 48.1337 26.9007 48.1384 26.6735 48.1855H26.6717ZM29.7764 48.5751C29.3455 48.6338 28.9212 48.7939 28.5922 49.0786C28.1959 49.4117 27.9708 49.8972 27.8437 50.3839C27.7471 50.7594 27.6689 51.1545 27.7563 51.5399C27.8035 51.7874 27.9449 52.0082 28.1517 52.1576C28.4502 52.3674 28.8268 52.4188 29.1843 52.4406C29.869 52.4723 30.6001 52.2724 31.072 51.7625C31.3398 51.4774 31.498 51.1113 31.6134 50.7453C31.7292 50.3492 31.8122 49.9318 31.7519 49.5195C31.7295 49.362 31.6701 49.2118 31.5784 49.0806C31.4866 48.9494 31.365 48.8408 31.2232 48.7635C30.7862 48.5233 30.2618 48.5289 29.7773 48.5734L29.7764 48.5751ZM25.8437 49.5598C25.7537 50.1425 25.6615 50.7256 25.5168 51.2984C25.4438 51.664 25.2726 52.0005 25.1917 52.364C25.3835 52.3914 25.5771 52.3614 25.7703 52.3614C26.0949 52.3614 26.4196 52.3589 26.7447 52.364C26.8273 52.1992 26.8212 52.0108 26.8631 51.8353C27.0104 51.1614 27.169 50.4901 27.335 49.8197C27.3831 49.651 27.4198 49.4793 27.4447 49.3059C26.9125 49.4001 26.3794 49.4883 25.8437 49.5589V49.5598ZM29.4508 54.8009C29.3267 55.0124 29.0445 54.94 28.8391 54.9516C28.7709 55.2296 28.7029 55.5073 28.635 55.7847C28.8889 55.7813 29.1432 55.7937 29.3967 55.7791C29.6182 55.7646 29.8166 55.6614 30.018 55.5792C30.1491 55.5304 30.2409 55.4178 30.3409 55.3249C30.9964 55.3215 31.6497 55.3228 32.3042 55.3249C32.3772 55.0423 32.4428 54.7572 32.5144 54.4734C32.0338 54.4734 31.557 54.4734 31.0781 54.4734C31.1533 54.3167 31.2275 54.1604 31.3018 54.0024C30.8209 54.0024 30.3402 54.0024 29.8598 54.0024C29.7231 54.2683 29.6038 54.5449 29.4504 54.8022L29.4508 54.8009ZM28.6075 56.76C28.8697 56.76 29.1353 56.76 29.3993 56.76C29.3433 56.9924 29.2857 57.224 29.231 57.4565H28.4327C28.3645 57.7446 28.2924 58.0319 28.223 58.3196C28.4851 58.317 28.7508 58.3196 29.0147 58.3196C28.8994 58.8291 28.7639 59.3343 28.6468 59.8437C28.6031 59.9906 28.7019 60.1229 28.7919 60.229C28.9147 60.3806 29.1297 60.4003 29.3123 60.4153C29.8804 60.4183 30.4519 60.4153 31.0222 60.4153C31.0947 60.1027 31.1747 59.7919 31.2507 59.4803C30.9077 59.5077 30.5629 59.6177 30.219 59.5479C30.1526 59.5269 30.0215 59.5098 30.0613 59.4109C30.1434 59.0423 30.2361 58.6758 30.33 58.3089H31.7567C31.8227 58.0238 31.8948 57.7404 31.9643 57.4561C31.4884 57.4561 31.0126 57.4561 30.5367 57.4561C30.5944 57.2232 30.649 56.9899 30.7076 56.757C31.176 56.757 31.6444 56.757 32.1133 56.757C32.1784 56.4821 32.2444 56.2081 32.3134 55.9337C31.1454 55.9337 29.9774 55.9358 28.8098 55.9337C28.7386 56.2073 28.673 56.483 28.6079 56.7583L28.6075 56.76ZM29.9014 49.4254C29.6785 49.4823 29.5518 49.6934 29.4701 49.8869C29.3463 50.2119 29.256 50.5482 29.2005 50.8908C29.1812 51.0783 29.1402 51.2941 29.259 51.4589C29.3613 51.6015 29.5776 51.6011 29.7126 51.506C29.9516 51.3463 30.049 51.0638 30.1312 50.8056C30.2246 50.5143 30.2864 50.2141 30.3156 49.91C30.3217 49.7653 30.3191 49.6035 30.2203 49.4857C30.1369 49.4061 30.0084 49.4001 29.9014 49.4254ZM34.1666 54.9173C34.063 55.2269 34.0093 55.5497 33.9223 55.8639C33.966 55.8258 34.0158 55.7907 34.0622 55.7534C34.0932 55.4966 34.1906 55.2478 34.2195 54.9897C34.2064 54.9717 34.1797 54.9357 34.1666 54.9173ZM33.8314 56.2364C33.8004 56.3687 33.7663 56.5009 33.744 56.635C33.8987 56.5583 33.8979 56.3781 33.9381 56.2329L33.8301 56.2364H33.8314ZM33.5745 57.4047C33.415 57.9707 33.2944 58.5465 33.1463 59.1172C33.1201 59.2456 33.0536 59.3891 33.1463 59.5081C33.3158 58.9117 33.4377 58.3033 33.592 57.7031C33.6051 57.6034 33.6654 57.4822 33.5745 57.4047Z" fill="#00447C"/>
<path fill-rule="evenodd" clip-rule="evenodd" d="M40.1902 39.0556C40.5953 38.9781 41.0087 39.0055 41.4185 39.0017H51.8621C52.5332 39.0047 53.2167 39.3014 53.6069 39.8489C54.0001 40.3841 54.0797 41.0905 53.9276 41.7237C52.2709 48.7061 50.6132 55.6883 48.9545 62.6705C48.8579 63.0558 48.7937 63.4548 48.6228 63.8182C48.393 64.3164 48.0554 64.7595 47.6333 65.117C47.2112 65.4744 46.7147 65.7376 46.1784 65.8882C45.7104 66.0167 45.2197 65.9982 44.7364 65.9982H35.1668C34.7102 65.9948 34.2492 66.0192 33.7991 65.937C33.4858 65.8458 33.1799 65.7127 32.9283 65.5055C32.5766 65.2152 32.335 64.8173 32.2422 64.3761C32.1653 63.98 32.1793 63.5722 32.2833 63.1821C32.5018 62.2607 32.7203 61.339 32.9414 60.4185H33.9084C33.9883 60.0979 34.0609 59.7763 34.1395 59.4548C33.8087 59.4689 33.474 59.567 33.145 59.5041C33.3145 58.9077 33.4364 58.2993 33.5907 57.6991C33.6056 57.6023 33.6659 57.4812 33.575 57.4024C34.3235 57.4182 35.0729 57.4071 35.8214 57.4084C36.1784 57.4152 36.5691 57.3086 36.7932 57.0197C36.9641 56.7889 37.0467 56.5098 37.1192 56.2375C37.3005 55.4913 37.4788 54.7446 37.6619 53.9993C37.107 53.9993 36.552 54.0202 35.9971 54.0095C35.6549 53.9941 35.318 54.0665 34.9881 54.1457C34.76 54.1992 34.5577 54.3208 34.3716 54.4565C34.4187 54.1294 34.5136 53.8117 34.5852 53.4898C34.6783 53.1126 34.7574 52.7324 34.8605 52.3578C35.0506 52.3548 35.242 52.3681 35.4321 52.3527C35.5278 52.3565 35.5317 52.2461 35.547 52.1814C35.6707 51.4031 35.8616 50.6376 36.0312 49.8696C36.0888 49.572 36.1622 49.2531 36.0482 48.9598C35.9882 48.816 35.8804 48.6962 35.7423 48.6199C36.2839 46.3423 36.8245 44.0644 37.3643 41.7862C37.6702 40.4445 38.8365 39.3686 40.1902 39.0573V39.0556ZM37.9001 45.8628C37.6532 47.044 37.3941 48.2239 37.093 49.3944C36.846 50.3899 36.5998 51.3857 36.3545 52.3818C36.9064 52.3681 37.46 52.3595 38.0119 52.3818C38.1727 51.6471 38.3086 50.9069 38.5149 50.1825C38.538 50.1243 38.5896 50.0836 38.6294 50.0361C38.9925 50.0438 39.356 50.0323 39.7183 50.0091C40.3248 49.9663 40.9457 49.8242 41.4426 49.4659C42.1102 48.9962 42.4992 48.217 42.5909 47.4293C42.6307 47.0709 42.5909 46.6728 42.3488 46.3859C42.1006 46.0837 41.6991 45.963 41.3202 45.915C40.7889 45.8542 40.2518 45.8594 39.7179 45.8773C39.1122 45.8683 38.5061 45.8945 37.9014 45.8611L37.9001 45.8628ZM46.746 48.7629C46.6512 48.7556 46.6385 48.8588 46.6586 48.9269C46.7334 49.3027 46.7705 49.6842 46.8194 50.0639C46.9213 50.8025 47.0152 51.5423 47.0899 52.2842C47.0947 52.3518 47.1035 52.4259 47.0598 52.4846C46.7281 53.0214 46.4454 53.5865 46.0875 54.1084C45.9647 54.2741 45.8861 54.4762 45.7283 54.614C45.5846 54.6568 45.4316 54.641 45.2835 54.6444C45.2188 54.9291 45.1555 55.2134 45.0895 55.4977C45.3954 55.5041 45.6991 55.487 46.0041 55.484C46.441 55.4934 46.8317 55.2143 47.0091 54.8337C48.2099 52.7713 49.4092 50.7077 50.6071 48.643C50.656 48.604 50.6154 48.5146 50.5555 48.5317C50.1443 48.6088 49.734 48.6948 49.3176 48.7428C49.2337 48.7612 49.1109 48.7428 49.0816 48.8451C48.9505 49.1319 48.8194 49.4213 48.6648 49.6962C48.5485 49.8987 48.434 50.1008 48.3388 50.3127C48.3078 50.3641 48.2951 50.4445 48.2252 50.4561L48.2531 50.3932C48.2427 49.9025 48.202 49.4132 48.1824 48.923C48.1688 48.7877 48.1924 48.6409 48.1159 48.5197C47.661 48.6147 47.2049 48.7055 46.7434 48.7629H46.746ZM42.4729 49.1075C42.0639 49.423 41.8175 49.897 41.6829 50.3816C41.5671 50.7999 41.4766 51.2464 41.5894 51.6754C41.6239 51.8069 41.6862 51.9299 41.7722 52.0364C41.8582 52.1429 41.9661 52.2305 42.0888 52.2936C42.3921 52.451 42.7365 52.5159 43.0777 52.4798C43.3167 52.4477 43.5238 52.315 43.7109 52.1729C43.6951 52.2611 43.6602 52.3505 43.6807 52.4413C44.1644 52.4088 44.6495 52.4156 45.1341 52.4139C45.1495 52.4174 45.1655 52.4173 45.1808 52.4136C45.1962 52.4098 45.2104 52.4026 45.2223 52.3925C45.2343 52.3823 45.2436 52.3695 45.2495 52.3552C45.2554 52.3408 45.2578 52.3253 45.2564 52.3099C45.45 51.1283 45.7371 49.9633 46.0277 48.8014C46.0434 48.7312 46.0499 48.6593 46.0587 48.5873C45.5588 48.6751 45.058 48.7586 44.5546 48.8245C44.4441 48.8173 44.4384 48.9311 44.4205 49.0082C44.2628 48.7706 43.9923 48.5801 43.6921 48.5963C43.2416 48.6212 42.8203 48.8301 42.4747 49.1049L42.4729 49.1075ZM39.0589 53.9997C38.6455 55.7674 38.2182 57.5325 37.7978 59.2986H37.5356C37.4692 59.5807 37.3967 59.8615 37.3311 60.1437C38.1923 60.1437 39.0535 60.1437 39.9149 60.1437C39.8935 60.2357 39.8712 60.3286 39.8516 60.4211C40.2772 60.4211 40.7028 60.4211 41.1288 60.4211C41.1533 60.3282 41.1769 60.2353 41.2014 60.1424H41.5509C41.5313 60.234 41.5116 60.3261 41.4937 60.4185C41.8468 60.4185 42.1994 60.4228 42.5525 60.4185C42.7171 60.4128 42.8783 60.3701 43.0234 60.2937C43.1686 60.2174 43.2939 60.1093 43.3897 59.978C43.6191 59.6603 43.8201 59.3242 44.0513 59.0083C44.1338 59.3242 44.1872 59.6462 44.2728 59.96C44.3427 60.1912 44.5953 60.2875 44.8042 60.3663C45.0952 60.4091 45.3923 60.3988 45.6868 60.3988C45.7597 60.0892 45.8334 59.7798 45.9079 59.4707C45.7506 59.4707 45.5898 59.4797 45.4369 59.4403C45.3643 59.4244 45.3678 59.3388 45.3495 59.2844C45.2774 58.9543 45.1966 58.6264 45.1245 58.2967C44.9226 58.2916 44.7203 58.2967 44.5184 58.292C44.5983 58.1867 44.6805 58.0827 44.7635 57.9804H46.2671C46.3254 57.7303 46.3854 57.4809 46.4472 57.232C45.9818 57.232 45.5168 57.232 45.0524 57.232C45.1074 57.0064 45.1616 56.7808 45.2184 56.5556C45.6825 56.5556 46.1461 56.5556 46.6101 56.5556C46.6805 56.2747 46.7456 55.9934 46.8146 55.7126C45.428 55.7126 44.0416 55.7126 42.6556 55.7126C42.5914 55.993 42.5188 56.2722 42.4581 56.5534C42.954 56.5564 43.45 56.5534 43.9464 56.556C43.8852 56.7799 43.8371 57.0072 43.776 57.2311C43.273 57.2311 42.7709 57.2286 42.2676 57.2311C42.2129 57.4795 42.1487 57.7269 42.0928 57.9761C42.5324 57.9782 42.9715 57.9761 43.4111 57.9782C43.1017 58.4492 42.7993 58.9227 42.4869 59.391C42.2999 59.6338 41.9626 59.6051 41.6899 59.597C41.717 59.4754 41.7463 59.3551 41.7738 59.2343C41.6554 59.2343 41.5369 59.2343 41.4185 59.2343C41.7614 57.789 42.106 56.3439 42.4524 54.8992C42.6004 54.8975 42.7487 54.8975 42.8972 54.8992C42.9746 54.6042 43.0436 54.3071 43.1188 54.0121C42.4463 54.0177 41.7733 54.0361 41.1035 54.0926C40.7924 54.1114 40.5188 54.2724 40.268 54.4398C40.303 54.2942 40.3357 54.1478 40.3689 54.0014L39.0589 53.9997ZM43.1773 54.0129C43.1913 54.3126 43.1952 54.6153 43.2044 54.9167C43.2088 55.0246 43.2097 55.1432 43.2818 55.2331C43.4085 55.4159 43.6475 55.4806 43.8625 55.484C44.1876 55.4861 44.5123 55.4814 44.8374 55.484C44.913 55.2048 44.9842 54.9231 45.048 54.6402C44.9042 54.6286 44.7224 54.6765 44.6071 54.5764C44.5577 54.3936 44.5944 54.197 44.5695 54.0104C44.1054 54.0104 43.6414 54.0078 43.1773 54.0104V54.0129ZM35.7882 58.0544C35.634 58.1139 35.4614 58.0793 35.3001 58.087C35.3001 57.9298 35.3001 57.7727 35.2866 57.616C34.8904 57.616 34.4941 57.616 34.0976 57.616C34.1247 58.4145 34.1601 59.2134 34.199 60.0135C34.1973 60.0908 34.2229 60.1663 34.2715 60.2272C34.32 60.2881 34.3886 60.3307 34.4655 60.3479C34.6945 60.4035 34.9326 60.4018 35.1677 60.4082C35.4954 60.4082 35.8232 60.4138 36.1509 60.404C36.2156 60.1094 36.2929 59.8174 36.3576 59.5229C36.0928 59.5362 35.8288 59.5601 35.5645 59.5657C35.4596 59.5768 35.3359 59.5032 35.3351 59.3919C35.3163 59.1778 35.315 58.9638 35.3001 58.7497C35.5903 58.7287 35.8822 58.7364 36.174 58.7069C36.4362 58.6735 36.6984 58.504 36.7736 58.2458C36.8422 58.0245 36.854 57.7916 36.8911 57.5642C36.5765 57.5642 36.2619 57.5642 35.9473 57.5642C35.8948 57.7256 35.8953 57.9144 35.79 58.054L35.7882 58.0544ZM39.2839 46.8252C39.1489 47.5629 38.9466 48.2881 38.7889 49.0227C39.2027 49.0227 39.6348 49.0476 40.0255 48.8875C40.5319 48.67 40.8601 48.1365 40.8636 47.6001C40.871 47.3154 40.6971 47.0106 40.407 46.9301C40.0338 46.8843 39.658 46.8629 39.2839 46.8252ZM43.7095 49.5082C43.4063 49.6046 43.2905 49.9312 43.2018 50.2009C43.1017 50.5533 42.9907 50.9125 42.9995 51.2815C42.9995 51.4365 43.0869 51.609 43.2569 51.6322C43.357 51.6371 43.4571 51.6218 43.551 51.5873C43.6449 51.5527 43.7305 51.4997 43.8026 51.4314C43.9979 51.2173 44.0325 50.9228 44.1085 50.6582C44.1876 50.3427 44.2973 49.9907 44.1417 49.6808C44.0731 49.5207 43.8708 49.4543 43.7091 49.5095L43.7095 49.5082ZM40.1623 54.8966C40.0801 55.2618 39.9875 55.6244 39.904 55.9909C40.2475 55.8308 40.6119 55.7087 40.9964 55.6968C41.062 55.4305 41.1231 55.1633 41.1865 54.8966H40.1623ZM34.1671 54.9171C34.1802 54.9356 34.2068 54.9715 34.2199 54.9895C34.1911 55.2464 34.0936 55.4947 34.0626 55.7533C34.2335 55.6418 34.4186 55.5529 34.6132 55.4887C35.0751 55.3273 35.5719 55.4099 36.0513 55.3898C36.0884 55.2361 36.1264 55.0824 36.164 54.9291C35.4985 54.9189 34.8317 54.942 34.1671 54.9171ZM33.939 56.2328C33.8988 56.3762 33.8996 56.5581 33.7449 56.6348C34.4039 56.6057 35.0646 56.6348 35.7244 56.6215C35.7589 56.4931 35.7939 56.3646 35.8297 56.2362C35.1996 56.2362 34.5691 56.2362 33.939 56.2362V56.2328ZM39.7659 56.5646C39.6724 56.9409 39.5806 57.3181 39.4967 57.6961C39.8336 57.5067 40.209 57.3925 40.5962 57.3617C40.6611 57.0971 40.7256 56.8324 40.7897 56.5676C40.4485 56.565 40.1076 56.5676 39.7668 56.5676L39.7659 56.5646ZM39.3539 58.2771C39.2818 58.599 39.1992 58.9192 39.1258 59.2408C39.4662 59.2408 39.807 59.2408 40.1478 59.2408C40.2265 58.9197 40.3069 58.5986 40.3751 58.2753C40.0351 58.2792 39.6947 58.2779 39.3547 58.2792L39.3539 58.2771Z" fill="#007B84"/>
</g>
<path fill-rule="evenodd" clip-rule="evenodd" d="M33.6959 10.9942C33.6588 13.9409 36.308 15.5853 38.3035 16.563C40.3539 17.5662 41.0425 18.2095 41.0347 19.1064C41.0191 20.4795 39.399 21.0852 37.8829 21.1088C35.2376 21.1501 33.6998 20.3909 32.4771 19.8165L31.5244 24.2994C32.751 24.868 35.0225 25.3637 37.3781 25.3853C42.9071 25.3853 46.5244 22.6412 46.5441 18.3865C46.5656 12.9869 39.1154 12.6879 39.1663 10.2743C39.1839 9.54259 39.8784 8.76158 41.4005 8.56293C42.1537 8.46271 44.2334 8.3859 46.591 9.47757L47.5164 5.14036C46.2486 4.67607 44.6188 4.23145 42.5901 4.23145C37.3859 4.23145 33.7254 7.01287 33.6959 10.9942ZM56.4086 4.60516C55.399 4.60516 54.5479 5.19735 54.1684 6.10609L46.2701 25.0666H51.7952L52.8947 22.0117H59.6464L60.2843 25.0666H65.1538L60.9044 4.60516H56.4086ZM57.1813 10.1326L58.7758 17.816H54.409L57.1813 10.1326ZM26.9971 4.60516L22.6421 25.0666H27.9069L32.2599 4.60516H26.9971ZM19.2085 4.60516L13.7284 18.532L11.5117 6.69025C11.2516 5.36848 10.2244 4.60516 9.08375 4.60516H0.125258L0 5.19931C1.83913 5.60054 3.92861 6.24775 5.19439 6.94016C5.96907 7.36301 6.19027 7.7328 6.44453 8.738L10.643 25.0666H16.2073L24.7375 4.60516H19.2085Z" fill="#1333C6"/>
<path fill-rule="evenodd" clip-rule="evenodd" d="M131.231 24.5385V23.6924H131.028L130.793 24.2729L130.56 23.6924H130.356V24.5385H130.5V23.9011L130.72 24.451H130.869L131.088 23.8997V24.5385H131.231H131.231ZM129.943 24.5385V23.8373H130.203V23.6944H129.539V23.8373H129.799V24.5385H129.943Z" fill="#101828"/>
<path fill-rule="evenodd" clip-rule="evenodd" d="M113.633 26.4494H100.592V3.16602H113.633L113.633 26.4494Z" fill="#FD5E03"/>
<path fill-rule="evenodd" clip-rule="evenodd" d="M101.422 14.8078C101.422 10.0847 103.648 5.87743 107.114 3.16601C104.491 1.11105 101.244 -0.00495314 97.9036 1.65262e-05C89.6724 1.65262e-05 83 6.62956 83 14.8078C83 22.9858 89.6724 29.6154 97.9036 29.6154C101.244 29.6203 104.491 28.5043 107.114 26.4494C103.648 23.7384 101.422 19.531 101.422 14.8078Z" fill="#EC041C"/>
<path fill-rule="evenodd" clip-rule="evenodd" d="M131.231 14.8078C131.231 22.9858 124.558 29.6154 116.327 29.6154C112.986 29.6202 109.739 28.5043 107.115 26.4494C110.583 23.738 112.809 19.531 112.809 14.8078C112.809 10.0844 110.583 5.87743 107.115 3.16601C109.739 1.11105 112.986 -0.00479885 116.327 1.55137e-05C124.558 1.55137e-05 131.231 6.62956 131.231 14.8078" fill="#F79E1C"/>
<defs>
<clipPath id="clip0_8995_93775">
<rect width="44" height="27" fill="white" transform="translate(10 39)"/>
</clipPath>
</defs>
</svg>
