<svg width="88" height="77" viewBox="0 0 88 77" fill="none" xmlns="http://www.w3.org/2000/svg">
<path d="M66.9999 47H46.9999C43.1339 47 39.9999 50.134 39.9999 54V54C39.9999 57.866 43.1339 61 46.9999 61H78.9999C82.8659 61 85.9999 64.134 85.9999 68V68C85.9999 71.866 82.8659 75 78.9999 75H16" stroke="#A1C39B" stroke-width="4" stroke-linecap="round" stroke-linejoin="round"/>
<mask id="path-2-inside-1_8995_93767" fill="white">
<path d="M32 44.8889C32 53.7389 23.2889 64.8336 18.7219 70.0421C17.258 71.7117 14.742 71.7117 13.2781 70.0421C8.71109 64.8336 0 53.7389 0 44.8889C0 35.5614 7.16344 28 16 28C24.8366 28 32 35.5614 32 44.8889Z"/>
</mask>
<path d="M32 44.8889C32 53.7389 23.2889 64.8336 18.7219 70.0421C17.258 71.7117 14.742 71.7117 13.2781 70.0421C8.71109 64.8336 0 53.7389 0 44.8889C0 35.5614 7.16344 28 16 28C24.8366 28 32 35.5614 32 44.8889Z" fill="white"/>
<path d="M18.7219 70.0421L15.7144 67.405L18.7219 70.0421ZM13.2781 70.0421L16.2857 67.405L13.2781 70.0421ZM28 44.8889C28 48.1783 26.3091 52.3791 23.6537 56.7565C21.0739 61.009 17.9208 64.8887 15.7144 67.405L21.7295 72.6793C24.0901 69.9871 27.5759 65.7152 30.4935 60.9057C33.3354 56.2211 36 50.4495 36 44.8889H28ZM16.2857 67.405C14.0792 64.8887 10.9261 61.009 8.34634 56.7565C5.69093 52.3791 4 48.1783 4 44.8889H-4C-4 50.4495 -1.33538 56.2211 1.5065 60.9057C4.42406 65.7152 7.90992 69.9871 10.2705 72.6793L16.2857 67.405ZM4 44.8889C4 37.564 9.57361 32 16 32V24C4.75328 24 -4 33.5588 -4 44.8889H4ZM16 32C22.4264 32 28 37.564 28 44.8889H36C36 33.5588 27.2467 24 16 24V32ZM15.7144 67.405C15.7268 67.3908 15.7618 67.3589 15.8206 67.3325C15.8761 67.3075 15.9377 67.2943 16 67.2943C16.0623 67.2943 16.1239 67.3075 16.1794 67.3325C16.2382 67.3589 16.2732 67.3908 16.2857 67.405L10.2705 72.6793C13.3278 76.166 18.6722 76.166 21.7295 72.6793L15.7144 67.405Z" fill="#212F4E" mask="url(#path-2-inside-1_8995_93767)"/>
<circle cx="16" cy="44" r="4" fill="white" stroke="#F8B814" stroke-width="4"/>
<mask id="path-5-inside-2_8995_93767" fill="white">
<path d="M83 16.8889C83 25.7389 74.2889 36.8336 69.7219 42.0421C68.258 43.7117 65.742 43.7117 64.2781 42.0421C59.7111 36.8336 51 25.7389 51 16.8889C51 7.56141 58.1634 0 67 0C75.8366 0 83 7.56141 83 16.8889Z"/>
</mask>
<path d="M83 16.8889C83 25.7389 74.2889 36.8336 69.7219 42.0421C68.258 43.7117 65.742 43.7117 64.2781 42.0421C59.7111 36.8336 51 25.7389 51 16.8889C51 7.56141 58.1634 0 67 0C75.8366 0 83 7.56141 83 16.8889Z" fill="white"/>
<path d="M69.7219 42.0421L66.7144 39.405L69.7219 42.0421ZM64.2781 42.0421L67.2857 39.405L64.2781 42.0421ZM79 16.8889C79 20.1783 77.3091 24.3791 74.6537 28.7565C72.0739 33.009 68.9208 36.8887 66.7144 39.405L72.7295 44.6793C75.0901 41.9871 78.5759 37.7152 81.4935 32.9057C84.3354 28.2211 87 22.4495 87 16.8889H79ZM67.2857 39.405C65.0792 36.8887 61.9261 33.009 59.3463 28.7565C56.6909 24.3791 55 20.1783 55 16.8889H47C47 22.4495 49.6646 28.2211 52.5065 32.9057C55.4241 37.7152 58.9099 41.9871 61.2705 44.6793L67.2857 39.405ZM55 16.8889C55 9.56402 60.5736 4 67 4V-4C55.7533 -4 47 5.5588 47 16.8889H55ZM67 4C73.4264 4 79 9.56402 79 16.8889H87C87 5.5588 78.2467 -4 67 -4V4ZM66.7144 39.405C66.7268 39.3908 66.7618 39.3589 66.8206 39.3325C66.8761 39.3075 66.9377 39.2943 67 39.2943C67.0623 39.2943 67.1239 39.3075 67.1794 39.3325C67.2382 39.3589 67.2732 39.3908 67.2857 39.405L61.2705 44.6793C64.3278 48.166 69.6722 48.166 72.7295 44.6793L66.7144 39.405Z" fill="#F8B814" mask="url(#path-5-inside-2_8995_93767)"/>
<circle cx="67" cy="16" r="4" fill="white" stroke="#212F4E" stroke-width="4"/>
</svg>
