<svg width="329" height="328" viewBox="0 0 329 328" fill="none" xmlns="http://www.w3.org/2000/svg">
<path d="M111.439 24.1997L106.789 10.4655L112.519 8.52917C113.548 8.18365 114.455 8.03249 115.254 8.09008C116.053 8.14766 116.708 8.37801 117.234 8.78111C117.759 9.18421 118.141 9.73127 118.378 10.4223C118.558 10.9478 118.601 11.4516 118.522 11.9339C118.443 12.4162 118.256 12.8553 117.961 13.2584C117.666 13.6543 117.284 13.9926 116.816 14.2734L116.859 14.4101C117.421 14.2518 117.989 14.223 118.551 14.3381C119.112 14.4533 119.623 14.7052 120.07 15.0868C120.523 15.4755 120.854 16.0009 121.085 16.6632C121.337 17.3974 121.373 18.1244 121.193 18.8298C121.013 19.5353 120.624 20.1759 120.027 20.7518C119.429 21.3276 118.623 21.7811 117.608 22.1266L111.439 24.1997ZM112.022 14.986L113.858 14.3669C114.218 14.2446 114.52 14.0718 114.765 13.8559C115.002 13.6399 115.168 13.388 115.247 13.1072C115.326 12.8265 115.312 12.5242 115.204 12.2003C115.045 11.7396 114.765 11.4301 114.347 11.2789C113.93 11.1277 113.447 11.1421 112.893 11.3293L111 11.9699L112.022 14.986ZM113.851 20.399L115.902 19.7008C116.622 19.4561 117.104 19.1394 117.356 18.7506C117.608 18.3619 117.651 17.9229 117.486 17.4334C117.363 17.0807 117.183 16.7999 116.924 16.6056C116.672 16.404 116.37 16.2817 116.017 16.2457C115.664 16.2097 115.276 16.2601 114.851 16.404L112.742 17.1167L113.851 20.399Z" fill="white" fill-opacity="0.4"/>
<path d="M123.735 20.1403L120.258 6.06057L130.076 3.63477L130.76 6.39888L124.346 7.98249L125.059 10.869L130.969 9.40774L131.653 12.1791L125.743 13.6403L126.455 16.534L132.869 14.9504L133.553 17.7145L123.735 20.1403Z" fill="white" fill-opacity="0.4"/>
<path d="M135.448 17.3334L133.123 3.01608L143.107 1.39648L143.56 4.20379L137.039 5.26193L137.514 8.19881L143.524 7.22705L143.978 10.0416L137.967 11.0133L138.443 13.9574L144.964 12.8992L145.418 15.7066L135.448 17.3334Z" fill="white" fill-opacity="0.4"/>
<path d="M147.323 15.4683L146.207 1.00702L152.182 0.546338C153.261 0.45996 154.211 0.58233 155.032 0.913448C155.853 1.23737 156.5 1.74844 156.983 2.43947C157.465 3.1305 157.746 3.96549 157.825 4.95885C157.904 5.9594 157.753 6.83039 157.364 7.56461C156.976 8.29883 156.4 8.87468 155.622 9.30658C154.845 9.73847 153.909 9.99041 152.808 10.0768L149.029 10.3719L148.813 7.62219L151.937 7.37745C152.462 7.33426 152.901 7.23349 153.247 7.06793C153.592 6.90237 153.844 6.67203 154.003 6.3697C154.161 6.06738 154.226 5.70027 154.19 5.25398C154.154 4.80769 154.032 4.44058 153.83 4.15985C153.628 3.87912 153.333 3.67757 152.966 3.56239C152.599 3.44002 152.153 3.40403 151.627 3.44002L149.907 3.57679L150.807 15.2163L147.323 15.4683ZM154.953 8.22684L159.063 14.5541L155.248 14.8492L151.21 8.51477L154.953 8.22684Z" fill="white" fill-opacity="0.4"/>
<path d="M164.383 14.49L164.901 0L170.89 0.215947C171.977 0.251938 172.906 0.482281 173.683 0.899778C174.46 1.31728 175.051 1.89313 175.454 2.63455C175.857 3.37597 176.044 4.23975 176.008 5.23311C175.972 6.24086 175.72 7.08305 175.259 7.76688C174.799 8.45072 174.151 8.96179 173.337 9.30011C172.517 9.63842 171.552 9.78239 170.451 9.7464L166.665 9.60963L166.765 6.85271L169.904 6.96788C170.429 6.98948 170.876 6.93189 171.236 6.80952C171.595 6.67995 171.876 6.4784 172.071 6.20487C172.265 5.92414 172.373 5.56423 172.387 5.11794C172.402 4.67165 172.322 4.29734 172.15 3.99502C171.977 3.69269 171.711 3.46235 171.358 3.30399C171.005 3.14562 170.566 3.05205 170.041 3.03045L168.313 2.96567L167.896 14.634L164.383 14.49ZM172.776 8.16279L176.152 14.9147L172.33 14.778L169.026 8.02602L172.776 8.16279Z" fill="white" fill-opacity="0.4"/>
<path d="M177.299 15.0517L179.019 0.655273L189.061 1.85018L188.722 4.67908L182.165 3.89447L181.812 6.84575L187.859 7.56557L187.52 10.4017L181.474 9.68185L181.121 12.6403L187.679 13.4249L187.34 16.2538L177.299 15.0517Z" fill="white" fill-opacity="0.4"/>
<path d="M198.934 8.1629C198.991 7.64463 198.869 7.20554 198.567 6.84563C198.264 6.48572 197.775 6.24098 197.105 6.10421C196.659 6.01064 196.278 5.99624 195.961 6.04663C195.644 6.09701 195.385 6.21219 195.198 6.38494C195.011 6.5577 194.888 6.77365 194.831 7.02559C194.78 7.23433 194.78 7.43588 194.845 7.61584C194.903 7.79579 195.018 7.96855 195.176 8.12691C195.335 8.28527 195.536 8.43644 195.774 8.5876C196.011 8.73156 196.285 8.87553 196.601 9.0123L197.768 9.53777C198.437 9.83289 199.02 10.164 199.502 10.5311C199.985 10.8982 200.381 11.2941 200.676 11.7188C200.971 12.1435 201.165 12.6042 201.266 13.1009C201.36 13.5976 201.352 14.1302 201.237 14.6989C201.05 15.5915 200.661 16.3185 200.085 16.8656C199.51 17.4126 198.761 17.7797 197.854 17.9453C196.947 18.118 195.896 18.0821 194.716 17.8373C193.528 17.5926 192.527 17.2039 191.721 16.664C190.908 16.1241 190.332 15.4475 189.994 14.6197C189.655 13.7919 189.59 12.8202 189.799 11.7116L193.089 12.3883C193.024 12.8489 193.067 13.2592 193.218 13.6048C193.369 13.9575 193.629 14.2454 193.974 14.4829C194.327 14.7205 194.752 14.886 195.255 14.994C195.716 15.0876 196.126 15.1092 196.479 15.0516C196.832 14.994 197.12 14.8716 197.336 14.6845C197.559 14.4973 197.696 14.2598 197.76 13.9791C197.811 13.7127 197.775 13.4608 197.652 13.2377C197.53 13.0145 197.314 12.7986 197.012 12.5826C196.702 12.3739 196.306 12.1579 195.81 11.9276L194.399 11.2725C193.226 10.7399 192.355 10.0848 191.771 9.30742C191.188 8.53001 191.016 7.60144 191.246 6.52891C191.419 5.65072 191.815 4.9309 192.427 4.36224C193.038 3.79358 193.801 3.41927 194.723 3.22492C195.644 3.03057 196.637 3.03777 197.717 3.26091C198.819 3.48406 199.733 3.86556 200.474 4.40543C201.208 4.9453 201.734 5.59314 202.043 6.35615C202.353 7.11916 202.425 7.93976 202.252 8.82514L198.934 8.1629Z" fill="white" fill-opacity="0.4"/>
<path d="M217.011 16.2327C216.543 17.7588 215.852 18.9609 214.938 19.839C214.024 20.7172 212.987 21.2787 211.814 21.5234C210.64 21.7682 209.438 21.6962 208.2 21.3147C206.955 20.9332 205.918 20.3069 205.091 19.4503C204.263 18.5866 203.723 17.5428 203.464 16.3047C203.205 15.0666 203.305 13.6846 203.773 12.1657C204.241 10.6397 204.932 9.43761 205.839 8.55942C206.746 7.68124 207.79 7.11258 208.956 6.86784C210.122 6.6231 211.331 6.69508 212.577 7.07659C213.815 7.4581 214.851 8.07714 215.686 8.93373C216.514 9.79032 217.061 10.8413 217.32 12.0794C217.58 13.3246 217.479 14.7067 217.011 16.2327ZM213.585 15.1818C213.865 14.282 213.966 13.4758 213.908 12.7776C213.844 12.0794 213.621 11.4963 213.246 11.0284C212.865 10.5605 212.346 10.2294 211.677 10.0207C211.015 9.81911 210.396 9.80472 209.82 9.97747C209.244 10.1502 208.733 10.5101 208.287 11.0572C207.84 11.6043 207.48 12.3241 207.2 13.2311C206.919 14.1308 206.818 14.9371 206.876 15.6353C206.941 16.3335 207.164 16.9238 207.538 17.3844C207.92 17.8523 208.438 18.1834 209.1 18.3922C209.769 18.5937 210.389 18.6153 210.964 18.4354C211.54 18.2626 212.051 17.9027 212.498 17.3557C212.944 16.8014 213.304 16.0816 213.585 15.1818Z" fill="white" fill-opacity="0.4"/>
<path d="M230.177 13.8061L233.402 15.1594L229.781 23.7829C229.364 24.7762 228.759 25.5464 227.975 26.0863C227.19 26.6262 226.29 26.9141 225.268 26.9645C224.253 27.0077 223.181 26.7989 222.058 26.3238C220.92 25.8488 220.013 25.2297 219.337 24.4667C218.66 23.7109 218.235 22.8615 218.077 21.9257C217.919 20.99 218.048 20.0254 218.466 19.0248L222.086 10.4014L225.318 11.7618L221.813 20.1046C221.619 20.5653 221.547 21.0187 221.597 21.465C221.647 21.9113 221.813 22.3144 222.094 22.6743C222.374 23.0342 222.756 23.315 223.238 23.5165C223.72 23.7181 224.188 23.7973 224.635 23.7397C225.081 23.6893 225.484 23.5237 225.844 23.2502C226.197 22.9767 226.477 22.6096 226.672 22.1489L230.177 13.8061Z" fill="white" fill-opacity="0.4"/>
<path d="M229.484 29.3681L236.294 16.5625L241.585 19.377C242.542 19.8881 243.283 20.4999 243.794 21.2126C244.306 21.9252 244.586 22.7026 244.622 23.5448C244.658 24.387 244.449 25.2436 243.982 26.1217C243.507 27.0071 242.916 27.6622 242.196 28.0725C241.477 28.4828 240.678 28.6627 239.792 28.6051C238.907 28.5475 237.978 28.2596 236.999 27.7413L233.652 25.9634L234.948 23.5232L237.719 24.9988C238.187 25.2436 238.612 25.3947 238.986 25.4379C239.368 25.4811 239.706 25.4235 240.001 25.258C240.296 25.0924 240.548 24.8117 240.764 24.4158C240.973 24.0199 241.066 23.6456 241.045 23.3C241.023 22.9545 240.886 22.6306 240.642 22.3283C240.397 22.026 240.037 21.7524 239.576 21.5077L238.05 20.6943L232.565 31.0021L229.484 29.3681ZM239.799 27.3526L239.879 34.8964L236.503 33.104L236.488 25.5891L239.799 27.3526Z" fill="white" fill-opacity="0.4"/>
<path d="M256.925 34.9692L253.967 33.0257C254.125 32.6946 254.226 32.3707 254.262 32.0468C254.298 31.7228 254.276 31.4061 254.19 31.1038C254.104 30.8015 253.952 30.5063 253.744 30.2328C253.528 29.9593 253.261 29.7145 252.93 29.4986C252.34 29.1099 251.742 28.9227 251.131 28.9299C250.519 28.9371 249.921 29.1387 249.331 29.5346C248.741 29.9305 248.201 30.5135 247.69 31.2837C247.157 32.09 246.833 32.8386 246.704 33.5296C246.581 34.2206 246.632 34.8469 246.876 35.3939C247.121 35.941 247.524 36.4089 248.1 36.7904C248.424 37.0063 248.748 37.1575 249.065 37.2511C249.389 37.3447 249.698 37.3734 250.008 37.3519C250.317 37.3231 250.612 37.2439 250.893 37.0999C251.174 36.956 251.44 36.7544 251.685 36.4953L254.629 38.4604C254.226 38.9643 253.722 39.3889 253.125 39.7417C252.527 40.0944 251.858 40.3319 251.123 40.4687C250.389 40.5983 249.619 40.5839 248.813 40.4111C247.999 40.2383 247.179 39.8784 246.351 39.3314C245.257 38.6115 244.429 37.7262 243.882 36.668C243.335 35.6171 243.112 34.4582 243.22 33.2057C243.328 31.9532 243.817 30.6575 244.695 29.3258C245.574 27.9942 246.567 27.0296 247.69 26.4393C248.806 25.8491 249.957 25.5972 251.145 25.6835C252.326 25.7699 253.456 26.173 254.535 26.8784C255.27 27.3607 255.881 27.9078 256.371 28.5196C256.86 29.1315 257.213 29.7865 257.429 30.4919C257.645 31.1902 257.717 31.9244 257.645 32.6802C257.573 33.436 257.328 34.199 256.925 34.9692Z" fill="white" fill-opacity="0.4"/>
<path d="M253.16 43.7442L262.18 32.3926L270.098 38.6838L268.327 40.9153L263.158 36.8051L261.309 39.1301L266.074 42.9164L264.296 45.1478L259.531 41.3616L257.673 43.6938L262.842 47.804L261.071 50.0354L253.16 43.7442Z" fill="white" fill-opacity="0.4"/>
<path d="M271.135 59.8755C270.415 59.1413 269.882 58.3135 269.529 57.3921C269.177 56.4708 269.004 55.5278 269.018 54.556C269.033 53.5843 269.227 52.6485 269.601 51.7343C269.976 50.8273 270.537 50.0139 271.279 49.2941C272.02 48.5743 272.855 48.0416 273.769 47.6961C274.683 47.3506 275.634 47.1778 276.598 47.1922C277.57 47.2066 278.506 47.401 279.413 47.7753C280.32 48.1496 281.133 48.7111 281.846 49.4453C282.565 50.1867 283.105 51.0145 283.458 51.9359C283.811 52.85 283.976 53.793 283.962 54.7648C283.948 55.7293 283.746 56.6723 283.372 57.5793C282.997 58.4863 282.436 59.2997 281.702 60.0267C280.96 60.7537 280.14 61.2864 279.218 61.6391C278.304 61.9918 277.361 62.1573 276.389 62.1501C275.418 62.1358 274.482 61.9414 273.568 61.5599C272.654 61.1784 271.855 60.6169 271.135 59.8755Z" fill="white" fill-opacity="0.4"/>
<path d="M280.686 70.1755L292.311 61.5088L295.924 66.3532C296.572 67.2242 296.997 68.0448 297.184 68.815C297.371 69.5852 297.364 70.2834 297.141 70.9169C296.918 71.5431 296.514 72.0758 295.931 72.5077C295.485 72.8388 295.024 73.0403 294.542 73.1123C294.06 73.1843 293.578 73.1411 293.11 72.99C292.642 72.8316 292.203 72.5725 291.792 72.2125L291.677 72.2989C292.001 72.7884 292.203 73.3139 292.268 73.8825C292.332 74.4512 292.253 75.0127 292.023 75.5597C291.792 76.1068 291.397 76.5891 290.835 77.0066C290.209 77.4745 289.532 77.7264 288.805 77.7768C288.078 77.8272 287.351 77.6544 286.617 77.2585C285.883 76.8698 285.199 76.2436 284.558 75.3798L280.686 70.1755ZM285.048 71.2984L286.343 73.0331C286.797 73.645 287.25 74.0049 287.697 74.1201C288.143 74.2353 288.575 74.1417 288.985 73.8321C289.287 73.609 289.489 73.3499 289.604 73.0475C289.719 72.7452 289.734 72.4213 289.662 72.0758C289.59 71.7303 289.417 71.3776 289.151 71.0176L287.819 69.2325L285.048 71.2984ZM289.626 67.8792L290.785 69.434C291.015 69.7436 291.267 69.9739 291.548 70.1395C291.828 70.305 292.116 70.377 292.404 70.3698C292.692 70.3626 292.98 70.2546 293.254 70.0531C293.642 69.7652 293.844 69.398 293.865 68.9518C293.88 68.5055 293.714 68.052 293.369 67.5841L292.174 65.9861L289.626 67.8792Z" fill="white" fill-opacity="0.4"/>
<path d="M288.352 80.6192L300.661 72.9531L306.009 81.5334L303.59 83.0378L300.099 77.4304L297.572 78.9996L300.79 84.168L298.364 85.6796L295.147 80.5113L292.62 82.0877L296.111 87.6951L293.693 89.1995L288.352 80.6192Z" fill="white" fill-opacity="0.4"/>
<path d="M294.648 90.8774L307.533 84.2334L312.169 93.2168L309.642 94.5197L306.612 88.6459L303.97 90.0064L306.763 95.4194L304.229 96.7295L301.436 91.3165L298.787 92.6841L301.818 98.5579L299.291 99.8607L294.648 90.8774Z" fill="white" fill-opacity="0.4"/>
<path d="M300.102 101.566L313.505 96.0234L315.794 101.559C316.211 102.559 316.384 103.502 316.334 104.381C316.276 105.259 315.995 106.036 315.491 106.713C314.987 107.389 314.275 107.915 313.361 108.289C312.432 108.671 311.561 108.8 310.741 108.656C309.927 108.52 309.193 108.145 308.545 107.541C307.897 106.936 307.365 106.123 306.94 105.1L305.493 101.602L308.041 100.544L309.243 103.445C309.445 103.934 309.682 104.316 309.942 104.589C310.208 104.863 310.503 105.036 310.841 105.093C311.172 105.151 311.547 105.1 311.964 104.928C312.382 104.755 312.684 104.532 312.893 104.244C313.094 103.963 313.195 103.625 313.195 103.236C313.195 102.847 313.094 102.408 312.893 101.926L312.231 100.328L301.44 104.791L300.102 101.566ZM309.344 106.576L304.6 112.45L303.139 108.915L307.912 103.114L309.344 106.576Z" fill="white" fill-opacity="0.4"/>
<path d="M306.312 117.504L320.263 113.545L321.897 119.311C322.192 120.354 322.264 121.312 322.105 122.176C321.947 123.039 321.58 123.781 320.997 124.393C320.414 125.004 319.651 125.444 318.693 125.717C317.729 125.991 316.844 126.012 316.052 125.782C315.26 125.552 314.576 125.098 314 124.421C313.424 123.745 312.992 122.874 312.69 121.816L311.654 118.173L314.31 117.418L315.166 120.434C315.31 120.945 315.497 121.348 315.728 121.65C315.958 121.952 316.239 122.154 316.563 122.255C316.887 122.356 317.268 122.341 317.7 122.219C318.132 122.096 318.463 121.909 318.701 121.65C318.931 121.391 319.075 121.067 319.118 120.686C319.161 120.297 319.111 119.858 318.974 119.354L318.499 117.691L307.27 120.88L306.312 117.504ZM314.914 123.55L309.523 128.834L308.479 125.156L313.885 119.937L314.914 123.55Z" fill="white" fill-opacity="0.4"/>
<path d="M309.738 129.949L323.969 127.178L325.905 137.104L323.113 137.651L321.853 131.166L318.93 131.734L320.097 137.709L317.296 138.256L316.13 132.281L313.208 132.85L314.468 139.336L311.675 139.883L309.738 129.949Z" fill="white" fill-opacity="0.4"/>
<path d="M322.917 148.456C323.428 148.355 323.81 148.103 324.055 147.7C324.299 147.297 324.393 146.757 324.314 146.08C324.263 145.627 324.163 145.26 324.011 144.972C323.86 144.684 323.673 144.475 323.457 144.346C323.234 144.216 322.997 144.166 322.73 144.187C322.514 144.202 322.327 144.266 322.176 144.382C322.025 144.497 321.895 144.655 321.787 144.849C321.686 145.051 321.6 145.281 321.535 145.555C321.47 145.828 321.42 146.131 321.384 146.469L321.24 147.736C321.161 148.463 321.024 149.118 320.83 149.694C320.628 150.27 320.376 150.759 320.06 151.177C319.743 151.587 319.361 151.918 318.922 152.156C318.483 152.393 317.965 152.551 317.389 152.623C316.475 152.717 315.669 152.573 314.97 152.192C314.265 151.81 313.696 151.205 313.257 150.392C312.818 149.579 312.53 148.571 312.401 147.369C312.271 146.159 312.336 145.094 312.595 144.158C312.861 143.223 313.329 142.467 314.013 141.891C314.697 141.315 315.597 140.955 316.727 140.818L317.094 144.158C316.633 144.238 316.259 144.403 315.971 144.655C315.683 144.907 315.482 145.238 315.366 145.641C315.251 146.044 315.215 146.505 315.273 147.016C315.323 147.484 315.431 147.88 315.597 148.197C315.762 148.513 315.964 148.751 316.209 148.902C316.453 149.053 316.72 149.118 317.015 149.089C317.288 149.053 317.511 148.945 317.684 148.758C317.864 148.571 318.001 148.305 318.109 147.945C318.217 147.592 318.303 147.138 318.368 146.606L318.555 145.058C318.706 143.777 319.059 142.748 319.621 141.956C320.182 141.171 321.01 140.718 322.104 140.602C322.997 140.502 323.803 140.653 324.53 141.063C325.25 141.473 325.847 142.085 326.315 142.899C326.783 143.712 327.078 144.662 327.2 145.756C327.323 146.872 327.236 147.865 326.948 148.729C326.66 149.593 326.2 150.291 325.566 150.824C324.933 151.357 324.17 151.673 323.277 151.781L322.917 148.456Z" fill="white" fill-opacity="0.4"/>
<path d="M320.801 168.115C319.203 168.143 317.85 167.856 316.727 167.258C315.604 166.661 314.754 165.847 314.157 164.811C313.567 163.774 313.257 162.608 313.236 161.312C313.214 160.009 313.488 158.829 314.049 157.778C314.61 156.727 315.445 155.885 316.54 155.259C317.634 154.632 318.98 154.301 320.571 154.272C322.169 154.244 323.522 154.532 324.645 155.122C325.76 155.712 326.617 156.526 327.215 157.562C327.805 158.599 328.114 159.765 328.136 161.068C328.157 162.363 327.891 163.544 327.33 164.595C326.768 165.646 325.94 166.495 324.839 167.121C323.745 167.762 322.399 168.093 320.801 168.115ZM320.743 164.537C321.686 164.523 322.485 164.379 323.126 164.098C323.774 163.817 324.263 163.429 324.587 162.925C324.911 162.421 325.069 161.823 325.062 161.125C325.048 160.434 324.875 159.837 324.53 159.34C324.184 158.843 323.687 158.469 323.032 158.217C322.377 157.958 321.578 157.843 320.635 157.857C319.692 157.872 318.893 158.016 318.246 158.296C317.598 158.577 317.108 158.966 316.784 159.47C316.46 159.973 316.302 160.578 316.309 161.269C316.324 161.967 316.496 162.565 316.842 163.054C317.187 163.544 317.684 163.918 318.339 164.177C319.001 164.429 319.8 164.552 320.743 164.537Z" fill="white" fill-opacity="0.4"/>
<path d="M327.18 179.877L326.892 183.361L317.57 182.591C316.49 182.504 315.576 182.166 314.82 181.59C314.064 181.014 313.51 180.244 313.15 179.294C312.79 178.337 312.661 177.257 312.762 176.04C312.862 174.809 313.172 173.758 313.683 172.88C314.194 172.002 314.871 171.34 315.713 170.894C316.555 170.454 317.512 170.275 318.585 170.361L327.907 171.131L327.619 174.622L318.599 173.874C318.103 173.83 317.649 173.902 317.239 174.09C316.829 174.277 316.497 174.557 316.246 174.932C315.994 175.306 315.842 175.76 315.799 176.278C315.756 176.803 315.828 177.264 316.015 177.681C316.202 178.092 316.483 178.423 316.857 178.675C317.232 178.927 317.664 179.078 318.16 179.114L327.18 179.877Z" fill="white" fill-opacity="0.4"/>
<path d="M317.288 193.222L310.141 195.633L310.803 191.869L317.943 189.522L317.288 193.222ZM312.171 184.037L326.452 186.542L325.415 192.445C325.228 193.517 324.875 194.403 324.357 195.115C323.839 195.828 323.184 196.332 322.392 196.627C321.607 196.922 320.722 196.987 319.743 196.814C318.75 196.641 317.951 196.274 317.339 195.727C316.727 195.173 316.31 194.467 316.086 193.611C315.863 192.754 315.849 191.782 316.043 190.688L316.698 186.96L319.419 187.435L318.879 190.523C318.786 191.041 318.778 191.494 318.858 191.869C318.937 192.243 319.095 192.545 319.347 192.776C319.599 193.006 319.945 193.157 320.384 193.236C320.823 193.316 321.204 193.287 321.528 193.157C321.852 193.028 322.118 192.797 322.327 192.473C322.536 192.142 322.687 191.725 322.773 191.207L323.069 189.508L311.566 187.492L312.171 184.037Z" fill="white" fill-opacity="0.4"/>
<path d="M315.354 211.858L316.29 208.446C316.65 208.496 316.995 208.489 317.319 208.424C317.643 208.359 317.931 208.237 318.197 208.064C318.464 207.884 318.687 207.654 318.881 207.366C319.076 207.078 319.227 206.747 319.327 206.358C319.515 205.681 319.507 205.048 319.306 204.472C319.104 203.889 318.73 203.385 318.176 202.953C317.621 202.521 316.894 202.183 316.002 201.938C315.073 201.686 314.26 201.607 313.562 201.701C312.863 201.794 312.288 202.039 311.841 202.442C311.395 202.845 311.078 203.371 310.898 204.033C310.798 204.407 310.747 204.76 310.762 205.091C310.776 205.422 310.841 205.732 310.956 206.02C311.078 206.308 311.251 206.56 311.474 206.783C311.697 207.006 311.971 207.2 312.295 207.351L311.337 210.763C310.733 210.533 310.171 210.188 309.653 209.727C309.135 209.266 308.696 208.705 308.343 208.05C307.99 207.395 307.774 206.653 307.681 205.833C307.594 205.012 307.681 204.119 307.947 203.155C308.293 201.888 308.883 200.83 309.711 199.988C310.546 199.138 311.568 198.577 312.799 198.289C314.03 198.001 315.404 198.073 316.945 198.49C318.485 198.908 319.709 199.563 320.616 200.441C321.523 201.319 322.12 202.334 322.401 203.493C322.682 204.645 322.653 205.847 322.315 207.085C322.084 207.935 321.753 208.683 321.321 209.338C320.889 209.993 320.378 210.533 319.781 210.958C319.183 211.383 318.514 211.678 317.765 211.836C317.017 211.994 316.211 212.002 315.354 211.858Z" fill="white" fill-opacity="0.4"/>
<path d="M305.843 210.994L319.426 216.069L315.884 225.542L313.221 224.548L315.532 218.358L312.746 217.314L310.615 223.015L307.945 222.015L310.075 216.314L307.283 215.27L304.972 221.46L302.309 220.467L305.843 210.994Z" fill="white" fill-opacity="0.4"/>
<path d="M296.04 233.064C296.522 232.157 297.141 231.387 297.911 230.775C298.674 230.156 299.523 229.702 300.452 229.422C301.381 229.134 302.331 229.033 303.31 229.112C304.289 229.191 305.232 229.472 306.146 229.961C307.06 230.451 307.823 231.077 308.435 231.84C309.047 232.603 309.5 233.453 309.788 234.381C310.076 235.31 310.177 236.26 310.098 237.239C310.018 238.218 309.738 239.161 309.255 240.068C308.773 240.982 308.147 241.745 307.384 242.364C306.621 242.983 305.771 243.429 304.85 243.71C303.922 243.991 302.971 244.091 301.992 244.012C301.013 243.933 300.071 243.652 299.149 243.17C298.235 242.688 297.465 242.069 296.853 241.306C296.234 240.543 295.788 239.693 295.5 238.772C295.212 237.851 295.111 236.893 295.19 235.907C295.269 234.921 295.55 233.978 296.04 233.064Z" fill="white" fill-opacity="0.4"/>
<path d="M289.172 245.309L300.991 253.709L297.486 258.64C296.859 259.525 296.204 260.18 295.528 260.598C294.851 261.015 294.182 261.217 293.519 261.202C292.857 261.188 292.224 260.965 291.633 260.54C291.187 260.216 290.849 259.842 290.633 259.403C290.417 258.964 290.309 258.496 290.316 257.999C290.323 257.502 290.431 257.006 290.647 256.509L290.532 256.43C290.172 256.891 289.726 257.243 289.2 257.481C288.675 257.718 288.121 257.812 287.523 257.762C286.926 257.711 286.35 257.481 285.781 257.078C285.148 256.624 284.694 256.063 284.428 255.386C284.162 254.709 284.097 253.961 284.248 253.147C284.399 252.334 284.781 251.485 285.4 250.614L289.172 245.309ZM289.445 249.807L288.193 251.571C287.754 252.19 287.545 252.73 287.566 253.191C287.588 253.651 287.811 254.033 288.236 254.328C288.538 254.544 288.855 254.659 289.172 254.673C289.495 254.688 289.812 254.609 290.115 254.436C290.424 254.263 290.705 253.99 290.964 253.623L292.26 251.809L289.445 249.807ZM294.102 253.119L292.979 254.702C292.756 255.012 292.612 255.329 292.548 255.645C292.483 255.962 292.497 256.257 292.591 256.531C292.691 256.804 292.879 257.042 293.152 257.243C293.548 257.524 293.958 257.603 294.383 257.488C294.808 257.373 295.189 257.07 295.535 256.595L296.694 254.969L294.102 253.119Z" fill="white" fill-opacity="0.4"/>
<path d="M281.57 255.825L292.648 265.183L286.119 272.907L283.945 271.071L288.207 266.025L285.932 264.103L282.002 268.753L279.821 266.91L283.751 262.26L281.476 260.338L277.215 265.384L275.041 263.549L281.57 255.825Z" fill="white" fill-opacity="0.4"/>
<path d="M273.762 264.952L284.049 275.166L276.922 282.343L274.9 280.335L279.557 275.649L277.448 273.554L273.158 277.873L271.135 275.865L275.425 271.546L273.309 269.444L268.652 274.13L266.629 272.122L273.762 264.952Z" fill="white" fill-opacity="0.4"/>
<path d="M263.324 283.783L256.277 281.084L259.185 278.6L266.175 281.35L263.324 283.783ZM265.239 273.446L274.647 284.481L270.091 288.368C269.263 289.074 268.421 289.534 267.571 289.75C266.715 289.966 265.894 289.937 265.095 289.664C264.296 289.39 263.576 288.879 262.936 288.123C262.281 287.36 261.899 286.569 261.777 285.748C261.654 284.927 261.784 284.121 262.158 283.315C262.533 282.516 263.144 281.753 263.987 281.04L266.873 278.586L268.665 280.688L266.276 282.725C265.873 283.07 265.585 283.409 265.405 283.747C265.225 284.085 265.153 284.424 265.203 284.755C265.254 285.086 265.419 285.431 265.707 285.77C265.995 286.108 266.312 286.331 266.643 286.439C266.974 286.547 267.327 286.54 267.694 286.417C268.061 286.295 268.45 286.065 268.845 285.726L270.163 284.604L262.59 275.714L265.239 273.446Z" fill="white" fill-opacity="0.4"/>
<path d="M248.921 294.322L242.227 290.83L245.401 288.7L252.038 292.227L248.921 294.322ZM252.009 284.266L260.093 296.301L255.119 299.641C254.219 300.246 253.333 300.606 252.455 300.728C251.584 300.843 250.764 300.721 250.001 300.361C249.238 300.001 248.583 299.403 248.028 298.583C247.467 297.748 247.172 296.92 247.15 296.092C247.121 295.265 247.345 294.473 247.812 293.724C248.28 292.968 248.971 292.284 249.885 291.673L253.031 289.564L254.572 291.86L251.966 293.609C251.527 293.904 251.196 294.206 250.98 294.523C250.764 294.84 250.656 295.164 250.663 295.502C250.67 295.84 250.8 296.2 251.044 296.567C251.296 296.942 251.577 297.201 251.894 297.338C252.21 297.474 252.563 297.51 252.945 297.438C253.326 297.359 253.729 297.179 254.168 296.884L255.601 295.92L249.094 286.224L252.009 284.266Z" fill="white" fill-opacity="0.4"/>
<path d="M241.233 291.384L248.28 304.053L239.447 308.969L238.065 306.478L243.838 303.268L242.392 300.67L237.072 303.628L235.683 301.137L241.002 298.179L239.555 295.573L233.782 298.784L232.4 296.293L241.233 291.384Z" fill="white" fill-opacity="0.4"/>
<path d="M227.723 309.661C227.982 310.114 228.335 310.395 228.796 310.51C229.249 310.625 229.796 310.539 230.415 310.258C230.825 310.071 231.149 309.862 231.373 309.632C231.603 309.402 231.74 309.157 231.79 308.912C231.84 308.66 231.819 308.415 231.711 308.171C231.632 307.969 231.509 307.811 231.358 307.703C231.2 307.595 231.013 307.516 230.789 307.48C230.566 307.444 230.314 307.436 230.041 307.458C229.767 307.48 229.458 307.53 229.127 307.602L227.874 307.854C227.154 308.005 226.492 308.077 225.887 308.07C225.283 308.063 224.729 307.969 224.239 307.796C223.75 307.624 223.318 307.364 222.951 307.019C222.583 306.673 222.274 306.234 222.036 305.709C221.662 304.874 221.554 304.061 221.698 303.276C221.842 302.491 222.238 301.764 222.879 301.088C223.512 300.418 224.383 299.835 225.484 299.338C226.593 298.842 227.629 298.568 228.601 298.532C229.573 298.496 230.437 298.705 231.2 299.18C231.963 299.648 232.582 300.397 233.057 301.426L229.998 302.808C229.782 302.391 229.508 302.088 229.177 301.901C228.846 301.707 228.472 301.62 228.047 301.635C227.629 301.649 227.183 301.764 226.715 301.973C226.283 302.167 225.945 302.391 225.693 302.642C225.441 302.894 225.283 303.161 225.211 303.441C225.139 303.722 225.16 303.996 225.283 304.262C225.398 304.507 225.571 304.687 225.808 304.802C226.039 304.91 226.341 304.96 226.708 304.953C227.082 304.946 227.529 304.888 228.061 304.78L229.587 304.478C230.847 304.226 231.941 304.24 232.87 304.536C233.791 304.824 234.482 305.471 234.928 306.479C235.303 307.293 235.404 308.113 235.238 308.927C235.072 309.74 234.676 310.496 234.05 311.194C233.424 311.892 232.611 312.468 231.603 312.922C230.581 313.382 229.609 313.613 228.702 313.605C227.788 313.598 226.989 313.382 226.283 312.943C225.585 312.504 225.045 311.878 224.664 311.064L227.723 309.661Z" fill="white" fill-opacity="0.4"/>
<path d="M208.346 313.714C207.835 312.202 207.684 310.827 207.907 309.575C208.13 308.329 208.641 307.264 209.447 306.379C210.253 305.493 211.268 304.845 212.499 304.428C213.73 304.01 214.939 303.902 216.113 304.118C217.286 304.334 218.344 304.867 219.28 305.716C220.216 306.566 220.943 307.746 221.454 309.251C221.965 310.762 222.116 312.137 221.893 313.39C221.67 314.642 221.159 315.7 220.36 316.586C219.561 317.464 218.539 318.119 217.308 318.536C216.077 318.954 214.875 319.062 213.701 318.853C212.528 318.644 211.47 318.112 210.527 317.262C209.591 316.406 208.864 315.225 208.346 313.714ZM211.736 312.562C212.039 313.454 212.427 314.167 212.888 314.7C213.349 315.232 213.874 315.571 214.45 315.729C215.033 315.887 215.652 315.851 216.314 315.628C216.969 315.405 217.48 315.052 217.848 314.577C218.215 314.102 218.416 313.505 218.459 312.807C218.503 312.101 218.373 311.309 218.063 310.41C217.754 309.51 217.372 308.804 216.912 308.272C216.451 307.739 215.926 307.401 215.343 307.242C214.759 307.084 214.14 307.12 213.485 307.343C212.823 307.566 212.312 307.919 211.952 308.401C211.592 308.884 211.384 309.467 211.34 310.172C211.304 310.87 211.434 311.669 211.736 312.562Z" fill="white" fill-opacity="0.4"/>
<path d="M199.11 323.395L195.705 324.187L193.581 315.074C193.337 314.023 193.373 313.044 193.696 312.152C194.013 311.252 194.575 310.489 195.374 309.855C196.173 309.222 197.166 308.769 198.347 308.488C199.549 308.207 200.643 308.178 201.643 308.394C202.644 308.61 203.479 309.049 204.155 309.712C204.832 310.374 205.293 311.23 205.538 312.288L207.661 321.401L204.249 322.193L202.198 313.383C202.082 312.893 201.874 312.483 201.571 312.152C201.269 311.821 200.902 311.59 200.463 311.461C200.024 311.338 199.556 311.331 199.045 311.446C198.534 311.561 198.116 311.777 197.778 312.08C197.447 312.382 197.216 312.756 197.087 313.188C196.957 313.62 196.95 314.081 197.065 314.57L199.11 323.395Z" fill="white" fill-opacity="0.4"/>
<path d="M183.387 318.061L178.902 311.993L182.689 311.468L187.101 317.543L183.387 318.061ZM190.563 310.381L192.55 324.749L186.619 325.569C185.546 325.72 184.589 325.655 183.754 325.375C182.919 325.094 182.235 324.626 181.71 323.971C181.184 323.316 180.853 322.495 180.716 321.509C180.58 320.516 180.68 319.638 181.019 318.882C181.357 318.126 181.904 317.514 182.653 317.039C183.401 316.564 184.323 316.255 185.417 316.103L189.167 315.585L189.549 318.32L186.439 318.752C185.913 318.824 185.489 318.954 185.15 319.141C184.819 319.328 184.582 319.573 184.438 319.883C184.294 320.192 184.251 320.566 184.315 321.013C184.38 321.459 184.517 321.812 184.74 322.078C184.963 322.344 185.266 322.524 185.64 322.625C186.014 322.726 186.46 322.733 186.986 322.661L188.699 322.423L187.094 310.856L190.563 310.381Z" fill="white" fill-opacity="0.4"/>
<path d="M165.054 321.932L168.589 321.774C168.653 322.134 168.761 322.458 168.92 322.746C169.078 323.034 169.287 323.271 169.532 323.473C169.784 323.667 170.072 323.818 170.403 323.912C170.734 324.006 171.101 324.049 171.497 324.027C172.202 323.998 172.8 323.797 173.289 323.43C173.779 323.063 174.146 322.544 174.39 321.882C174.635 321.22 174.736 320.428 174.693 319.499C174.65 318.535 174.477 317.736 174.167 317.102C173.865 316.469 173.455 315.994 172.936 315.692C172.418 315.389 171.813 315.252 171.13 315.281C170.741 315.296 170.395 315.368 170.079 315.476C169.762 315.591 169.488 315.749 169.258 315.951C169.021 316.152 168.833 316.397 168.689 316.678C168.545 316.958 168.452 317.275 168.402 317.628L164.867 317.765C164.896 317.117 165.054 316.476 165.335 315.843C165.616 315.209 166.012 314.619 166.53 314.086C167.041 313.547 167.682 313.115 168.438 312.776C169.193 312.438 170.072 312.251 171.065 312.208C172.375 312.15 173.563 312.388 174.621 312.913C175.679 313.446 176.536 314.252 177.183 315.332C177.831 316.411 178.191 317.75 178.263 319.334C178.335 320.925 178.09 322.292 177.536 323.43C176.975 324.567 176.19 325.445 175.182 326.064C174.174 326.683 173.023 327.029 171.734 327.086C170.856 327.122 170.043 327.043 169.287 326.834C168.531 326.626 167.862 326.302 167.271 325.863C166.681 325.424 166.199 324.877 165.817 324.214C165.436 323.559 165.184 322.796 165.054 321.932Z" fill="white" fill-opacity="0.4"/>
<path d="M162.938 312.627L162.304 327.117L152.205 326.678L152.327 323.834L158.928 324.122L159.058 321.149L152.975 320.883L153.098 318.032L159.18 318.299L159.31 315.319L152.709 315.031L152.831 312.188L162.938 312.627Z" fill="white" fill-opacity="0.4"/>
<path d="M138.924 310.135C139.939 310.308 140.861 310.668 141.681 311.2C142.509 311.733 143.2 312.403 143.754 313.194C144.316 313.986 144.712 314.864 144.942 315.814C145.172 316.765 145.194 317.758 145.014 318.773C144.834 319.788 144.474 320.709 143.934 321.53C143.394 322.35 142.732 323.042 141.94 323.603C141.149 324.164 140.278 324.56 139.32 324.783C138.363 325.014 137.384 325.035 136.369 324.863C135.347 324.69 134.425 324.33 133.605 323.797C132.777 323.265 132.093 322.595 131.532 321.803C130.978 321.012 130.589 320.133 130.358 319.183C130.128 318.226 130.107 317.24 130.272 316.225C130.438 315.21 130.798 314.281 131.33 313.461C131.863 312.64 132.532 311.949 133.317 311.388C134.109 310.826 134.987 310.437 135.944 310.207C136.916 309.984 137.902 309.955 138.924 310.135Z" fill="white" fill-opacity="0.4"/>
<path d="M125.147 307.408L120.813 321.243L115.04 319.436C114.004 319.112 113.183 318.695 112.571 318.183C111.959 317.672 111.564 317.097 111.376 316.456C111.189 315.815 111.204 315.153 111.42 314.455C111.585 313.929 111.844 313.49 112.19 313.152C112.543 312.806 112.953 312.562 113.421 312.41C113.896 312.259 114.4 312.216 114.947 312.267L114.99 312.13C114.443 311.928 113.968 311.619 113.579 311.194C113.19 310.769 112.931 310.265 112.794 309.69C112.658 309.114 112.694 308.487 112.902 307.818C113.133 307.077 113.536 306.472 114.09 306.004C114.652 305.536 115.343 305.248 116.163 305.14C116.984 305.032 117.905 305.133 118.927 305.457L125.147 307.408ZM119.251 314.512L117.401 313.929C117.034 313.814 116.696 313.771 116.372 313.807C116.048 313.843 115.775 313.944 115.544 314.124C115.314 314.304 115.148 314.556 115.04 314.879C114.896 315.34 114.947 315.758 115.191 316.132C115.436 316.499 115.839 316.773 116.401 316.945L118.308 317.543L119.251 314.512ZM120.957 309.056L118.891 308.408C118.164 308.178 117.589 308.149 117.157 308.315C116.725 308.48 116.437 308.811 116.278 309.301C116.17 309.654 116.156 309.992 116.242 310.301C116.329 310.611 116.502 310.884 116.761 311.122C117.02 311.36 117.365 311.547 117.797 311.683L119.928 312.353L120.957 309.056Z" fill="white" fill-opacity="0.4"/>
<path d="M112.823 303.441L107.338 316.866L97.9805 313.037L99.0602 310.402L105.179 312.9L106.302 310.15L100.665 307.847L101.745 305.205L107.381 307.508L108.511 304.751L102.393 302.254L103.473 299.619L112.823 303.441Z" fill="white" fill-opacity="0.4"/>
<path d="M101.718 298.819L95.16 311.755L86.1406 307.184L87.4291 304.643L93.3244 307.63L94.6705 304.974L89.2359 302.217L90.5243 299.669L95.959 302.426L97.3051 299.769L91.4097 296.782L92.6982 294.241L101.718 298.819Z" fill="white" fill-opacity="0.4"/>
<path d="M91.0264 293.328L83.4107 305.666L78.3143 302.52C77.393 301.951 76.6947 301.289 76.2269 300.548C75.759 299.806 75.5286 299.007 75.5502 298.165C75.5646 297.323 75.831 296.481 76.3564 295.638C76.8819 294.782 77.5225 294.17 78.2639 293.803C79.0054 293.436 79.8188 293.313 80.6969 293.421C81.5751 293.529 82.4821 293.882 83.4251 294.458L86.6499 296.445L85.203 298.791L82.5325 297.143C82.0862 296.862 81.6687 296.689 81.2944 296.625C80.9201 296.56 80.5746 296.596 80.2723 296.74C79.9627 296.884 79.6964 297.15 79.4589 297.532C79.2213 297.913 79.1061 298.28 79.1061 298.626C79.1061 298.971 79.2213 299.302 79.4517 299.619C79.682 299.936 80.0131 300.231 80.4594 300.504L81.9278 301.411L88.0607 291.478L91.0264 293.328ZM80.5962 294.681L81.0065 287.145L84.2601 289.153L83.7922 296.653L80.5962 294.681Z" fill="white" fill-opacity="0.4"/>
<path d="M76.6591 284.049L67.6829 295.436L62.9752 291.729C62.1258 291.06 61.5068 290.325 61.1253 289.526C60.7438 288.727 60.6142 287.914 60.7222 287.079C60.8302 286.244 61.1973 285.438 61.8091 284.66C62.4282 283.869 63.1336 283.336 63.911 283.055C64.6884 282.775 65.509 282.746 66.3728 282.954C67.2366 283.163 68.1004 283.617 68.9642 284.301L71.937 286.647L70.231 288.814L67.7693 286.87C67.3518 286.539 66.963 286.323 66.5959 286.215C66.2288 286.107 65.8833 286.1 65.5666 286.215C65.2499 286.33 64.9475 286.554 64.6668 286.906C64.3861 287.259 64.2349 287.605 64.1917 287.95C64.1557 288.296 64.2277 288.641 64.4221 288.979C64.6092 289.318 64.9116 289.649 65.3219 289.973L66.6823 291.045L73.9093 281.875L76.6591 284.049ZM66.1425 284.2L67.4093 276.757L70.411 279.125L69.0865 286.525L66.1425 284.2Z" fill="white" fill-opacity="0.4"/>
<path d="M66.5681 275.972L56.6777 286.575L49.2852 279.679L51.2287 277.599L56.0587 282.105L58.0886 279.931L53.6329 275.778L55.5764 273.69L60.0321 277.844L62.0692 275.663L57.2392 271.156L59.1827 269.076L66.5681 275.972Z" fill="white" fill-opacity="0.4"/>
<path d="M45.0375 268.753C44.6848 269.134 44.5264 269.566 44.5624 270.034C44.5984 270.502 44.8432 270.991 45.3039 271.495C45.6062 271.833 45.9085 272.071 46.1964 272.215C46.4844 272.359 46.7579 272.416 47.0098 272.395C47.2618 272.366 47.4921 272.272 47.6865 272.093C47.852 271.956 47.9672 271.79 48.0248 271.61C48.0824 271.43 48.0968 271.222 48.0608 271.006C48.0248 270.79 47.96 270.545 47.852 270.286C47.744 270.027 47.6073 269.753 47.4345 269.458L46.8083 268.342C46.4412 267.709 46.1676 267.097 45.9949 266.514C45.8149 265.931 45.7357 265.384 45.7501 264.865C45.7645 264.347 45.8797 263.858 46.0957 263.404C46.3116 262.944 46.6355 262.519 47.0602 262.13C47.7441 261.518 48.4783 261.158 49.2701 261.058C50.0619 260.957 50.8753 261.108 51.7103 261.504C52.5453 261.907 53.3659 262.555 54.1793 263.447C54.9927 264.347 55.5685 265.247 55.9068 266.161C56.2452 267.075 56.3027 267.961 56.094 268.832C55.8852 269.703 55.3598 270.523 54.532 271.294L52.2789 268.81C52.6028 268.472 52.8116 268.119 52.8908 267.745C52.97 267.37 52.9412 266.989 52.7972 266.593C52.6532 266.197 52.4085 265.808 52.063 265.427C51.7463 265.074 51.4295 264.822 51.1128 264.664C50.7961 264.506 50.4938 264.434 50.2058 264.455C49.9179 264.477 49.666 264.578 49.4428 264.772C49.2413 264.959 49.1261 265.182 49.0901 265.434C49.0541 265.686 49.1045 265.988 49.2269 266.341C49.3493 266.694 49.5436 267.104 49.8099 267.579L50.5658 268.94C51.1992 270.063 51.5159 271.106 51.5231 272.078C51.5303 273.05 51.1272 273.899 50.3066 274.633C49.6444 275.238 48.903 275.591 48.0752 275.684C47.2474 275.778 46.4052 275.634 45.5486 275.253C44.692 274.871 43.893 274.274 43.1516 273.46C42.3958 272.625 41.8847 271.776 41.604 270.912C41.3304 270.041 41.2872 269.206 41.4888 268.407C41.6903 267.608 42.115 266.903 42.7773 266.291L45.0375 268.753Z" fill="white" fill-opacity="0.4"/>
<path d="M35.1972 251.578C36.4713 250.62 37.7382 250.059 38.9979 249.886C40.2576 249.713 41.4237 249.872 42.5106 250.361C43.5976 250.851 44.5333 251.621 45.3107 252.657C46.0882 253.701 46.5632 254.817 46.7216 255.997C46.88 257.178 46.7 258.351 46.1817 259.503C45.6635 260.655 44.7637 261.705 43.4896 262.663C42.2155 263.62 40.9486 264.182 39.6889 264.362C38.4364 264.534 37.2631 264.383 36.1762 263.887C35.0893 263.397 34.1535 262.627 33.3761 261.59C32.5987 260.554 32.1236 259.438 31.958 258.257C31.7925 257.077 31.9724 255.904 32.4907 254.752C33.0234 253.593 33.916 252.535 35.1972 251.578ZM37.3423 254.442C36.5865 255.011 36.025 255.594 35.6651 256.199C35.3052 256.803 35.1397 257.401 35.1684 258.006C35.1972 258.61 35.4204 259.186 35.8451 259.748C36.2626 260.302 36.7521 260.683 37.3207 260.878C37.8894 261.079 38.5156 261.086 39.1923 260.914C39.8761 260.734 40.5887 260.367 41.3445 259.798C42.1003 259.229 42.6618 258.646 43.0217 258.042C43.3816 257.437 43.5472 256.832 43.5184 256.235C43.4896 255.63 43.2664 255.054 42.8489 254.5C42.4315 253.939 41.9348 253.564 41.3733 253.363C40.8047 253.161 40.1856 253.154 39.5018 253.334C38.8179 253.507 38.0981 253.881 37.3423 254.442Z" fill="white" fill-opacity="0.4"/>
<path d="M23.1329 245.805L21.3262 242.81L29.3306 237.973C30.2592 237.412 31.1949 237.145 32.1451 237.174C33.0953 237.203 33.995 237.491 34.8444 238.059C35.6938 238.621 36.4352 239.42 37.0615 240.464C37.7021 241.515 38.0692 242.551 38.17 243.566C38.2708 244.581 38.1124 245.51 37.6949 246.359C37.2774 247.208 36.6008 247.914 35.6794 248.475L27.675 253.312L25.8611 250.311L33.6063 245.625C34.031 245.366 34.3622 245.042 34.5781 244.653C34.8012 244.264 34.902 243.84 34.8876 243.386C34.8732 242.933 34.7293 242.479 34.4557 242.033C34.1822 241.586 33.8511 241.248 33.4552 241.025C33.0593 240.802 32.6418 240.694 32.1883 240.708C31.7348 240.723 31.2957 240.859 30.871 241.119L23.1329 245.805Z" fill="white" fill-opacity="0.4"/>
<path d="M32.8578 233.639L19.8218 239.988L17.2017 234.604C16.7266 233.625 16.4891 232.696 16.4963 231.818C16.5035 230.94 16.7338 230.141 17.1945 229.443C17.6552 228.737 18.3318 228.169 19.2244 227.737C20.1314 227.298 20.9951 227.118 21.8157 227.211C22.6363 227.298 23.3922 227.629 24.076 228.19C24.7598 228.759 25.3429 229.536 25.8252 230.53L27.4807 233.934L24.9974 235.144L23.6225 232.322C23.3921 231.847 23.133 231.48 22.8523 231.221C22.5716 230.962 22.262 230.81 21.9237 230.774C21.5854 230.731 21.2183 230.81 20.8152 231.005C20.4121 231.199 20.117 231.444 19.9298 231.739C19.7427 232.034 19.6635 232.372 19.6851 232.761C19.7067 233.15 19.8362 233.575 20.0666 234.05L20.8224 235.604L31.3174 230.494L32.8578 233.639ZM23.3274 229.198L27.7039 223.051L29.3739 226.492L24.9614 232.574L23.3274 229.198Z" fill="white" fill-opacity="0.4"/>
<path d="M13.9709 212.967L15.2161 216.278C14.8922 216.451 14.6187 216.66 14.3955 216.897C14.1724 217.135 14.0068 217.409 13.8989 217.704C13.7909 217.999 13.7405 218.323 13.7549 218.668C13.7693 219.014 13.8413 219.374 13.978 219.748C14.2228 220.41 14.5971 220.914 15.101 221.267C15.6048 221.62 16.2023 221.807 16.9077 221.835C17.6132 221.857 18.3978 221.713 19.2615 221.382C20.1613 221.044 20.8667 220.633 21.3778 220.144C21.8889 219.654 22.2056 219.122 22.3352 218.531C22.4648 217.948 22.4072 217.329 22.1696 216.682C22.0329 216.322 21.8601 216.005 21.6586 215.746C21.457 215.479 21.2195 215.271 20.9531 215.112C20.6868 214.954 20.3989 214.846 20.0821 214.796C19.7654 214.745 19.4343 214.752 19.0888 214.817L17.8651 211.499C18.4841 211.333 19.1464 211.283 19.8374 211.348C20.5284 211.412 21.2123 211.614 21.8817 211.938C22.5511 212.262 23.163 212.73 23.7172 213.349C24.2715 213.968 24.725 214.738 25.0777 215.674C25.5384 216.905 25.6824 218.107 25.5024 219.273C25.3225 220.439 24.8258 221.512 23.998 222.462C23.1702 223.412 22.0113 224.168 20.5212 224.729C19.0312 225.291 17.6563 225.478 16.4039 225.298C15.1514 225.118 14.0716 224.643 13.1718 223.873C12.2649 223.102 11.5882 222.116 11.1348 220.907C10.8252 220.086 10.6525 219.28 10.6165 218.495C10.5805 217.711 10.6813 216.969 10.9188 216.278C11.1563 215.587 11.5235 214.954 12.0345 214.385C12.5456 213.817 13.1862 213.356 13.9709 212.967Z" fill="white" fill-opacity="0.4"/>
<path d="M22.1697 208.065L8.1908 211.916L5.50586 202.169L8.24838 201.414L10.0047 207.784L12.8696 206.992L11.2572 201.118L14.007 200.363L15.6194 206.236L18.4915 205.445L16.7351 199.074L19.4776 198.318L22.1697 208.065Z" fill="white" fill-opacity="0.4"/>
<path d="M17.1801 184.461C17.3241 185.483 17.2665 186.462 17.0074 187.413C16.7482 188.363 16.3307 189.227 15.7477 189.997C15.1646 190.774 14.452 191.415 13.6098 191.926C12.7676 192.437 11.8391 192.761 10.8169 192.898C9.79475 193.034 8.8086 192.977 7.85843 192.718C6.90827 192.459 6.05168 192.034 5.27427 191.458C4.49686 190.882 3.85622 190.162 3.34514 189.327C2.83407 188.485 2.51015 187.557 2.36619 186.542C2.22222 185.519 2.27981 184.533 2.53894 183.583C2.79808 182.633 3.21558 181.776 3.80583 181.006C4.38889 180.236 5.10151 179.595 5.9437 179.084C6.7859 178.573 7.71447 178.249 8.73662 178.098C9.75876 177.947 10.7449 178.004 11.6879 178.264C12.6381 178.523 13.4946 178.94 14.2721 179.523C15.0495 180.106 15.6901 180.819 16.2012 181.661C16.7122 182.503 17.0362 183.439 17.1801 184.461Z" fill="white" fill-opacity="0.4"/>
<path d="M15.5971 170.475L1.09985 170.713L0.999074 164.666C0.984678 163.58 1.12144 162.673 1.41657 161.931C1.7117 161.19 2.1292 160.635 2.67626 160.254C3.22333 159.872 3.85677 159.678 4.58379 159.664C5.13805 159.657 5.62753 159.765 6.06662 159.988C6.49852 160.211 6.86563 160.528 7.15356 160.923C7.44149 161.327 7.65023 161.794 7.7726 162.32H7.91657C7.93816 161.737 8.08213 161.19 8.36286 160.686C8.64359 160.182 9.03949 159.779 9.54337 159.469C10.0472 159.16 10.6519 159.001 11.3501 158.987C12.1275 158.973 12.8258 159.16 13.4448 159.549C14.0639 159.937 14.5533 160.499 14.9204 161.247C15.2875 161.996 15.4747 162.903 15.4891 163.968L15.5971 170.475ZM7.00239 167.114L6.9736 165.17C6.9664 164.789 6.90162 164.451 6.76485 164.155C6.62809 163.86 6.44813 163.63 6.20339 163.464C5.95865 163.299 5.67072 163.22 5.32521 163.227C4.83573 163.234 4.46142 163.414 4.18789 163.76C3.91436 164.105 3.78479 164.573 3.79199 165.163L3.82078 167.157L7.00239 167.114ZM12.7178 167.02L12.6818 164.854C12.6674 164.091 12.5162 163.536 12.2211 163.176C11.926 162.817 11.5229 162.644 11.0118 162.651C10.6375 162.658 10.3208 162.752 10.0472 162.932C9.78091 163.112 9.57216 163.364 9.4282 163.688C9.28423 164.011 9.21945 164.4 9.22665 164.846L9.26264 167.078L12.7178 167.02Z" fill="white" fill-opacity="0.4"/>
<path d="M15.5394 157.533L1.07812 156.468L1.81954 146.383L4.65564 146.592L4.17336 153.178L7.13903 153.394L7.58532 147.319L10.4286 147.527L9.98233 153.603L12.9552 153.819L13.4375 147.232L16.2736 147.441L15.5394 157.533Z" fill="white" fill-opacity="0.4"/>
<path d="M16.4957 145.563L2.16406 143.339L3.71168 133.348L6.52619 133.787L5.51124 140.316L8.44811 140.769L9.38388 134.751L12.2056 135.19L11.2698 141.208L14.2139 141.662L15.2288 135.133L18.0433 135.572L16.4957 145.563Z" fill="white" fill-opacity="0.4"/>
<path d="M18.3969 133.686L4.30273 130.267L5.71359 124.443C5.97272 123.385 6.38302 122.521 6.94448 121.845C7.50594 121.168 8.19697 120.707 9.00317 120.463C9.80938 120.218 10.6948 120.211 11.6593 120.441C12.6383 120.679 13.4157 121.089 13.9915 121.686C14.5674 122.277 14.9417 123.011 15.1073 123.882C15.2728 124.753 15.2224 125.724 14.9633 126.797L14.0707 130.475L11.3858 129.827L12.1272 126.783C12.2496 126.272 12.2856 125.825 12.2352 125.444C12.1848 125.062 12.0408 124.753 11.8033 124.508C11.5657 124.263 11.2346 124.083 10.7955 123.982C10.3564 123.875 9.97494 123.882 9.64382 123.99C9.3127 124.098 9.03197 124.314 8.80162 124.623C8.57128 124.94 8.39852 125.35 8.27615 125.854L7.86586 127.531L19.2103 130.281L18.3969 133.686ZM13.8764 124.191L21.1682 122.241L20.2684 125.955L12.991 127.834L13.8764 124.191Z" fill="white" fill-opacity="0.4"/>
<path d="M22.7668 117.158L9.16211 112.141L11.2352 106.519C11.6095 105.497 12.1206 104.691 12.754 104.079C13.3947 103.475 14.1289 103.093 14.9567 102.942C15.7845 102.791 16.6627 102.884 17.5912 103.23C18.5342 103.575 19.2612 104.079 19.7651 104.734C20.269 105.389 20.5569 106.159 20.6217 107.045C20.6865 107.93 20.5281 108.888 20.1466 109.924L18.8365 113.48L16.2452 112.523L17.3321 109.579C17.512 109.082 17.6056 108.643 17.5984 108.261C17.5912 107.88 17.4833 107.549 17.2817 107.282C17.0802 107.016 16.7634 106.8 16.3459 106.642C15.9284 106.483 15.5469 106.447 15.2014 106.512C14.8559 106.577 14.5608 106.764 14.2944 107.045C14.0281 107.326 13.805 107.722 13.625 108.211L13.0276 109.831L23.9833 113.876L22.7668 117.158ZM19.3764 107.21L26.8409 106.116L25.5165 109.701L18.0735 110.73L19.3764 107.21Z" fill="white" fill-opacity="0.4"/>
<path d="M27.3301 105.079L14.1934 98.9315L18.4763 89.7754L21.0533 90.9847L18.2532 96.9664L20.9453 98.2261L23.5295 92.7123L26.1136 93.9216L23.5295 99.4354L26.2288 100.695L29.0289 94.7134L31.6059 95.9227L27.3301 105.079Z" fill="white" fill-opacity="0.4"/>
<path d="M27.5811 82.3688C27.1061 82.1529 26.6526 82.1313 26.2135 82.304C25.7744 82.484 25.3857 82.8655 25.0474 83.4558C24.8242 83.8517 24.6875 84.2044 24.6371 84.5283C24.5867 84.8522 24.6155 85.1257 24.7163 85.3561C24.817 85.5864 24.9826 85.7736 25.2129 85.9104C25.3929 86.0255 25.5872 86.0831 25.7744 86.0831C25.9687 86.0831 26.1631 86.0327 26.3646 85.9319C26.5662 85.8312 26.7749 85.6944 26.9837 85.5073C27.1996 85.3273 27.4156 85.1113 27.6459 84.8594L28.5097 83.9164C28.9992 83.3694 29.4959 82.9231 29.9998 82.5776C30.4964 82.2321 31.0003 81.9801 31.497 81.8362C31.9937 81.6922 32.4975 81.649 32.9942 81.7138C33.4981 81.7786 34.002 81.9513 34.5058 82.2393C35.2976 82.6999 35.8663 83.2902 36.2046 84.0172C36.5429 84.7442 36.6509 85.5648 36.5285 86.479C36.4062 87.3932 36.0391 88.3793 35.4416 89.4231C34.837 90.474 34.1531 91.3018 33.3901 91.8993C32.6271 92.4967 31.7993 92.835 30.9067 92.8998C30.0141 92.9646 29.0712 92.7199 28.085 92.1656L29.755 89.2575C30.1725 89.4663 30.5756 89.5527 30.9571 89.5167C31.3386 89.4807 31.6913 89.3295 32.0297 89.0776C32.3608 88.8184 32.6559 88.4657 32.915 88.0194C33.1526 87.6091 33.2965 87.2276 33.3541 86.8749C33.4117 86.5222 33.3829 86.2127 33.2749 85.9463C33.167 85.68 32.987 85.4713 32.7351 85.3201C32.4975 85.1905 32.2528 85.1473 32.0009 85.1905C31.7489 85.2337 31.4754 85.3705 31.1803 85.5936C30.8851 85.8168 30.554 86.1335 30.1797 86.5294L29.1144 87.6667C28.2362 88.6097 27.3436 89.2359 26.4222 89.5455C25.5009 89.8478 24.5723 89.7254 23.6149 89.1783C22.8375 88.7393 22.2761 88.1346 21.9305 87.3788C21.585 86.623 21.4627 85.7736 21.5634 84.845C21.6642 83.9092 21.9881 82.9663 22.5352 82.0161C23.0967 81.0444 23.7445 80.2885 24.4859 79.7631C25.2273 79.2376 26.0119 78.9425 26.8325 78.8849C27.6531 78.8273 28.4593 79.0217 29.2439 79.4607L27.5811 82.3688Z" fill="white" fill-opacity="0.4"/>
<path d="M40.8983 67.7267C42.2012 68.6481 43.1297 69.6775 43.6768 70.822C44.2239 71.9665 44.4326 73.1254 44.303 74.3131C44.1663 75.5008 43.7272 76.6237 42.9786 77.6819C42.2228 78.7472 41.3086 79.5318 40.236 80.0501C39.1563 80.5684 37.9902 80.7555 36.7377 80.6116C35.478 80.4676 34.2039 79.9421 32.9083 79.0208C31.6054 78.0994 30.6768 77.07 30.1297 75.9255C29.5755 74.7882 29.3667 73.6221 29.5035 72.4416C29.6403 71.2539 30.0794 70.1309 30.8352 69.0728C31.5838 68.0147 32.498 67.2229 33.5705 66.7046C34.643 66.1863 35.8091 65.992 37.0688 66.1359C38.3141 66.2727 39.5954 66.8054 40.8983 67.7267ZM38.8324 70.6492C38.0622 70.1022 37.3352 69.7494 36.6513 69.5911C35.9675 69.4327 35.3413 69.4615 34.7798 69.6703C34.2183 69.879 33.736 70.2749 33.3329 70.8436C32.9298 71.4122 32.7211 71.9953 32.7067 72.5927C32.6923 73.1974 32.8723 73.7948 33.2466 74.3851C33.6209 74.9753 34.1967 75.5512 34.9669 76.0983C35.7372 76.6453 36.4642 76.9981 37.148 77.1564C37.8318 77.3148 38.4581 77.286 39.0195 77.07C39.581 76.8541 40.0633 76.4654 40.4664 75.8967C40.8695 75.3281 41.0782 74.745 41.0926 74.1404C41.107 73.5429 40.9271 72.9455 40.5456 72.348C40.1713 71.7649 39.6026 71.1963 38.8324 70.6492Z" fill="white" fill-opacity="0.4"/>
<path d="M42.6973 54.4757L44.9935 51.834L52.055 57.9669C52.8684 58.6723 53.4155 59.4857 53.6818 60.3999C53.9481 61.314 53.9481 62.257 53.6746 63.2432C53.4011 64.2221 52.8684 65.1723 52.0694 66.0937C51.2632 67.0222 50.3922 67.6917 49.4564 68.102C48.5207 68.5123 47.5849 68.649 46.6491 68.5051C45.7134 68.3683 44.8352 67.9436 44.0146 67.231L36.9531 61.0981L39.2494 58.4491L46.0805 64.3805C46.4548 64.7116 46.8651 64.9204 47.3042 65.0067C47.7433 65.1003 48.1752 65.0643 48.6071 64.9132C49.0317 64.762 49.4205 64.4813 49.766 64.0854C50.1115 63.6895 50.3274 63.272 50.4138 62.8257C50.5074 62.3794 50.4714 61.9475 50.3274 61.5228C50.1763 61.0981 49.9099 60.7238 49.5356 60.3927L42.6973 54.4757Z" fill="white" fill-opacity="0.4"/>
<path d="M57.2688 59.9899L47.2129 49.5309L51.5318 45.3776C52.3164 44.6217 53.1226 44.1179 53.9648 43.8443C54.807 43.578 55.6276 43.5564 56.441 43.7795C57.2544 44.0027 58.003 44.4706 58.6869 45.1904C59.3851 45.9174 59.817 46.6804 59.9897 47.4938C60.1625 48.3 60.0761 49.1206 59.7522 49.9412C59.4283 50.7618 58.8596 51.5608 58.0678 52.3238L55.3397 54.9512L53.425 52.9573L55.6852 50.7834C56.0667 50.4163 56.3402 50.0636 56.4986 49.7109C56.657 49.3654 56.7074 49.0199 56.6426 48.6887C56.5778 48.3576 56.3906 48.0265 56.0811 47.7026C55.7716 47.3787 55.4477 47.1771 55.1093 47.0907C54.771 47.0043 54.4255 47.0331 54.0584 47.1771C53.6985 47.3211 53.3242 47.573 52.9499 47.9329L51.7046 49.1278L59.7954 57.5426L57.2688 59.9899ZM58.5573 49.5525L65.7555 51.8272L62.9986 54.4761L55.8508 52.1511L58.5573 49.5525Z" fill="white" fill-opacity="0.4"/>
<path d="M71.104 35.6447L68.3399 37.8545C68.0735 37.6026 67.7928 37.401 67.4977 37.2643C67.2025 37.1275 66.893 37.0555 66.5763 37.0411C66.2596 37.0267 65.9356 37.0843 65.6117 37.1995C65.2878 37.3147 64.9711 37.5018 64.6616 37.7465C64.1145 38.1856 63.7474 38.6967 63.5674 39.2798C63.3875 39.8628 63.3947 40.4963 63.589 41.1729C63.7834 41.8495 64.1721 42.555 64.7479 43.2748C65.3454 44.0306 65.9572 44.5705 66.5763 44.9088C67.1953 45.2471 67.8072 45.3839 68.4046 45.3263C69.0021 45.2687 69.5707 45.024 70.1106 44.5993C70.4129 44.3617 70.6577 44.1026 70.8448 43.8219C71.032 43.5411 71.1616 43.2604 71.2335 42.9581C71.3055 42.6557 71.3127 42.3462 71.2695 42.0367C71.2263 41.7272 71.1112 41.4104 70.9384 41.1009L73.7169 38.9127C74.0696 39.4525 74.3216 40.0644 74.4655 40.741C74.6095 41.4176 74.6383 42.1303 74.5303 42.8645C74.4224 43.5987 74.1704 44.3257 73.7529 45.0455C73.3354 45.7654 72.738 46.4348 71.9606 47.0539C70.9312 47.8745 69.8371 48.3783 68.6638 48.5727C67.4905 48.767 66.3243 48.6159 65.1654 48.1264C64.0065 47.6297 62.9268 46.7659 61.9334 45.5206C60.9401 44.2753 60.3354 43.0228 60.1195 41.7776C59.9035 40.5323 60.0259 39.359 60.4722 38.2576C60.9257 37.1563 61.6527 36.2061 62.6605 35.4071C63.3443 34.8601 64.0569 34.4498 64.7911 34.1762C65.5253 33.9027 66.2596 33.7659 66.9938 33.7803C67.728 33.7947 68.4406 33.9459 69.1389 34.2554C69.8443 34.5577 70.4993 35.0184 71.104 35.6447Z" fill="white" fill-opacity="0.4"/>
<path d="M78.2947 41.9295L70.3047 29.8292L78.741 24.2578L80.3102 26.6332L74.7964 30.2755L76.4376 32.7589L81.5195 29.4045L83.0887 31.7872L78.0068 35.1415L79.648 37.6321L85.1618 33.9898L86.731 36.3652L78.2947 41.9295Z" fill="white" fill-opacity="0.4"/>
<path d="M99.2048 29.8655C98.2835 30.319 97.3261 30.5709 96.3472 30.6213C95.3682 30.6717 94.418 30.5349 93.4967 30.2254C92.5753 29.9159 91.7475 29.4336 90.9989 28.793C90.2503 28.1523 89.6528 27.3677 89.2065 26.4391C88.7602 25.5106 88.5083 24.5532 88.4651 23.5742C88.4219 22.5953 88.5515 21.6451 88.8682 20.7238C89.1849 19.8096 89.66 18.9746 90.3006 18.2332C90.9413 17.4918 91.7259 16.8943 92.6473 16.4408C93.5758 15.9873 94.5332 15.7354 95.5122 15.685C96.4911 15.6346 97.4413 15.7714 98.3555 16.0881C99.2696 16.4048 100.097 16.8871 100.846 17.5205C101.587 18.1612 102.192 18.9458 102.653 19.8672C103.113 20.7957 103.365 21.7459 103.416 22.7249C103.466 23.7038 103.329 24.654 103.02 25.5682C102.71 26.4823 102.228 27.3173 101.587 28.0659C100.918 28.8146 100.133 29.412 99.2048 29.8655Z" fill="white" fill-opacity="0.4"/>
</svg>
