<?xml version="1.0" standalone="no"?>
<!DOCTYPE svg PUBLIC "-//W3C//DTD SVG 20010904//EN"
 "http://www.w3.org/TR/2001/REC-SVG-20010904/DTD/svg10.dtd">
<svg version="1.0" xmlns="http://www.w3.org/2000/svg"
 width="120.000000pt" height="120.000000pt" viewBox="0 0 120.000000 120.000000"
 preserveAspectRatio="xMidYMid meet">
<metadata>
Created by potrace 1.14, written by Peter Selinger 2001-2017
</metadata>
<g transform="translate(0.000000,120.000000) scale(0.100000,-0.100000)"
fill="#000000" stroke="none">
<path d="M0 600 l0 -600 600 0 600 0 0 600 0 600 -600 0 -600 0 0 -600z m547
455 c76 -38 80 -45 53 -108 -12 -28 -23 -53 -25 -55 -1 -1 -21 5 -45 13 -23 8
-64 15 -91 15 l-49 0 0 41 c0 23 5 59 12 80 11 37 13 39 53 39 24 0 62 -10 92
-25z m-258 -11 l32 -7 -3 -76 -3 -76 -76 -3 -76 -3 -7 32 c-11 55 -7 107 10
123 16 17 68 21 123 10z m509 -86 c33 -20 92 -99 92 -124 0 -6 -20 -42 -45
-78 -25 -37 -45 -72 -45 -77 0 -5 -25 -9 -55 -9 -53 0 -55 1 -74 38 -40 79
-36 173 11 250 18 30 25 33 51 28 16 -3 45 -16 65 -28z m-279 -126 c42 -16 45
-20 61 -77 9 -33 22 -70 28 -82 16 -29 16 -30 -13 -37 -15 -4 -27 -16 -31 -31
-6 -26 -18 -32 -29 -16 -3 5 -37 18 -76 28 -56 14 -74 23 -84 43 -35 67 -30
165 8 180 34 14 88 11 136 -8z m543 -166 c44 -144 3 -283 -121 -407 -120 -120
-256 -162 -396 -124 -72 19 -159 69 -152 88 5 17 93 82 153 114 l51 27 6 85
c3 47 8 94 12 104 12 29 44 39 137 45 l89 5 14 33 c17 41 68 119 103 156 l26
28 28 -43 c16 -23 38 -73 50 -111z m-782 95 c0 -27 7 -68 15 -91 8 -24 14 -44
13 -45 -2 -2 -27 -13 -55 -25 -42 -18 -56 -20 -68 -10 -25 21 -65 113 -65 151
0 53 21 66 113 68 l47 1 0 -49z m205 -230 l45 -20 0 -55 c0 -31 -4 -56 -9 -56
-5 0 -40 -20 -77 -45 -36 -25 -71 -45 -76 -45 -26 0 -92 45 -117 81 -43 59
-49 97 -20 121 64 49 168 57 254 19z"/>
</g>
</svg>
