<svg width="40" height="40" viewBox="0 0 40 40" fill="none" xmlns="http://www.w3.org/2000/svg">
<rect width="40" height="40" rx="8" fill="#EEEFF0"/>
<path fill-rule="evenodd" clip-rule="evenodd" d="M15.6014 9.39648C16.7392 9.3447 17.1028 9.33203 19.9997 9.33203H19.9964C22.8942 9.33203 23.2564 9.3447 24.3942 9.39648C25.5298 9.44848 26.3053 9.62826 26.9853 9.89204C27.6876 10.1643 28.2809 10.5287 28.8742 11.1221C29.4676 11.7149 29.832 12.3101 30.1054 13.0116C30.3676 13.6899 30.5476 14.465 30.6009 15.6005C30.652 16.7383 30.6654 17.1019 30.6654 19.9988C30.6654 22.8957 30.652 23.2584 30.6009 24.3962C30.5476 25.5313 30.3676 26.3067 30.1054 26.9851C29.832 27.6864 29.4676 28.2816 28.8742 28.8745C28.2816 29.4678 27.6873 29.8331 26.986 30.1056C26.3073 30.3694 25.5313 30.5491 24.3957 30.6011C23.258 30.6529 22.8955 30.6656 19.9984 30.6656C17.1017 30.6656 16.7383 30.6529 15.6005 30.6011C14.4652 30.5491 13.6899 30.3694 13.0112 30.1056C12.3101 29.8331 11.7149 29.4678 11.1223 28.8745C10.5292 28.2816 10.1647 27.6864 9.89204 26.9849C9.62848 26.3067 9.4487 25.5315 9.39648 24.396C9.34492 23.2582 9.33203 22.8957 9.33203 19.9988C9.33203 17.1019 9.34536 16.7381 9.39625 15.6003C9.44737 14.4652 9.62737 13.6899 9.89181 13.0114C10.1652 12.3101 10.5296 11.7149 11.1229 11.1221C11.7158 10.5289 12.311 10.1645 13.0125 9.89204C13.6907 9.62826 14.4659 9.44848 15.6014 9.39648ZM19.6468 11.2526C19.4311 11.2525 19.2313 11.2524 19.0454 11.2527V11.25C17.0574 11.2522 16.6761 11.2656 15.6921 11.31C14.6521 11.3578 14.0874 11.5311 13.7114 11.6778C13.2136 11.8716 12.8581 12.1027 12.4847 12.476C12.1114 12.8493 11.8798 13.2049 11.6865 13.7027C11.5405 14.0787 11.3667 14.6431 11.3191 15.6832C11.268 16.8076 11.2578 17.1436 11.2578 19.9921C11.2578 22.8406 11.268 23.1783 11.3191 24.3028C11.3665 25.3428 11.5405 25.9073 11.6865 26.2828C11.8803 26.7808 12.1114 27.1355 12.4847 27.5088C12.8581 27.8822 13.2136 28.1133 13.7114 28.3066C14.0876 28.4526 14.6521 28.6264 15.6921 28.6744C16.8165 28.7255 17.1541 28.7366 20.0023 28.7366C22.8504 28.7366 23.1882 28.7255 24.3126 28.6744C25.3526 28.6268 25.9175 28.4535 26.2931 28.3068C26.7911 28.1135 27.1455 27.8824 27.5189 27.5091C27.8922 27.1359 28.1238 26.7815 28.3171 26.2837C28.4631 25.9082 28.6369 25.3437 28.6844 24.3037C28.7355 23.1792 28.7467 22.8415 28.7467 19.9948C28.7467 17.1481 28.7355 16.8103 28.6844 15.6858C28.6371 14.6458 28.4631 14.0814 28.3171 13.7058C28.1233 13.208 27.8922 12.8525 27.5189 12.4791C27.1458 12.1058 26.7909 11.8747 26.2931 11.6813C25.9171 11.5353 25.3526 11.3616 24.3126 11.314C23.1879 11.2629 22.8504 11.2527 20.0023 11.2527C19.8793 11.2527 19.7608 11.2526 19.6468 11.2526Z" fill="#212F4E"/>
<path fill-rule="evenodd" clip-rule="evenodd" d="M25.696 13.0258C24.9894 13.0258 24.416 13.5985 24.416 14.3054C24.416 15.0121 24.9894 15.5854 25.696 15.5854C26.4027 15.5854 26.976 15.0121 26.976 14.3054C26.976 13.5987 26.4027 13.0254 25.696 13.0254V13.0258Z" fill="#212F4E"/>
<path fill-rule="evenodd" clip-rule="evenodd" d="M14.5234 19.9993C14.5234 16.9742 16.9761 14.5215 20.0013 14.5215H20.0011C23.0262 14.5215 25.4782 16.9742 25.4782 19.9993C25.4782 23.0245 23.0264 25.476 20.0013 25.476C16.9761 25.476 14.5234 23.0245 14.5234 19.9993ZM23.5565 20.0009C23.5565 18.0371 21.9645 16.4453 20.0009 16.4453C18.0371 16.4453 16.4453 18.0371 16.4453 20.0009C16.4453 21.9645 18.0371 23.5565 20.0009 23.5565C21.9645 23.5565 23.5565 21.9645 23.5565 20.0009Z" fill="#212F4E"/>
</svg>
