<svg width="17" height="24" viewBox="0 0 17 24" fill="none" stroke="none" xmlns="http://www.w3.org/2000/svg">
<path d="M4.63281 17.7831C5.37789 18.7102 6.13377 19.8718 6.53114 20.5752C7.0149 21.4894 7.21359 22.1068 7.57425 23.2081C7.78589 23.8147 7.98458 23.9997 8.40571 23.9997C8.86571 23.9997 9.0752 23.69 9.23717 23.2081C9.57192 22.1691 9.83324 21.3797 10.2414 20.6247C11.047 19.1791 12.0663 17.8928 13.0576 16.6581C13.3297 16.3118 15.0682 14.2725 15.85 12.6549C15.85 12.6549 16.8046 10.8867 16.8046 8.41516C16.8046 6.1049 15.8608 4.49805 15.8608 4.49805L13.131 5.22726L11.4681 9.57674L11.0578 10.1704L10.9714 10.2823L10.8591 10.4178L10.6733 10.6394L10.4012 10.9104L8.92402 12.1086L5.23967 14.2338L4.63281 17.7831Z" fill="#34A853"/>
<path d="M0.820312 12.3578C1.7252 14.4099 3.45076 16.2018 4.62992 17.7828L10.8713 10.4175C10.8713 10.4175 9.99016 11.5662 8.40282 11.5662C6.62759 11.5662 5.18927 10.1573 5.18927 8.37831C5.18927 7.15435 5.92139 6.31543 5.92139 6.31543L1.68849 7.44044L0.820312 12.3578Z" fill="#FBBC04"/>
<path d="M10.9474 0.382812C13.0185 1.04965 14.7937 2.4457 15.8606 4.51073L10.8718 10.4305C10.8718 10.4305 11.6039 9.57867 11.6039 8.36761C11.6039 6.54995 10.0662 5.17971 8.40331 5.17971C6.82677 5.17971 5.92188 6.31763 5.92188 6.31763V2.58336L10.9474 0.382812Z" fill="#4285F4"/>
<path d="M1.95312 2.99C3.19276 1.51866 5.36536 0 8.36727 0C9.81855 0 10.9221 0.382892 10.9221 0.382892L5.91175 6.31556H2.36346L1.95312 2.99Z" fill="#1A73E8"/>
<path d="M0.818506 12.358C0.818506 12.358 0 10.7382 0 8.40428C0 6.19298 0.868177 4.26346 1.97175 3.00293L5.93038 6.32634L0.818506 12.358Z" fill="#EA4335"/>
</svg>
