<svg width="34" height="34" viewBox="0 0 34 34" xmlns="http://www.w3.org/2000/svg">
<path d="M0 17C0 7.61116 7.61116 0 17 0C26.3888 0 34 7.61116 34 17C34 26.3888 26.3888 34 17 34C7.61116 34 0 26.3888 0 17Z" fill="#EEEFF0"/>
<path d="M22.9508 15.1134C22.9508 19.0234 17.0008 22.1004 17.0008 22.1004C17.0008 22.1004 11.0508 19.0233 11.0508 15.1134C11.0508 11.2034 15.5133 10.9729 17.0008 13.8196C18.4883 10.9729 22.9508 11.2034 22.9508 15.1134Z"/>
<path d="M17.0008 22.1004L16.4495 23.1663C16.7953 23.3451 17.2063 23.3451 17.552 23.1663L17.0008 22.1004ZM17.0008 13.8196L15.9372 14.3754C16.1442 14.7714 16.554 15.0196 17.0008 15.0196C17.4476 15.0196 17.8574 14.7714 18.0643 14.3754L17.0008 13.8196ZM21.7508 15.1134C21.7508 16.4912 20.6575 17.925 19.2009 19.1569C18.5127 19.7389 17.8184 20.2126 17.2932 20.5417C17.0319 20.7054 16.8156 20.8315 16.6669 20.9154C16.5926 20.9573 16.5354 20.9885 16.4982 21.0086C16.4796 21.0186 16.466 21.0258 16.4578 21.0302C16.4536 21.0323 16.4509 21.0338 16.4495 21.0345C16.4488 21.0349 16.4485 21.0351 16.4485 21.0351C16.4485 21.035 16.4486 21.035 16.4487 21.0349C16.4488 21.0349 16.449 21.0348 16.4491 21.0347C16.4493 21.0346 16.4496 21.0345 17.0008 22.1004C17.552 23.1663 17.5523 23.1661 17.5526 23.166C17.5528 23.1659 17.5531 23.1657 17.5534 23.1656C17.5539 23.1653 17.5545 23.165 17.5553 23.1646C17.5567 23.1638 17.5585 23.1629 17.5607 23.1618C17.565 23.1595 17.5708 23.1565 17.5779 23.1527C17.5922 23.1452 17.612 23.1346 17.637 23.1212C17.6869 23.0943 17.7576 23.0556 17.846 23.0057C18.0227 22.906 18.2712 22.7611 18.5677 22.5753C19.1582 22.2053 19.9514 21.6653 20.7507 20.9894C22.2691 19.7052 24.1508 17.6455 24.1508 15.1134H21.7508ZM17.0008 22.1004C17.552 21.0345 17.5523 21.0346 17.5525 21.0347C17.5525 21.0348 17.5527 21.0349 17.5528 21.0349C17.553 21.035 17.5531 21.0351 17.5531 21.0351C17.5531 21.0351 17.5528 21.0349 17.5521 21.0345C17.5507 21.0338 17.5479 21.0323 17.5438 21.0302C17.5356 21.0258 17.522 21.0186 17.5034 21.0086C17.4661 20.9885 17.409 20.9573 17.3347 20.9154C17.186 20.8315 16.9696 20.7054 16.7083 20.5417C16.1832 20.2126 15.4889 19.7389 14.8007 19.1569C13.3441 17.925 12.2508 16.4912 12.2508 15.1134H9.85078C9.85078 17.6455 11.7325 19.7052 13.2509 20.9894C14.0501 21.6653 14.8434 22.2053 15.4339 22.5753C15.7304 22.7611 15.9788 22.906 16.1555 23.0057C16.244 23.0556 16.3146 23.0943 16.3646 23.1212C16.3895 23.1346 16.4093 23.1452 16.4236 23.1527C16.4308 23.1565 16.4365 23.1595 16.4409 23.1618C16.443 23.1629 16.4448 23.1638 16.4463 23.1646C16.447 23.165 16.4477 23.1653 16.4482 23.1656C16.4485 23.1657 16.4488 23.1659 16.4489 23.166C16.4493 23.1661 16.4495 23.1663 17.0008 22.1004ZM12.2508 15.1134C12.2508 14.3698 12.459 13.909 12.691 13.6321C12.9255 13.3523 13.2534 13.1769 13.6418 13.1201C14.4452 13.0025 15.4328 13.4101 15.9372 14.3754L18.0643 13.2639C17.0812 11.3824 15.0938 10.4819 13.2942 10.7454C12.381 10.8791 11.5002 11.3165 10.8515 12.0906C10.2004 12.8677 9.85078 13.9019 9.85078 15.1134H12.2508ZM18.0643 14.3754C18.5687 13.4101 19.5563 13.0025 20.3598 13.1201C20.7482 13.1769 21.076 13.3523 21.3105 13.6321C21.5425 13.909 21.7508 14.3698 21.7508 15.1134H24.1508C24.1508 13.9019 23.8012 12.8677 23.15 12.0906C22.5013 11.3165 21.6206 10.8791 20.7074 10.7454C18.9077 10.482 16.9203 11.3824 15.9372 13.2639L18.0643 14.3754Z"/>
</svg>
