<svg width="16" height="16" viewBox="0 0 16 16" fill="none" xmlns="http://www.w3.org/2000/svg">
<path d="M4.8705 14.255C4.8705 14.9481 4.30968 15.51 3.61787 15.51C2.92606 15.51 2.36523 14.9481 2.36523 14.255C2.36523 13.5619 2.92606 13 3.61787 13C4.30968 13 4.8705 13.5619 4.8705 14.255Z" fill="#FAFAFA"/>
<path d="M12.3861 14.255C12.3861 14.9481 11.8253 15.51 11.1335 15.51C10.4417 15.51 9.88086 14.9481 9.88086 14.255C9.88086 13.5619 10.4417 13 11.1335 13C11.8253 13 12.3861 13.5619 12.3861 14.255Z" fill="#FAFAFA"/>
<path d="M2.05078 2.05078L4.55604 10.5507L11.4334 9.21739C12.8971 8.93359 13.9508 7.6877 13.9508 6.24064V3.8722H2.58762" stroke="#FAFAFA" stroke-width="2.4" stroke-linecap="round"/>
</svg>
