<svg width="25" height="35" viewBox="0 0 25 35" xmlns="http://www.w3.org/2000/svg">
<path fill-rule="evenodd" clip-rule="evenodd" d="M13.1254 34.4403C15.6557 32.1067 25 22.7919 25 12.5C25 5.59644 19.4036 0 12.5 0C5.59644 0 0 5.59644 0 12.5C0 22.7919 9.3443 32.1067 11.8746 34.4403C12.2342 34.7719 12.7658 34.7719 13.1254 34.4403ZM12.498 20C16.6402 20 19.998 16.6421 19.998 12.5C19.998 8.35786 16.6402 5 12.498 5C8.35591 5 4.99805 8.35786 4.99805 12.5C4.99805 16.6421 8.35591 20 12.498 20Z" />
</svg>
