<svg width="16" height="14" viewBox="0 0 16 14" xmlns="http://www.w3.org/2000/svg">
<path d="M8.00078 12.1004L7.44955 13.1663C7.79529 13.3451 8.20627 13.3451 8.55201 13.1663L8.00078 12.1004ZM8.00078 3.81962L6.93723 4.37536C7.14416 4.77137 7.55397 5.01962 8.00078 5.01962C8.4476 5.01962 8.85741 4.77137 9.06434 4.37536L8.00078 3.81962ZM12.7508 5.11337C12.7508 6.49119 11.6575 7.92501 10.2009 9.15686C9.51265 9.73891 8.8184 10.2126 8.29325 10.5417C8.03192 10.7054 7.81557 10.8315 7.66687 10.9154C7.5926 10.9573 7.53542 10.9885 7.4982 11.0086C7.47959 11.0186 7.466 11.0258 7.45776 11.0302C7.45365 11.0323 7.45088 11.0338 7.44949 11.0345C7.4488 11.0349 7.44846 11.0351 7.44846 11.0351C7.44847 11.035 7.44856 11.035 7.44874 11.0349C7.44883 11.0349 7.44903 11.0348 7.44908 11.0347C7.4493 11.0346 7.44955 11.0345 8.00078 12.1004C8.55201 13.1663 8.5523 13.1661 8.55262 13.166C8.55276 13.1659 8.55309 13.1657 8.55337 13.1656C8.55391 13.1653 8.55454 13.165 8.55527 13.1646C8.55672 13.1638 8.55853 13.1629 8.5607 13.1618C8.56503 13.1595 8.57079 13.1565 8.57794 13.1527C8.59222 13.1452 8.61203 13.1346 8.63701 13.1212C8.68694 13.0943 8.7576 13.0556 8.84602 13.0057C9.02271 12.906 9.2712 12.7611 9.56769 12.5753C10.1582 12.2053 10.9514 11.6653 11.7507 10.9894C13.2691 9.70522 15.1508 7.64553 15.1508 5.11337H12.7508ZM8.00078 12.1004C8.55201 11.0345 8.55226 11.0346 8.55249 11.0347C8.55253 11.0348 8.55274 11.0349 8.55283 11.0349C8.55301 11.035 8.5531 11.0351 8.5531 11.0351C8.55311 11.0351 8.55277 11.0349 8.55207 11.0345C8.55069 11.0338 8.54792 11.0323 8.5438 11.0302C8.53557 11.0258 8.52197 11.0186 8.50337 11.0086C8.46615 10.9885 8.40897 10.9573 8.33469 10.9154C8.186 10.8315 7.96964 10.7054 7.70832 10.5417C7.18317 10.2126 6.48891 9.73891 5.80068 9.15686C4.3441 7.92499 3.25078 6.49117 3.25078 5.11335H0.850781C0.850781 7.64551 2.73246 9.70521 4.25088 10.9894C5.05015 11.6653 5.8434 12.2053 6.43387 12.5753C6.73036 12.7611 6.97885 12.906 7.15554 13.0057C7.24396 13.0556 7.31462 13.0943 7.36455 13.1212C7.38953 13.1346 7.40934 13.1452 7.42362 13.1527C7.43077 13.1565 7.43653 13.1595 7.44087 13.1618C7.44303 13.1629 7.44484 13.1638 7.44629 13.1646C7.44702 13.165 7.44765 13.1653 7.44819 13.1656C7.44847 13.1657 7.44881 13.1659 7.44894 13.166C7.44926 13.1661 7.44955 13.1663 8.00078 12.1004ZM3.25078 5.11335C3.25078 4.36983 3.45902 3.90899 3.69104 3.63213C3.92554 3.35229 4.25339 3.17693 4.64177 3.12008C5.44523 3.00247 6.43285 3.41011 6.93723 4.37536L9.06434 3.26387C8.08122 1.38243 6.09384 0.481949 4.29416 0.745387C3.38098 0.879059 2.50024 1.31652 1.85154 2.09061C1.20036 2.86768 0.850781 3.90189 0.850781 5.11335H3.25078ZM9.06434 4.37536C9.56872 3.41011 10.5563 3.00247 11.3598 3.12009C11.7482 3.17694 12.076 3.3523 12.3105 3.63214C12.5425 3.90901 12.7508 4.36984 12.7508 5.11337H15.1508C15.1508 3.90191 14.8012 2.86769 14.15 2.09063C13.5013 1.31653 12.6206 0.879068 11.7074 0.745394C9.90773 0.481951 7.92035 1.38243 6.93723 3.26387L9.06434 4.37536Z"/>
</svg>
