<svg width="40" height="40" viewBox="0 0 40 40" xmlns="http://www.w3.org/2000/svg">
<rect width="40" height="40" rx="8"/>
<path fill-rule="evenodd" clip-rule="evenodd" d="M20.0034 11.334C17.6497 11.334 17.3543 11.3443 16.4298 11.3863C15.5072 11.4286 14.8774 11.5747 14.3263 11.789C13.7563 12.0103 13.2728 12.3065 12.791 12.7884C12.309 13.2701 12.0128 13.7536 11.7908 14.3234C11.5759 14.8747 11.4296 15.5046 11.3881 16.4269C11.3468 17.3514 11.3359 17.6469 11.3359 20.0007C11.3359 22.3544 11.3464 22.6489 11.3883 23.5733C11.4307 24.4959 11.5768 25.1257 11.7909 25.6768C12.0125 26.2468 12.3086 26.7303 12.7905 27.212C13.2721 27.6941 13.7556 27.991 14.3252 28.2123C14.8767 28.4266 15.5066 28.5727 16.4291 28.615C17.3536 28.657 17.6488 28.6673 20.0023 28.6673C22.3563 28.6673 22.6507 28.657 23.5752 28.615C24.4979 28.5727 25.1284 28.4266 25.6798 28.2123C26.2496 27.991 26.7324 27.6941 27.214 27.212C27.6961 26.7303 27.9922 26.2468 28.2143 25.677C28.4273 25.1257 28.5736 24.4958 28.6169 23.5735C28.6584 22.649 28.6693 22.3544 28.6693 20.0007C28.6693 17.6469 28.6584 17.3515 28.6169 16.4271C28.5736 15.5045 28.4273 14.8747 28.2143 14.3236C27.9922 13.7536 27.6961 13.2701 27.214 12.7884C26.7319 12.3063 26.2498 12.0102 25.6792 11.789C25.1267 11.5747 24.4966 11.4286 23.5739 11.3863C22.6495 11.3443 22.3552 11.334 20.0007 11.334H20.0034ZM19.2259 12.8967C19.4566 12.8963 19.7141 12.8967 20.0034 12.8967C22.3174 12.8967 22.5917 12.905 23.5055 12.9465C24.3505 12.9852 24.8091 13.1264 25.1146 13.245C25.519 13.4021 25.8074 13.5899 26.1105 13.8932C26.4139 14.1965 26.6017 14.4854 26.7591 14.8899C26.8777 15.195 27.0191 15.6536 27.0576 16.4986C27.0991 17.4122 27.1081 17.6867 27.1081 19.9996C27.1081 22.3125 27.0991 22.5869 27.0576 23.5005C27.0189 24.3455 26.8777 24.8042 26.7591 25.1093C26.602 25.5137 26.4139 25.8017 26.1105 26.1049C25.8072 26.4082 25.5192 26.596 25.1146 26.7531C24.8095 26.8722 24.3505 27.0131 23.5055 27.0517C22.5918 27.0932 22.3174 27.1023 20.0034 27.1023C17.6892 27.1023 17.4149 27.0932 16.5013 27.0517C15.6563 27.0127 15.1977 26.8715 14.892 26.7529C14.4875 26.5958 14.1986 26.408 13.8953 26.1047C13.592 25.8014 13.4042 25.5132 13.2467 25.1086C13.1281 24.8034 12.9867 24.3448 12.9483 23.4998C12.9067 22.5862 12.8984 22.3118 12.8984 19.9974C12.8984 17.683 12.9067 17.41 12.9483 16.4964C12.9869 15.6514 13.1281 15.1928 13.2467 14.8873C13.4038 14.4829 13.592 14.194 13.8953 13.8907C14.1986 13.5873 14.4875 13.3995 14.892 13.2421C15.1975 13.1229 15.6563 12.9821 16.5013 12.9433C17.3008 12.9072 17.6106 12.8963 19.2259 12.8945V12.8967ZM24.6299 14.3324C24.0557 14.3324 23.5898 14.7977 23.5898 15.372C23.5898 15.9462 24.0557 16.412 24.6299 16.412C25.204 16.412 25.6699 15.9462 25.6699 15.372C25.6699 14.7979 25.204 14.332 24.6299 14.332V14.3324ZM20.0015 15.5508C17.5436 15.5508 15.5508 17.5436 15.5508 20.0015C15.5508 22.4594 17.5436 24.4513 20.0015 24.4513C22.4594 24.4513 24.4515 22.4594 24.4515 20.0015C24.4515 17.5436 22.4593 15.5508 20.0013 15.5508H20.0015ZM20.0022 17.1113C21.5976 17.1113 22.8911 18.4046 22.8911 20.0002C22.8911 21.5956 21.5976 22.8891 20.0022 22.8891C18.4066 22.8891 17.1133 21.5956 17.1133 20.0002C17.1133 18.4046 18.4066 17.1113 20.0022 17.1113V17.1113Z" fill="white"/>
</svg>
