<svg width="40" height="40" viewBox="0 0 40 40" fill="none" xmlns="http://www.w3.org/2000/svg">
<rect width="40" height="40" rx="8" fill="#EEEFF0"/>
<path fill-rule="evenodd" clip-rule="evenodd" d="M20.4796 25.5738C20.4796 25.5738 20.7924 25.5399 20.9527 25.3723C21.0993 25.2188 21.0942 24.929 21.0942 24.929C21.0942 24.929 21.0747 23.5759 21.7199 23.3761C22.3557 23.1796 23.1721 24.6846 24.0386 25.2633C24.693 25.7009 25.1898 25.6051 25.1898 25.6051L27.5051 25.5738C27.5051 25.5738 28.7157 25.5011 28.1418 24.574C28.0943 24.498 27.8069 23.8879 26.4208 22.6347C24.9686 21.3229 25.1636 21.5351 26.9117 19.2656C27.9765 17.8836 28.4021 17.0399 28.269 16.6791C28.1426 16.334 27.3593 16.4256 27.3593 16.4256L24.7532 16.4413C24.7532 16.4413 24.5599 16.4157 24.4167 16.4991C24.2768 16.5808 24.1861 16.7716 24.1861 16.7716C24.1861 16.7716 23.7741 17.8407 23.2239 18.7504C22.0633 20.6691 21.5995 20.7706 21.4096 20.6517C20.9679 20.3735 21.0781 19.5356 21.0781 18.9403C21.0781 17.0803 21.3681 16.3051 20.5144 16.1045C20.2312 16.0376 20.0227 15.9939 19.2978 15.9864C18.3678 15.9774 17.5811 15.9897 17.1351 16.2019C16.8384 16.3431 16.6095 16.6585 16.7494 16.6766C16.9215 16.6989 17.3115 16.779 17.5183 17.0531C17.7854 17.4072 17.7761 18.2014 17.7761 18.2014C17.7761 18.2014 17.9295 20.3908 17.4175 20.6625C17.0665 20.849 16.5849 20.4684 15.5498 18.7273C15.0199 17.8357 14.6198 16.85 14.6198 16.85C14.6198 16.85 14.5426 16.6659 14.4045 16.5668C14.2375 16.4471 14.0043 16.41 14.0043 16.41L11.528 16.4256C11.528 16.4256 11.1558 16.4355 11.0193 16.5932C10.8981 16.7328 11.01 17.0225 11.01 17.0225C11.01 17.0225 12.9488 21.4401 15.1446 23.6667C17.158 25.7075 19.4436 25.5738 19.4436 25.5738H20.4796Z" fill="#212F4E"/>
</svg>
