<svg width="28" height="28" viewBox="0 0 28 28" fill="none" xmlns="http://www.w3.org/2000/svg">
<path d="M7.75 24H20.25" stroke-width="2" stroke-linecap="round" stroke-linejoin="round"/>
<path d="M7.125 7.75L14 6.5L20.875 7.75" stroke-width="2" stroke-linecap="round" stroke-linejoin="round"/>
<path d="M14 4V24" stroke-width="2" stroke-linecap="round" stroke-linejoin="round"/>
<path d="M10.25 14.4167L7.125 7.75L4 14.4167C4 15.3007 4.32924 16.1486 4.91529 16.7737C5.50134 17.3988 6.2962 17.75 7.125 17.75C7.9538 17.75 8.74866 17.3988 9.33471 16.7737C9.92076 16.1486 10.25 15.3007 10.25 14.4167Z" stroke-width="2" stroke-linecap="round" stroke-linejoin="round"/>
<path d="M24 14.4167L20.875 7.75L17.75 14.4167C17.75 15.3007 18.0792 16.1486 18.6653 16.7737C19.2513 17.3988 20.0462 17.75 20.875 17.75C21.7038 17.75 22.4987 17.3988 23.0847 16.7737C23.6708 16.1486 24 15.3007 24 14.4167Z" stroke-width="2" stroke-linecap="round" stroke-linejoin="round"/>
</svg>
