<svg width="28" height="28" viewBox="0 0 28 28" fill="none" xmlns="http://www.w3.org/2000/svg">
<path d="M14 24.5C19.799 24.5 24.5 19.799 24.5 14C24.5 8.20101 19.799 3.5 14 3.5C8.20101 3.5 3.5 8.20101 3.5 14C3.5 19.799 8.20101 24.5 14 24.5Z" stroke-width="2" stroke-linecap="round" stroke-linejoin="round"/>
<path d="M14 15.168C15.933 15.168 17.5 13.601 17.5 11.668C17.5 9.73497 15.933 8.16797 14 8.16797C12.067 8.16797 10.5 9.73497 10.5 11.668C10.5 13.601 12.067 15.168 14 15.168Z" stroke-width="2" stroke-linecap="round" stroke-linejoin="round"/>
<path d="M7.19531 21.9918C7.48407 21.0307 8.07494 20.1883 8.88027 19.5896C9.68559 18.9909 10.6625 18.6677 11.666 18.668H16.3326C17.3374 18.6676 18.3155 18.9916 19.1214 19.5917C19.9273 20.1918 20.518 21.036 20.8056 21.9988" stroke-width="2" stroke-linecap="round" stroke-linejoin="round"/>
</svg>
