<svg width="40" height="40" viewBox="0 0 40 40" xmlns="http://www.w3.org/2000/svg">
<rect width="40" height="40" rx="8"/>
<path fill-rule="evenodd" clip-rule="evenodd" d="M26.7745 14.3737C27.5203 14.5794 28.1077 15.1853 28.307 15.9548C28.6693 17.3494 28.6693 20.2593 28.6693 20.2593C28.6693 20.2593 28.6693 23.169 28.307 24.5637C28.1077 25.3332 27.5203 25.9391 26.7745 26.1449C25.4229 26.5185 20.0026 26.5185 20.0026 26.5185C20.0026 26.5185 14.5823 26.5185 13.2306 26.1449C12.4848 25.9391 11.8974 25.3332 11.6981 24.5637C11.3359 23.169 11.3359 20.2593 11.3359 20.2593C11.3359 20.2593 11.3359 17.3494 11.6981 15.9548C11.8974 15.1853 12.4848 14.5794 13.2306 14.3737C14.5823 14 20.0026 14 20.0026 14C20.0026 14 25.4229 14 26.7745 14.3737ZM18.3766 17.8102V23.253L22.7099 20.5317L18.3766 17.8102Z" fill="white"/>
</svg>
