<svg width="28" height="28" viewBox="0 0 28 28" xmlns="http://www.w3.org/2000/svg">
<path d="M12.7208 5.42192C13.1234 4.19269 14.8766 4.19269 15.2792 5.42192L16.7178 9.81388C16.8979 10.3636 17.4143 10.7358 17.997 10.7358H22.6524C23.9554 10.7358 24.4971 12.3897 23.443 13.1494L19.6767 15.8638C19.2053 16.2035 19.008 16.8058 19.1881 17.3555L20.6267 21.7474C21.0293 22.9767 19.611 23.9988 18.5569 23.2391L14.7906 20.5248C14.3192 20.185 13.6808 20.185 13.2094 20.5248L9.44311 23.2391C8.389 23.9988 6.97069 22.9767 7.37333 21.7474L8.81193 17.3555C8.99199 16.8058 8.79473 16.2035 8.32332 15.8638L4.55702 13.1494C3.5029 12.3897 4.04465 10.7358 5.3476 10.7358H10.003C10.5857 10.7358 11.1021 10.3636 11.2822 9.81388L12.7208 5.42192Z" stroke-width="2" fill="none"/>
</svg>
