<svg width="20" height="20" viewBox="0 0 20 20" xmlns="http://www.w3.org/2000/svg">
<path d="M6.81972 15.503C6.81972 16.1962 6.25889 16.758 5.56708 16.758C4.87528 16.758 4.31445 16.1962 4.31445 15.503C4.31445 14.8099 4.87528 14.248 5.56708 14.248C6.25889 14.248 6.81972 14.8099 6.81972 15.503Z" stroke="none"/>
<path d="M14.3353 15.503C14.3353 16.1962 13.7745 16.758 13.0827 16.758C12.3909 16.758 11.8301 16.1962 11.8301 15.503C11.8301 14.8099 12.3909 14.248 13.0827 14.248C13.7745 14.248 14.3353 14.8099 14.3353 15.503Z" stroke="none"/>
<path d="M4 3.29883L6.50526 11.7988L13.3826 10.4654C14.8464 10.1816 15.9 8.93575 15.9 7.48869V5.12025H4.53684" stroke-width="2" stroke-linecap="round" fill="none"/>
</svg>
