<svg width="40" height="40" viewBox="0 0 40 40" fill="none" xmlns="http://www.w3.org/2000/svg">
<path d="M23 5V11.6667C23 12.1087 23.1756 12.5326 23.4882 12.8452C23.8007 13.1577 24.2246 13.3333 24.6667 13.3333H31.3333" stroke-width="2" stroke-linecap="round" stroke-linejoin="round"/>
<path d="M28 35H11.3333C10.4493 35 9.60143 34.6488 8.97631 34.0237C8.35119 33.3986 8 32.5507 8 31.6667V8.33333C8 7.44928 8.35119 6.60143 8.97631 5.97631C9.60143 5.35119 10.4493 5 11.3333 5H23L31.3333 13.3333V31.6667C31.3333 32.5507 30.9821 33.3986 30.357 34.0237C29.7319 34.6488 28.8841 35 28 35Z" stroke-width="2" stroke-linecap="round" stroke-linejoin="round"/>
</svg>
