<svg width="28" height="28" viewBox="0 0 28 28" fill="none" xmlns="http://www.w3.org/2000/svg">
<path d="M19.8333 19.8333H22.1667C22.7855 19.8333 23.379 19.5875 23.8166 19.1499C24.2542 18.7123 24.5 18.1188 24.5 17.5V12.8333C24.5 12.2145 24.2542 11.621 23.8166 11.1834C23.379 10.7458 22.7855 10.5 22.1667 10.5H5.83333C5.21449 10.5 4.621 10.7458 4.18342 11.1834C3.74583 11.621 3.5 12.2145 3.5 12.8333V17.5C3.5 18.1188 3.74583 18.7123 4.18342 19.1499C4.621 19.5875 5.21449 19.8333 5.83333 19.8333H8.16667" stroke-width="2" stroke-linecap="round" stroke-linejoin="round"/>
<path d="M19.8346 10.5V5.83333C19.8346 5.21449 19.5888 4.621 19.1512 4.18342C18.7136 3.74583 18.1201 3.5 17.5013 3.5H10.5013C9.88246 3.5 9.28897 3.74583 8.85139 4.18342C8.4138 4.621 8.16797 5.21449 8.16797 5.83333V10.5" stroke-width="2" stroke-linecap="round" stroke-linejoin="round"/>
<path d="M17.5013 15.168H10.5013C9.21264 15.168 8.16797 16.2126 8.16797 17.5013V22.168C8.16797 23.4566 9.21264 24.5013 10.5013 24.5013H17.5013C18.79 24.5013 19.8346 23.4566 19.8346 22.168V17.5013C19.8346 16.2126 18.79 15.168 17.5013 15.168Z" stroke-width="2" stroke-linecap="round" stroke-linejoin="round"/>
</svg>
