<svg width="28" height="28" viewBox="0 0 28 28" xmlns="http://www.w3.org/2000/svg">
<path d="M10 22C10 22.8284 9.32843 23.5 8.5 23.5C7.67157 23.5 7 22.8284 7 22C7 21.1716 7.67157 20.5 8.5 20.5C9.32843 20.5 10 21.1716 10 22Z" stroke="none"/>
<path d="M20 22C20 22.8284 19.3284 23.5 18.5 23.5C17.6716 23.5 17 22.8284 17 22C17 21.1716 17.6716 20.5 18.5 20.5C19.3284 20.5 20 21.1716 20 22Z" stroke="none"/>
<path d="M5.25 4.5L8.93421 17L19.0479 15.0392C21.2005 14.6218 22.75 12.7896 22.75 10.6616V7.17857H6.03947" stroke-width="2" stroke-linecap="round" fill="none"/>
</svg>
