<svg width="20" height="20" viewBox="0 0 20 20" fill="none" xmlns="http://www.w3.org/2000/svg">
<path d="M3.33398 5.83398H16.6673"  strokeWidth="2" strokeLinecap="round" strokeLinejoin="round"/>
<path d="M8.33398 9.16602V14.166"  strokeWidth="2" strokeLinecap="round" strokeLinejoin="round"/>
<path d="M11.666 9.16602V14.166"  strokeWidth="2" strokeLinecap="round" strokeLinejoin="round"/>
<path d="M4.16602 5.83398L4.99935 15.834C4.99935 16.276 5.17494 16.6999 5.4875 17.0125C5.80007 17.3251 6.22399 17.5007 6.66602 17.5007H13.3327C13.7747 17.5007 14.1986 17.3251 14.5112 17.0125C14.8238 16.6999 14.9994 16.276 14.9994 15.834L15.8327 5.83398"  strokeWidth="2" strokeLinecap="round" strokeLinejoin="round"/>
<path d="M7.5 5.83333V3.33333C7.5 3.11232 7.5878 2.90036 7.74408 2.74408C7.90036 2.5878 8.11232 2.5 8.33333 2.5H11.6667C11.8877 2.5 12.0996 2.5878 12.2559 2.74408C12.4122 2.90036 12.5 3.11232 12.5 3.33333V5.83333" strokeWidth="2" strokeLinecap="round" strokeLinejoin="round"/>
</svg>
