<svg width="40" height="40" viewBox="0 0 40 40" xmlns="http://www.w3.org/2000/svg">
<rect width="40" height="40" rx="8"/>
<path fill-rule="evenodd" clip-rule="evenodd" d="M20.4777 25.5738C20.4777 25.5738 20.7905 25.5399 20.9507 25.3723C21.0974 25.2188 21.0923 24.929 21.0923 24.929C21.0923 24.929 21.0728 23.5759 21.7179 23.3761C22.3538 23.1796 23.1702 24.6846 24.0366 25.2633C24.6911 25.7009 25.1879 25.6051 25.1879 25.6051L27.5032 25.5738C27.5032 25.5738 28.7138 25.5011 28.1398 24.574C28.0924 24.498 27.805 23.8879 26.4189 22.6347C24.9666 21.3229 25.1616 21.5351 26.9097 19.2656C27.9745 17.8836 28.4001 17.0399 28.267 16.6791C28.1407 16.334 27.3573 16.4256 27.3573 16.4256L24.7513 16.4413C24.7513 16.4413 24.558 16.4157 24.4147 16.4991C24.2748 16.5808 24.1841 16.7716 24.1841 16.7716C24.1841 16.7716 23.7721 17.8407 23.2219 18.7504C22.0613 20.6691 21.5976 20.7706 21.4077 20.6517C20.966 20.3735 21.0762 19.5356 21.0762 18.9403C21.0762 17.0803 21.3661 16.3051 20.5124 16.1045C20.2293 16.0376 20.0207 15.9939 19.2959 15.9864C18.3659 15.9774 17.5791 15.9897 17.1332 16.2019C16.8365 16.3431 16.6076 16.6585 16.7475 16.6766C16.9195 16.6989 17.3095 16.779 17.5164 17.0531C17.7834 17.4072 17.7741 18.2014 17.7741 18.2014C17.7741 18.2014 17.9276 20.3908 17.4155 20.6625C17.0645 20.849 16.583 20.4684 15.5479 18.7273C15.018 17.8357 14.6178 16.85 14.6178 16.85C14.6178 16.85 14.5407 16.6659 14.4025 16.5668C14.2355 16.4471 14.0024 16.41 14.0024 16.41L11.526 16.4256C11.526 16.4256 11.1538 16.4355 11.0173 16.5932C10.8961 16.7328 11.008 17.0225 11.008 17.0225C11.008 17.0225 12.9469 21.4401 15.1426 23.6667C17.1561 25.7075 19.4417 25.5738 19.4417 25.5738H20.4777Z" fill="white"/>
</svg>
