<svg width="28" height="28" viewBox="0 0 28 28" fill="none" xmlns="http://www.w3.org/2000/svg">
<path d="M21 7V7.01167" stroke="currentColor" stroke-width="1.5" stroke-linecap="round" stroke-linejoin="round"/>
<path d="M20.9987 15.1655L16.9154 9.33216C16.5223 8.6217 16.3214 7.82097 16.3325 7.00909C16.3436 6.1972 16.5663 5.40227 16.9787 4.70283C17.3911 4.00338 17.9788 3.42364 18.6838 3.02087C19.3888 2.6181 20.1867 2.40625 20.9987 2.40625C21.8107 2.40625 22.6086 2.6181 23.3136 3.02087C24.0186 3.42364 24.6063 4.00338 25.0187 4.70283C25.4311 5.40227 25.6538 6.1972 25.6649 7.00909C25.676 7.82097 25.4751 8.6217 25.082 9.33216L20.9987 15.1655Z" stroke="currentColor" stroke-width="1.5" stroke-linecap="round" stroke-linejoin="round"/>
<path d="M12.25 5.54297L10.5 4.66797L3.5 8.16797V23.3346L10.5 19.8346L17.5 23.3346L24.5 19.8346V17.5013" stroke="currentColor" stroke-width="1.5" stroke-linecap="round" stroke-linejoin="round"/>
<path d="M10.5 4.66797V19.8346" stroke="currentColor" stroke-width="1.5" stroke-linecap="round" stroke-linejoin="round"/>
<path d="M17.5 17.5V23.3333" stroke="currentColor" stroke-width="1.5" stroke-linecap="round" stroke-linejoin="round"/>
</svg>
