<svg width="16" height="16" viewBox="0 0 16 16" xmlns="http://www.w3.org/2000/svg">
<path d="M2.05078 0.850781C1.38804 0.850781 0.850781 1.38804 0.850781 2.05078C0.850781 2.71352 1.38804 3.25078 2.05078 3.25078V0.850781ZM13.9508 3.25078C14.6135 3.25078 15.1508 2.71352 15.1508 2.05078C15.1508 1.38804 14.6135 0.850781 13.9508 0.850781V3.25078ZM2.05078 3.25078H13.9508V0.850781H2.05078V3.25078Z"/>
<path d="M2.05078 5.95039C1.38804 5.95039 0.850781 6.48765 0.850781 7.15039C0.850781 7.81313 1.38804 8.35039 2.05078 8.35039V5.95039ZM13.9508 8.35039C14.6135 8.35039 15.1508 7.81313 15.1508 7.15039C15.1508 6.48765 14.6135 5.95039 13.9508 5.95039V8.35039ZM2.05078 8.35039H13.9508V5.95039H2.05078V8.35039Z"/>
<path d="M2.05078 11.05C1.38804 11.05 0.850781 11.5873 0.850781 12.25C0.850781 12.9127 1.38804 13.45 2.05078 13.45V11.05ZM7.15078 13.45C7.81352 13.45 8.35078 12.9127 8.35078 12.25C8.35078 11.5873 7.81352 11.05 7.15078 11.05V13.45ZM2.05078 13.45H7.15078V11.05H2.05078V13.45Z"/>
<path d="M10.5508 11.05C9.88804 11.05 9.35078 11.5873 9.35078 12.25C9.35078 12.9127 9.88804 13.45 10.5508 13.45V11.05ZM13.9508 13.45C14.6135 13.45 15.1508 12.9127 15.1508 12.25C15.1508 11.5873 14.6135 11.05 13.9508 11.05V13.45ZM10.5508 13.45H13.9508V11.05H10.5508V13.45Z"/>
<path d="M13.45 10.5508C13.45 9.88804 12.9127 9.35078 12.25 9.35078C11.5873 9.35078 11.05 9.88804 11.05 10.5508L13.45 10.5508ZM11.05 13.9508C11.05 14.6135 11.5873 15.1508 12.25 15.1508C12.9127 15.1508 13.45 14.6135 13.45 13.9508L11.05 13.9508ZM11.05 10.5508L11.05 13.9508L13.45 13.9508L13.45 10.5508L11.05 10.5508Z"/>
</svg>
