<svg width="40" height="40" viewBox="0 0 40 40" stroke="none" xmlns="http://www.w3.org/2000/svg">
<path d="M17 27.5C17 28.3284 16.3284 29 15.5 29C14.6716 29 14 28.3284 14 27.5C14 26.6716 14.6716 26 15.5 26C16.3284 26 17 26.6716 17 27.5Z"/>
<path d="M26 27.5C26 28.3284 25.3284 29 24.5 29C23.6716 29 23 28.3284 23 27.5C23 26.6716 23.6716 26 24.5 26C25.3284 26 26 26.6716 26 27.5Z"/>
<path d="M13.4751 11.7784L13.2535 10.8032L11.3032 11.2465L11.5249 12.2216L13.4751 11.7784ZM15 23L14.0249 23.2216L14.2018 24H15V23ZM28 14H29L28 13V14ZM28 17L28.8944 17.4472L29 17.2361V17H28ZM25 23V24H25.618L25.8944 23.4472L25 23ZM27 14V17H29V14H27ZM25 22H15V24H25V22ZM27.1056 16.5528L24.1056 22.5528L25.8944 23.4472L28.8944 17.4472L27.1056 16.5528ZM11.5249 12.2216L11.9794 14.2216L13.9297 13.7784L13.4751 11.7784L11.5249 12.2216ZM11.9794 14.2216L14.0249 23.2216L15.9751 22.7784L13.9297 13.7784L11.9794 14.2216ZM12.9545 15H28V13H12.9545V15Z"/>
</svg>
