<svg width="80" height="16" viewBox="0 0 80 16" xmlns="http://www.w3.org/2000/svg">
<path fill-rule="evenodd" clip-rule="evenodd" d="M6.55361 13.2927L6.53124 13.2483L0 9.14286L2.3262 7.45631L4.24978 0L6.57597 1.68655L14.3374 1.19834L13.4427 3.90569L16.3057 11.0735H13.4204L13.398 11.0957L7.42593 16L6.55361 13.2927ZM6.55554 13.2251V13.2694L11.0737 11.0503L11.9237 11.0725H13.3999H13.4223L13.3328 10.4068L12.7065 6.12382L13.4446 3.92687H13.4223L13.3552 3.90468L8.47912 3.0614L6.5779 1.68553V1.70773L5.99635 2.77291L4.22934 6.10162L2.41759 7.41092L2.32812 7.47749L5.83978 11.0503L6.55554 13.2251Z" />
<path fill-rule="evenodd" clip-rule="evenodd" d="M23.4375 13.3657V11.8275C24.1273 12.2712 24.817 12.4783 25.5068 12.4783C26.2279 12.4783 26.7923 12.3008 27.1998 11.9754C27.6388 11.65 27.8582 11.1767 27.8582 10.6146C27.8582 10.0526 27.6388 9.63844 27.1998 9.31304C26.7609 8.98765 26.1338 8.83974 25.3187 8.83974C25.0365 8.83974 24.5035 8.86932 23.751 8.92848V3.78129H29.1124V5.14204H25.256V7.59731C25.5695 7.56773 25.8517 7.56773 26.1338 7.56773C27.2312 7.56773 28.0777 7.83396 28.7048 8.36643C29.3005 8.8989 29.614 9.63844 29.614 10.5555C29.614 11.5317 29.2691 12.3008 28.5794 12.8924C27.8896 13.484 26.949 13.7799 25.7263 13.7799C24.723 13.7799 23.9705 13.632 23.4689 13.3657H23.4375ZM43.4406 3.78129L40.2113 10.585C39.6156 11.8275 39.0199 12.6558 38.4869 13.0995C37.9225 13.5432 37.3268 13.7799 36.6684 13.7799C36.1354 13.7799 35.6965 13.7207 35.3516 13.5728V12.005C35.7592 12.2416 36.1667 12.3599 36.5743 12.3599C36.9192 12.3599 37.2327 12.2416 37.5149 12.005C37.7971 11.7683 38.1106 11.3246 38.4555 10.7034L34.9753 3.81087H36.9506L39.0826 8.45518C39.1139 8.54392 39.208 8.78057 39.3334 9.16513C39.3334 9.10597 39.4274 8.86932 39.6156 8.45518L41.6535 3.81087H43.472L43.4406 3.78129ZM50.4323 5.23079H46.3878V13.632H44.6634V3.81087H50.4323V5.23079ZM59.117 13.632V3.81087H53.4422C53.1286 6.14782 52.8151 8.01145 52.5643 9.37221C52.2821 10.733 52.0313 11.5908 51.7805 11.9162C51.5296 12.2416 51.2475 12.3895 50.9653 12.3895C50.6831 12.3895 50.4323 12.3304 50.1815 12.212V13.6024C50.495 13.7207 50.8712 13.7503 51.2788 13.7503C51.7805 13.7503 52.2194 13.632 52.5643 13.3953C52.9092 13.1586 53.1913 12.8332 53.4108 12.3599C53.6303 11.8866 53.8184 11.1767 54.0379 10.2005C54.226 9.2243 54.5082 7.53815 54.8844 5.17162H57.424V13.5728H59.1484L59.117 13.632ZM66.0146 13.7503C64.5097 13.7503 63.3183 13.3066 62.4091 12.3599C61.4998 11.4429 61.0609 10.2597 61.0609 8.78057C61.0609 7.21275 61.5312 5.94074 62.4404 4.99413C63.3497 4.04752 64.6038 3.57422 66.1714 3.57422C67.645 3.57422 68.805 4.01794 69.7143 4.93497C70.5922 5.852 71.0625 7.03526 71.0625 8.51434C71.0625 10.1117 70.5922 11.3838 69.6829 12.3008C68.7737 13.2178 67.5509 13.7503 66.0146 13.7503ZM66.1087 4.99413C65.1681 4.99413 64.3843 5.31953 63.7886 5.99991C63.1929 6.68028 62.8794 7.56773 62.8794 8.66225C62.8794 9.75677 63.1615 10.6442 63.7572 11.295C64.3216 11.9754 65.1054 12.3008 66.046 12.3008C67.0493 12.3008 67.8331 11.9754 68.3975 11.3542C68.9618 10.733 69.2753 9.84551 69.2753 8.69183C69.2753 7.50857 68.9932 6.62112 68.4288 5.97033C67.8645 5.31953 67.112 5.02372 66.1087 5.02372V4.99413ZM72.975 13.5728V3.75171H76.267C77.2703 3.75171 78.0541 3.95878 78.6498 4.37292C79.2455 4.78706 79.5277 5.31953 79.5277 5.99991C79.5277 6.56196 79.3709 7.03526 79.0261 7.4494C78.6812 7.86355 78.2422 8.15936 77.6465 8.33685V8.36643C78.3677 8.45518 78.932 8.69183 79.371 9.10597C79.8099 9.52011 79.998 10.0822 79.998 10.7625C79.998 11.5908 79.6531 12.2712 78.9634 12.8037C78.2736 13.3361 77.3644 13.5728 76.2984 13.5728H72.975ZM74.6994 5.0533V7.83396H75.8281C76.4238 7.83396 76.8941 7.68606 77.239 7.41982C77.5838 7.15359 77.7406 6.76903 77.7406 6.29572C77.7406 5.46744 77.1449 5.02372 75.9535 5.02372H74.6994V5.0533ZM74.6994 9.13555V12.2416H76.173C76.8 12.2416 77.3017 12.0937 77.6779 11.8275C78.0228 11.5612 78.2109 11.1471 78.2109 10.6738C78.2109 9.66802 77.4584 9.13555 75.9848 9.13555H74.7307H74.6994Z" />
</svg>
