<svg width="40" height="40" viewBox="0 0 40 40" fill="none" xmlns="http://www.w3.org/2000/svg">
<rect width="40" height="40" rx="8" fill="#EEEFF0"/>
<path fill-rule="evenodd" clip-rule="evenodd" d="M20.6586 31.1278H20.6537C18.6633 31.1271 16.7075 30.6277 14.9705 29.6802L8.66602 31.334L10.3532 25.1714C9.31246 23.3678 8.76483 21.3219 8.76572 19.2259C8.76833 12.6687 14.1034 7.33398 20.6585 7.33398C23.8399 7.33536 26.8259 8.57387 29.0712 10.8218C31.3165 13.0697 32.5524 16.0576 32.5511 19.2352C32.5485 25.7909 27.2156 31.1251 20.6586 31.1278Z" fill="#212F4E"/>
<path fill-rule="evenodd" clip-rule="evenodd" d="M15.2623 27.5263L15.6233 27.7406C17.1409 28.6412 18.8806 29.1177 20.6543 29.1184H20.6584C26.1065 29.1184 30.5407 24.684 30.5429 19.2337C30.5439 16.5924 29.5168 14.109 27.6505 12.2406C25.7843 10.3722 23.3024 9.34271 20.6622 9.3418C15.2099 9.3418 10.7756 13.7757 10.7734 19.2257C10.7727 21.0934 11.2953 22.9124 12.2847 24.4861L12.5198 24.8601L11.5212 28.5077L15.2623 27.5263Z" fill="#EEEFF0"/>
<path fill-rule="evenodd" clip-rule="evenodd" d="M26.6496 22.0619C26.5754 21.9379 26.3773 21.8636 26.0801 21.7148C25.783 21.5661 24.322 20.8473 24.0496 20.748C23.7773 20.6489 23.5791 20.5993 23.381 20.8967C23.1829 21.1942 22.6135 21.8636 22.4401 22.0619C22.2668 22.2602 22.0934 22.2851 21.7964 22.1363C21.4992 21.9875 20.5417 21.6738 19.4067 20.6614C18.5233 19.8734 17.9269 18.9003 17.7536 18.6028C17.5802 18.3053 17.7351 18.1446 17.8839 17.9964C18.0175 17.8632 18.181 17.6492 18.3296 17.4758C18.4782 17.3023 18.5277 17.1783 18.6267 16.9801C18.7258 16.7817 18.6763 16.6082 18.602 16.4595C18.5277 16.3107 17.9334 14.848 17.6858 14.253C17.4446 13.6736 17.1996 13.7521 17.0172 13.7429C16.8441 13.7343 16.6458 13.7324 16.4477 13.7324C16.2496 13.7324 15.9276 13.8068 15.6553 14.1043C15.3829 14.4018 14.6152 15.1207 14.6152 16.5833C14.6152 18.0459 15.68 19.459 15.8286 19.6572C15.9772 19.8557 17.924 22.857 20.9049 24.1442C21.6139 24.4504 22.1673 24.6332 22.5989 24.7701C23.3108 24.9964 23.9586 24.9644 24.4705 24.8879C25.0415 24.8026 26.2287 24.1691 26.4764 23.475C26.7239 22.7808 26.7239 22.1858 26.6496 22.0619Z" fill="#212F4E"/>
</svg>
