<svg width="34" height="34" viewBox="0 0 34 34" fill="none" xmlns="http://www.w3.org/2000/svg">
<path d="M5.66797 9.91602H28.3346" stroke-width="2" stroke-linecap="round" stroke-linejoin="round"/>
<path d="M14.168 15.584V24.084" stroke-width="2" stroke-linecap="round" stroke-linejoin="round"/>
<path d="M19.832 15.582V24.082" stroke-width="2" stroke-linecap="round" stroke-linejoin="round"/>
<path d="M7.08203 9.91797L8.4987 26.918C8.4987 27.6694 8.79721 28.3901 9.32856 28.9214C9.85992 29.4528 10.5806 29.7513 11.332 29.7513H22.6654C23.4168 29.7513 24.1375 29.4528 24.6688 28.9214C25.2002 28.3901 25.4987 27.6694 25.4987 26.918L26.9154 9.91797" stroke-width="2" stroke-linecap="round" stroke-linejoin="round"/>
<path d="M12.75 9.91667V5.66667C12.75 5.29094 12.8993 4.93061 13.1649 4.66493C13.4306 4.39926 13.7909 4.25 14.1667 4.25H19.8333C20.2091 4.25 20.5694 4.39926 20.8351 4.66493C21.1007 4.93061 21.25 5.29094 21.25 5.66667V9.91667" stroke-width="2" stroke-linecap="round" stroke-linejoin="round"/>
</svg>
