<svg width="284" height="125" viewBox="0 0 284 125" fill="none" xmlns="http://www.w3.org/2000/svg">
<path d="M76.5416 65.48V78.92H66.5816V95H51.2216V78.92H6.70156V50.96C16.8616 48.32 25.0616 43.52 31.3016 36.56C37.6216 29.6 41.2616 20.88 42.2216 10.4H57.5816C56.5416 23.68 52.1016 34.92 44.2616 44.12C36.5016 53.24 25.3416 59.96 10.7816 64.28V68.36L20.7416 65.48H51.2216V41.96H66.5816V65.48H76.5416Z" fill="#CEDDF0"/>
<path d="M278.542 65.48V78.92H268.582V95H253.222V78.92H208.702V50.96C218.862 48.32 227.062 43.52 233.302 36.56C239.622 29.6 243.262 20.88 244.222 10.4H259.582C258.542 23.68 254.102 34.92 246.262 44.12C238.502 53.24 227.342 59.96 212.782 64.28V68.36L222.742 65.48H253.222V41.96H268.582V65.48H278.542Z" fill="#F8B814"/>
<circle cx="142" cy="50" r="50" fill="#A1C39B"/>
<path d="M133.5 63.1304C133.5 63.9588 134.172 64.6304 135 64.6304C135.828 64.6304 136.5 63.9588 136.5 63.1304H133.5ZM149.849 61.6309L151.319 61.3325L151.319 61.3325L149.849 61.6309ZM148.499 63.1304C148.499 63.9588 149.171 64.6304 149.999 64.6304C150.827 64.6304 151.499 63.9588 151.499 63.1304H148.499ZM136.5 63.1304C136.5 59.8169 139.186 57.1309 142.5 57.1309V54.1309C137.529 54.1309 133.5 58.1601 133.5 63.1304H136.5ZM142.5 57.1309C145.4 57.1309 147.823 59.1912 148.379 61.9292L151.319 61.3325C150.485 57.2239 146.855 54.1309 142.5 54.1309V57.1309ZM148.379 61.9292C148.458 62.3161 148.499 62.7176 148.499 63.1304H151.499C151.499 62.5161 151.437 61.9147 151.319 61.3325L148.379 61.9292Z" fill="#212F4E"/>
<rect width="20" height="20" transform="translate(119 34)" fill="#A1C39B"/>
<path d="M124 39L134 49.0005" stroke="#212F4E" stroke-width="3" stroke-linecap="round"/>
<path d="M124 49L134 38.9995" stroke="#212F4E" stroke-width="3" stroke-linecap="round"/>
<rect width="20" height="20" transform="translate(144 34)" fill="#A1C39B"/>
<path d="M149 39L159 49.0005" stroke="#212F4E" stroke-width="3" stroke-linecap="round"/>
<path d="M149 49L159 38.9995" stroke="#212F4E" stroke-width="3" stroke-linecap="round"/>
</svg>
