<svg width="40" height="40" viewBox="0 0 40 40" fill="none" xmlns="http://www.w3.org/2000/svg">
<rect width="40" height="40" fill="#7F4DA0"/>
<path fill-rule="evenodd" clip-rule="evenodd" d="M25.7881 17.8741C25.6977 17.1397 25.472 16.5631 25.0712 16.0524C24.5507 15.3947 23.8855 15.0009 22.9007 14.7672C22.259 14.6115 21.9997 14.6294 21.7676 14.8414C21.5514 15.0401 21.5091 15.4383 21.6744 15.6962C21.7906 15.8833 21.9246 15.9504 22.2974 16.0236C22.7939 16.1149 23.137 16.2335 23.4491 16.4119C24.1115 16.7944 24.42 17.393 24.453 18.362C24.4685 18.817 24.5078 18.9569 24.6667 19.1182C24.9612 19.4132 25.4854 19.3558 25.7078 19.0028C25.7894 18.8698 25.8018 18.8119 25.8104 18.5029C25.8161 18.3117 25.8079 18.027 25.7881 17.8741Z" fill="white"/>
<path fill-rule="evenodd" clip-rule="evenodd" d="M28.3815 18.7001C28.2507 16.4502 27.3707 14.6401 25.7958 13.3665C24.9084 12.6509 23.8358 12.1588 22.6601 11.9195C22.2294 11.8339 21.4365 11.7645 21.3005 11.8042C21.1721 11.841 20.9905 11.98 20.9096 12.1056C20.824 12.242 20.8047 12.5463 20.8777 12.7223C20.9956 13.0166 21.2148 13.1206 21.8286 13.1743C22.775 13.2571 23.7511 13.5896 24.4887 14.0818C25.3307 14.6423 26 15.4088 26.433 16.3096C26.8072 17.0836 27.0373 18.1989 27.0309 19.1977C27.0288 19.5589 27.0845 19.7629 27.2298 19.9121C27.4491 20.1414 27.7687 20.1916 28.0508 20.0392C28.3635 19.8748 28.4366 19.5862 28.3815 18.7001Z" fill="white"/>
<path fill-rule="evenodd" clip-rule="evenodd" d="M31.2541 27.3683C31.2101 27.2397 31.1074 27.0414 31.034 26.9275C30.5718 26.2295 28.0886 24.2862 26.8488 23.6506C26.1409 23.287 25.6163 23.1658 25.2275 23.2796C24.8094 23.3972 24.5893 23.5919 23.8887 24.4625C23.6063 24.8115 23.3165 25.1385 23.2395 25.1899C23.0487 25.3221 22.6746 25.4287 22.4105 25.4287C21.7979 25.425 20.6865 25.0283 19.8319 24.5066C19.1679 24.1025 18.317 23.3789 17.6641 22.6625C16.8938 21.8212 16.3693 21.0792 15.9548 20.2416C15.4193 19.1653 15.2835 18.5077 15.5073 18.0264C15.5623 17.9052 15.6357 17.7766 15.6686 17.7362C15.7017 17.6995 16.0465 17.4166 16.4279 17.108C17.1762 16.5129 17.2973 16.377 17.4366 15.9692C17.6127 15.4512 17.565 14.9222 17.2936 14.3896C17.0845 13.9855 16.538 13.1038 16.1418 12.5344C15.6173 11.7851 14.3115 10.1834 14.051 9.96658C13.5815 9.58456 12.98 9.5184 12.3161 9.7756C11.6155 10.0475 10.3023 11.1054 9.74111 11.8438C9.23492 12.5124 9.04058 12.9863 9.01121 13.6108C8.98555 14.1251 9.02955 14.3381 9.30099 14.9957C11.4248 20.1534 14.5939 24.2715 18.9479 27.541C21.222 29.2492 23.5806 30.5497 26.0271 31.4387C27.454 31.9566 28.0739 31.9823 28.8038 31.5562C29.1119 31.3725 29.8749 30.5901 30.3004 30.0207C31.0046 29.0729 31.2651 28.6357 31.3384 28.2867C31.3898 28.048 31.3494 27.6329 31.2541 27.3683Z" fill="white"/>
<path fill-rule="evenodd" clip-rule="evenodd" d="M31.0268 19.2158C30.9798 17.9432 30.7656 16.8993 30.3188 15.7354C29.8776 14.5906 29.4312 13.8435 28.5881 12.8331C27.791 11.8857 27.1718 11.3447 26.1899 10.7426C24.8199 9.90362 23.1527 9.34843 21.2842 9.11493C20.647 9.03333 20.5029 9.03916 20.3074 9.1696C19.9286 9.41669 19.9336 10.033 20.3136 10.2764C20.4394 10.3538 20.5511 10.382 21.0607 10.4487C21.8432 10.5541 22.3463 10.6534 22.9433 10.8162C25.2842 11.4562 27.0845 12.7642 28.288 14.706C29.2952 16.3244 29.7133 17.943 29.6539 20.0102C29.6332 20.709 29.6482 20.832 29.7551 20.9999C29.9597 21.3129 30.4992 21.3748 30.7759 21.1151C30.9482 20.9569 30.9806 20.838 31.0145 20.2399C31.0308 19.9279 31.0343 19.4672 31.0268 19.2158Z" fill="white"/>
</svg>
