<svg width="15" height="15" viewBox="0 0 15 15" fill="none" xmlns="http://www.w3.org/2000/svg">
<circle cx="7.5" cy="7.5" r="7.5" fill="#E45945"/>
<path d="M8.18892 3.72656L8.07173 8.86151H6.92827L6.81463 3.72656H8.18892ZM7.5 11.0774C7.28456 11.0774 7.09991 11.0017 6.94602 10.8501C6.79451 10.6986 6.71875 10.514 6.71875 10.2962C6.71875 10.0831 6.79451 9.9008 6.94602 9.74929C7.09991 9.59777 7.28456 9.52202 7.5 9.52202C7.7107 9.52202 7.89299 9.59777 8.04688 9.74929C8.20312 9.9008 8.28125 10.0831 8.28125 10.2962C8.28125 10.4406 8.24455 10.572 8.17116 10.6903C8.10014 10.8087 8.00545 10.9034 7.88707 10.9744C7.77107 11.0431 7.64205 11.0774 7.5 11.0774Z" fill="white"/>
</svg>
