<svg width="180" height="37" viewBox="0 0 180 37" fill="none" xmlns="http://www.w3.org/2000/svg">
<path d="M52.346 18.4918C52.731 18.817 53.0403 19.2174 53.2751 19.69C53.5081 20.1626 53.6237 20.6717 53.6237 21.2135V23.1439C53.6237 23.6559 53.5236 24.1333 53.3222 24.5749C53.1213 25.0171 52.8484 25.4043 52.5039 25.7379C52.1565 26.0721 51.7554 26.3352 51.2966 26.5292C50.8389 26.7231 50.3449 26.8198 49.8139 26.8198L44.9922 26.7965C45.1358 26.6259 45.2639 26.4319 45.3772 26.2153C45.4725 26.0446 45.5625 25.8394 45.6435 25.5989C45.7228 25.3584 45.7633 24.0056 45.7633 24.9657V13.0496C45.7633 11.6055 45.7228 11.3966 45.6435 11.1955C45.5625 10.9944 45.4725 10.8077 45.3772 10.637C45.2645 10.4657 45.1364 10.2963 44.9922 10.125H49.6458C50.1762 10.125 50.6702 10.2223 51.1285 10.4162C51.588 10.6107 51.9885 10.8697 52.3347 11.1955C52.6809 11.5208 52.9527 11.9051 53.1541 12.3472C53.3561 12.7894 53.4556 13.2662 53.4556 13.7776V15.8865C53.4556 16.3829 53.3561 16.8561 53.1541 17.3055C52.9521 17.7554 52.6827 18.1505 52.346 18.4918ZM48.1971 17.1426H49.6452C50.0153 17.1426 50.3252 17.0185 50.5725 16.7708C50.8228 16.5226 50.9468 16.2278 50.9468 15.8871V13.7782C50.9468 13.4381 50.8228 13.1469 50.5725 12.9058C50.3252 12.6659 50.0153 12.5453 49.6452 12.5453H48.1971V17.1426ZM51.1166 21.2129C51.1166 20.8728 50.9926 20.5816 50.7424 20.3405C50.4933 20.1012 50.184 19.98 49.8133 19.98H48.1971V24.4H49.8133C50.1834 24.4 50.4933 24.2801 50.7424 24.0396C50.9926 23.7991 51.1166 23.5008 51.1166 23.1433V21.2129Z" fill="white"/>
<path d="M63.222 24.3188C63.4157 24.2341 63.576 24.1523 63.7042 24.0748C63.8657 23.9817 64.0015 23.8737 64.1148 23.7496L63.6326 26.8203H56.1328C56.2609 26.6348 56.3819 26.4486 56.4945 26.2618C56.5911 26.0911 56.6793 25.9103 56.7597 25.7152C56.839 25.5218 56.8789 24.8278 56.8789 25.2545V12.1717C56.8789 11.4043 56.839 11.2414 56.7597 11.0708C56.6787 10.9001 56.5911 10.7455 56.4945 10.6059C56.3819 10.4346 56.2603 10.2723 56.1328 10.1172H63.5844L64.0677 13.188C63.9223 13.0639 63.7691 12.9547 63.6088 12.8628C63.4634 12.7852 63.3031 12.7076 63.1255 12.6294C62.9491 12.5525 62.7489 12.4981 62.5224 12.4665H62.4515H59.3157V17.136H61.6547H61.6804C61.855 17.136 62.0248 17.1008 62.1851 17.0309C62.3466 16.9611 62.4908 16.88 62.6208 16.7869C62.765 16.6783 62.9008 16.5535 63.0302 16.4151V20.2067C62.9336 20.0826 62.8198 19.9663 62.6929 19.8577C62.579 19.7646 62.4396 19.6798 62.2703 19.6017C62.1023 19.5241 61.9044 19.4859 61.681 19.4859H59.3163V24.4716H62.5975C62.8192 24.4543 63.0296 24.4048 63.222 24.3188Z" fill="white"/>
<path d="M73.6646 24.3188C73.8571 24.2341 74.0174 24.1523 74.1468 24.0748C74.3071 23.9817 74.4441 23.8737 74.5573 23.7496L74.074 26.8203H66.5742C66.7023 26.6348 66.8233 26.4486 66.9359 26.2618C67.0331 26.0911 67.1207 25.9103 67.2011 25.7152C67.2816 25.5218 67.3221 24.8565 67.3221 25.2832V12.1717C67.3221 11.4043 67.2816 11.2414 67.2011 11.0708C67.1201 10.9001 67.0331 10.7455 66.9359 10.6059C66.8233 10.4346 66.7023 10.2723 66.5742 10.1172H74.027L74.5091 13.188C74.3637 13.0639 74.2105 12.9547 74.0502 12.8628C73.906 12.7852 73.7445 12.7076 73.5681 12.6294C73.3905 12.5525 73.1897 12.4981 72.965 12.4665H72.8935H69.7577V17.136H72.0955H72.1212C72.2976 17.136 72.4668 17.1008 72.6277 17.0309C72.7886 16.9611 72.9328 16.88 73.0615 16.7869C73.2058 16.6783 73.3434 16.5535 73.4704 16.4151V20.2067C73.375 20.0826 73.2606 19.9663 73.1331 19.8577C73.021 19.7646 72.8798 19.6798 72.7117 19.6017C72.5425 19.5241 72.3458 19.4859 72.1212 19.4859H69.7577V24.4716H73.0377C73.2618 24.4543 73.471 24.4048 73.6646 24.3188Z" fill="white"/>
<path d="M85.0679 25.3535C85.0679 25.5403 85.1055 25.7223 85.1788 25.9007C85.2497 26.0786 85.3349 26.2373 85.432 26.3775C85.5441 26.5482 85.671 26.6956 85.817 26.8191H81.8618C81.9911 26.6645 82.1109 26.5016 82.2235 26.3304C82.3201 26.1752 82.4077 26.0052 82.4899 25.819C82.5692 25.6328 82.6097 25.4472 82.6097 25.2604V25.2378V25.2604V21.205C82.6097 20.8482 82.484 20.5534 82.2355 20.3213C81.9864 20.088 81.6848 19.9722 81.3308 19.9722H79.8112V25.2378C79.8112 25.4395 79.8476 25.6292 79.9203 25.8076C79.993 25.9861 80.0782 26.1526 80.1735 26.3077C80.2856 26.479 80.4143 26.6484 80.5585 26.8191H76.6289C76.757 26.6335 76.878 26.4473 76.9907 26.2606C77.0878 26.0899 77.1754 25.9121 77.2558 25.7259C77.3351 25.5397 77.3768 25.3613 77.3768 23.9655V22.8544C77.3768 23.8784 77.3351 11.4246 77.2558 11.2306C77.1748 11.0361 77.0878 10.8619 76.9907 10.7073C76.878 10.536 76.7564 10.3654 76.6289 10.1953H81.428C81.9584 10.1953 82.4524 10.2926 82.9113 10.4859C83.3701 10.6805 83.7706 10.9442 84.1162 11.2778C84.4625 11.6108 84.7354 11.9986 84.9362 12.4402C85.1377 12.8824 85.2378 14.5855 85.2378 15.0969V15.7157C85.2378 16.2897 85.1085 16.8244 84.8516 17.3215C84.5942 17.8174 84.2408 18.2363 83.7914 18.577C84.1776 18.9034 84.4869 19.2985 84.7199 19.7639C84.9529 20.2294 85.0685 20.733 85.0685 21.276V25.3535H85.0679ZM81.428 17.0637C81.7969 17.0637 82.1067 16.9438 82.357 16.7027C82.6055 16.4616 82.7313 16.1698 82.7313 15.8273V15.0999C82.7313 14.7424 82.6055 13.2166 82.357 12.9755C82.1067 12.735 81.7974 12.6145 81.428 12.6145H79.8118V17.0643H81.428V17.0637Z" fill="white"/>
<path d="M102.757 25.3541C102.757 25.5409 102.795 25.7229 102.866 25.9013C102.939 26.0792 103.024 26.2379 103.12 26.3781C103.232 26.5488 103.36 26.6962 103.505 26.8197H99.5499C99.678 26.6651 99.799 26.5022 99.9122 26.331C100.009 26.1758 100.098 26.0058 100.177 25.8196C100.258 25.6334 100.297 25.4478 100.297 25.261V25.2384V25.261V21.2056C100.297 20.8488 100.173 20.554 99.9241 20.3219C99.6739 20.0885 99.3735 19.9728 99.0195 19.9728H97.4999V25.2384C97.4999 25.44 97.5362 25.6298 97.6095 25.8082C97.6816 25.9867 97.7657 26.1531 97.8622 26.3083C97.9743 26.4796 98.103 26.649 98.249 26.8197H94.3164C94.4457 26.6341 94.5655 26.4479 94.6781 26.2612C94.7765 26.0905 94.8641 25.9127 94.9445 25.7265C95.0238 25.5403 95.0643 25.3619 95.0643 23.9661V11.8238C95.0643 12.8478 95.0238 11.4252 94.9445 11.2306C94.8635 11.0361 94.7765 10.8619 94.6781 10.7073C94.5655 10.536 94.4451 10.3654 94.3164 10.1953H99.1173C99.6476 10.1953 100.143 10.2926 100.599 10.4859C101.058 10.6805 101.458 10.9442 101.806 11.2778C102.15 11.6108 102.423 11.9986 102.625 12.4402C102.826 12.8824 102.926 13.3598 102.926 13.8712V15.7157C102.926 16.2897 102.797 16.8244 102.54 17.3215C102.283 17.8174 101.929 18.2363 101.48 18.577C101.866 18.9034 102.176 19.2985 102.409 19.7639C102.642 20.2294 102.758 20.733 102.758 21.276V25.3541H102.757ZM99.1173 17.0643C99.4855 17.0643 99.7954 16.9444 100.045 16.7033C100.295 16.4622 100.419 16.1704 100.419 15.8279V13.8742C100.419 13.5161 100.295 13.2166 100.045 12.9755C99.7954 12.735 99.4855 12.6145 99.1173 12.6145H97.5005V17.0643H99.1173V17.0643Z" fill="white"/>
<path d="M112.788 24.3182C112.979 24.2335 113.141 24.1517 113.272 24.0741C113.431 23.981 113.566 23.873 113.68 23.7489L113.198 26.8197H105.699C105.827 26.6341 105.947 26.4479 106.061 26.2612C106.156 26.0905 106.244 25.9097 106.324 25.7145C106.405 25.5212 106.445 24.718 106.445 25.1453V12.2499C106.445 11.4819 106.405 11.3196 106.324 11.1483C106.243 10.9776 106.156 10.8231 106.061 10.6828C105.947 10.5122 105.827 10.3499 105.699 10.1953H113.151L113.632 13.2661C113.487 13.1432 113.334 13.0328 113.173 12.9409C113.029 12.8633 112.868 12.7857 112.691 12.7082C112.514 12.63 112.315 12.5763 112.088 12.5452H112.016H108.88V17.1353H111.221H111.245C111.421 17.1353 111.591 17.1001 111.751 17.0303C111.912 16.9605 112.057 16.8793 112.185 16.7862C112.329 16.6776 112.467 16.5529 112.594 16.4145V20.2061C112.497 20.082 112.386 19.9656 112.256 19.857C112.144 19.7639 112.004 19.6792 111.834 19.601C111.666 19.5234 111.468 19.4853 111.245 19.4853H108.88V24.471H112.161C112.386 24.4537 112.595 24.4041 112.788 24.3182Z" fill="white"/>
<path d="M125.063 15.8476H121.075C121.217 15.7234 121.344 15.5844 121.454 15.4293C121.549 15.3051 121.635 15.1661 121.714 15.0109C121.792 14.8558 121.833 14.7006 121.833 14.5455V14.3128C121.833 13.7077 121.692 13.2583 121.41 12.9636C121.128 12.6688 120.779 12.5214 120.361 12.5214C119.927 12.5214 119.569 12.6688 119.288 12.9636C119.006 13.2583 118.864 13.7083 118.864 14.3128C118.864 15.295 119.715 16.205 120.111 16.7325C120.508 17.26 121.174 17.8747 121.642 18.4165C122.109 18.9601 124.243 20.8178 124.243 22.633C124.243 25.4866 122.92 26.9134 120.276 26.9134C119.599 26.9134 119.006 26.8436 118.497 26.7039C117.991 26.5643 117.566 26.331 117.229 26.0058C116.891 25.6799 116.635 25.2419 116.468 24.6911C116.297 24.141 116.213 23.4553 116.213 22.6324V22.167C116.213 22.013 116.172 21.8573 116.093 21.7021C116.012 21.547 115.924 21.4073 115.828 21.2832C115.714 21.1281 115.587 20.9884 115.441 20.8649H119.453C119.311 21.0039 119.18 21.1519 119.069 21.3065C118.974 21.4312 118.883 21.5708 118.804 21.7248C118.721 21.8805 118.683 22.0279 118.683 22.167V22.7953C118.683 23.3861 118.828 23.8271 119.118 24.1219C119.407 24.4161 119.768 24.564 120.201 24.564C120.615 24.564 120.976 24.4161 121.282 24.1219C121.585 23.8265 121.738 23.3861 121.738 22.7953C121.738 21.6096 118.387 18.7226 117.831 17.9379C117.412 17.3442 116.31 15.9144 116.31 14.4757C116.31 12.9713 116.642 11.8817 117.303 11.2068C117.963 10.5325 118.964 10.1953 120.302 10.1953C121.624 10.1953 122.621 10.5325 123.288 11.2068C123.958 11.8811 124.294 12.9707 124.294 14.4757C124.294 14.6774 124.334 14.86 124.415 15.0223C124.493 15.1858 124.582 15.3296 124.68 15.4537C124.79 15.6077 124.918 15.7402 125.063 15.8476Z" fill="white"/>
<path d="M131.297 10.1953C131.826 10.1953 132.319 10.2962 132.776 10.4973C133.233 10.6984 133.634 10.9735 133.979 11.3225C134.322 11.6722 134.595 12.0708 134.796 12.5214C134.997 12.9707 135.096 13.4517 135.096 13.9631V23.1438C135.096 23.6558 134.997 24.1374 134.796 24.5867C134.595 25.0361 134.32 25.4323 133.967 25.7736C133.614 26.1144 133.208 26.3859 132.752 26.5876C132.295 26.7899 131.802 26.8901 131.273 26.8901L130.553 26.914C130.023 26.914 129.53 26.8131 129.074 26.6114C128.616 26.4103 128.212 26.1352 127.859 25.7856C127.506 25.4365 127.229 25.0373 127.029 24.5873C126.828 24.138 126.729 23.657 126.729 23.1444V13.9631C126.729 13.4517 126.828 12.9707 127.029 12.5214C127.229 12.0714 127.506 11.6722 127.859 11.3225C128.212 10.9735 128.617 10.6984 129.074 10.4973C129.531 10.2962 130.023 10.1953 130.553 10.1953H131.297V10.1953ZM132.613 14.0078C132.613 13.6671 132.484 13.3502 132.225 13.0555C131.965 12.7613 131.658 12.6145 131.302 12.6145H130.547C130.176 12.6145 129.864 12.7613 129.612 13.0555C129.362 13.3502 129.237 13.6665 129.237 14.0078V23.077C129.237 23.4177 129.362 23.7352 129.612 24.03C129.864 24.3248 130.176 24.4716 130.547 24.4716L131.277 24.4471C131.65 24.4471 131.962 24.3045 132.211 24.018C132.463 23.7322 132.589 23.4183 132.589 23.0776L132.613 14.0078Z" fill="white"/>
<path d="M147.734 10.1953C147.59 10.3194 147.461 10.4662 147.349 10.6375C147.252 10.7771 147.165 10.9359 147.083 11.1137C147.004 11.2921 146.963 11.4747 146.963 11.6609V23.1438C146.963 23.6558 146.863 24.1332 146.662 24.5748C146.461 25.017 146.191 25.4042 145.854 25.7378C145.516 26.072 145.118 26.3352 144.661 26.5291C144.202 26.723 143.708 26.8197 143.177 26.8197H142.455C141.923 26.8197 141.426 26.723 140.958 26.5291C140.491 26.3352 140.086 26.072 139.74 25.7378C139.394 25.4042 139.121 25.017 138.921 24.5748C138.719 24.1326 138.619 23.6558 138.619 23.1438V11.5207C138.619 11.35 138.577 11.1877 138.498 11.0319C138.419 10.878 138.33 10.7383 138.233 10.6136C138.12 10.4585 138 10.3194 137.871 10.1953H141.9C141.753 10.3194 141.626 10.4585 141.513 10.6136C141.416 10.7383 141.328 10.878 141.248 11.0319C141.168 11.1877 141.127 11.3428 141.127 11.4974V23.1438C141.127 23.5013 141.257 23.7996 141.513 24.0401C141.771 24.2806 142.077 24.4005 142.43 24.4005H143.152C143.524 24.4005 143.832 24.2806 144.081 24.0401C144.332 23.7996 144.456 23.5013 144.456 23.1438V11.498C144.456 11.3745 144.416 11.2306 144.335 11.0683C144.255 10.9048 144.167 10.7616 144.069 10.6375C143.957 10.4823 143.836 10.3344 143.709 10.1953H147.734V10.1953Z" fill="white"/>
<path d="M158.415 25.3541C158.415 25.5409 158.453 25.7229 158.525 25.9013C158.597 26.0792 158.682 26.2379 158.777 26.3781C158.891 26.5488 159.02 26.6962 159.163 26.8197H155.208C155.338 26.6651 155.459 26.5022 155.57 26.331C155.667 26.1758 155.755 26.0058 155.835 25.8196C155.916 25.6334 155.956 25.4478 155.956 25.261V25.2384V25.261V21.2056C155.956 20.8488 155.83 20.554 155.582 20.3219C155.333 20.0885 155.031 19.9728 154.677 19.9728H153.158V25.2384C153.158 25.44 153.193 25.6298 153.267 25.8082C153.34 25.9867 153.423 26.1531 153.52 26.3083C153.633 26.4796 153.761 26.649 153.906 26.8197H149.977C150.104 26.6341 150.224 26.4479 150.336 26.2612C150.432 26.0905 150.521 25.9127 150.6 25.7265C150.681 25.5403 150.721 25.3619 150.721 23.9661V10.5981C150.721 11.6221 150.681 11.4246 150.6 11.2306C150.521 11.0361 150.432 10.8619 150.336 10.7073C150.224 10.536 150.103 10.3654 149.977 10.1953H154.774C155.306 10.1953 155.799 10.2926 156.257 10.4859C156.715 10.6805 157.116 10.9442 157.463 11.2778C157.808 11.6108 158.081 11.9986 158.282 12.4402C158.482 12.8824 158.584 13.3598 158.584 13.8712V15.7157C158.584 16.2897 158.454 16.8244 158.197 17.3215C157.94 17.8174 157.587 18.2363 157.137 18.577C157.523 18.9034 157.833 19.2985 158.066 19.7639C158.298 20.2294 158.414 20.733 158.414 21.276V25.3541H158.415ZM154.775 17.0643C155.144 17.0643 155.455 16.9444 155.704 16.7033C155.951 16.4622 156.077 16.1704 156.077 15.8279V13.8742C156.077 13.5161 155.951 13.2166 155.704 12.9755C155.455 12.735 155.145 12.6145 154.775 12.6145H153.159V17.0643H154.775V17.0643Z" fill="white"/>
<path d="M167.316 21.6562C167.235 21.47 167.148 21.3071 167.051 21.168C166.938 20.9968 166.818 20.8422 166.689 20.7026H170.693C170.548 20.8273 170.42 20.9741 170.307 21.1448C170.21 21.2844 170.126 21.4437 170.054 21.6216C169.981 21.8 169.945 21.9748 169.945 22.1449V23.145C169.945 23.657 169.843 24.1344 169.644 24.576C169.442 25.0182 169.169 25.4054 168.823 25.739C168.479 26.0732 168.075 26.3363 167.619 26.5303C167.16 26.7242 166.665 26.8209 166.135 26.8209H165.411C164.88 26.8209 164.386 26.7242 163.928 26.5303C163.47 26.3363 163.068 26.0768 162.724 25.7515C162.377 25.4257 162.103 25.042 161.903 24.5993C161.701 24.1571 161.602 23.6803 161.602 23.1683V13.8712C161.602 13.3592 161.701 12.8824 161.903 12.4402C162.103 11.998 162.377 11.6108 162.724 11.2772C163.068 10.9436 163.471 10.6805 163.928 10.4859C164.387 10.292 164.881 10.1953 165.411 10.1953H166.159C166.69 10.1953 167.184 10.292 167.642 10.4859C168.1 10.6799 168.498 10.9436 168.836 11.2772C169.174 11.6108 169.442 11.998 169.644 12.4402C169.843 12.8824 169.945 13.3592 169.945 13.8712V14.6159C169.945 14.8325 169.985 15.0342 170.066 15.2204C170.147 15.4066 170.234 15.5695 170.33 15.7079C170.442 15.8792 170.571 16.0266 170.716 16.1507H166.688C166.832 16.0266 166.961 15.8875 167.073 15.7318C167.171 15.6083 167.26 15.4615 167.34 15.2902C167.42 15.119 167.46 14.9256 167.46 14.7078V13.8712C167.46 13.5143 167.331 13.2166 167.073 12.9761C166.818 12.7356 166.513 12.6151 166.159 12.6151H165.41C165.04 12.6151 164.732 12.7356 164.482 12.9761C164.233 13.2166 164.107 13.5143 164.107 13.8712V23.1683C164.107 23.5102 164.233 23.8002 164.482 24.0407C164.732 24.2812 165.04 24.4011 165.41 24.4011H166.134C166.504 24.4011 166.814 24.2812 167.062 24.0407C167.311 23.8002 167.436 23.5019 167.436 23.1444V22.2607C167.435 22.0434 167.396 21.8417 167.316 21.6562Z" fill="white"/>
<path d="M179.106 24.3188C179.299 24.2341 179.459 24.1523 179.588 24.0747C179.75 23.9816 179.886 23.8736 179.999 23.7495L179.516 26.8203H172.016C172.145 26.6347 172.265 26.4485 172.377 26.2618C172.474 26.0911 172.563 25.9103 172.643 25.7151C172.724 25.5218 172.764 24.6374 172.764 25.0241V12.2105C172.764 11.4819 172.724 11.3196 172.643 11.1483C172.563 10.9776 172.474 10.8231 172.377 10.6828C172.265 10.5122 172.144 10.3499 172.016 10.1953H179.468L179.95 13.2661C179.807 13.1432 179.653 13.0328 179.492 12.9409C179.347 12.8633 179.187 12.7857 179.01 12.7082C178.832 12.63 178.631 12.5763 178.406 12.5452H178.334H175.198V17.0953H177.538H177.563C177.739 17.0953 177.908 17.0607 178.069 16.9909C178.229 16.9217 178.374 16.8399 178.504 16.7468C178.648 16.6388 178.784 16.5135 178.914 16.3751V20.1667C178.818 20.0426 178.704 19.9268 178.577 19.8176C178.464 19.7245 178.324 19.6398 178.154 19.5616C177.985 19.4841 177.788 19.4459 177.564 19.4459H175.199V24.4716H178.48C178.704 24.4542 178.913 24.4047 179.106 24.3188Z" fill="white"/>
<path d="M36.9359 17.5214C36.7923 15.548 36.4854 13.9721 35.9771 12.5787C35.7989 11.9623 35.5545 11.421 35.315 10.8983C35.2339 10.7181 35.1523 10.5385 35.0754 10.3606C34.9634 10.0867 34.8281 9.85939 34.6976 9.6392C34.6291 9.52403 34.5605 9.40945 34.4896 9.27578C34.4199 9.16062 34.3537 9.04306 34.2882 8.9267C34.1654 8.70591 34.0361 8.47736 33.8883 8.27208C32.2584 5.83443 30.0731 3.79838 27.5648 2.38352C25.4183 1.19722 23.0357 0.419673 20.6812 0.135628C18.9071 -0.0905336 17.111 -0.0362301 15.108 0.316439L14.0377 0.534245C13.8184 0.586758 13.6111 0.652995 13.4132 0.716249C13.3095 0.748473 13.2088 0.780696 13.1063 0.81113L12.3209 1.05519C12.157 1.10711 12.0074 1.17275 11.8668 1.23302C11.8 1.26226 11.7339 1.2915 11.6653 1.31955L10.5104 1.80946L10.5974 2.01772L10.4895 1.81961L9.37933 2.41515C9.31973 2.44976 9.25715 2.48258 9.19101 2.51659C9.05632 2.58641 8.9127 2.6622 8.76849 2.75827L8.08257 3.22014C7.99854 3.27922 7.91035 3.3377 7.82036 3.39677C7.64695 3.51135 7.46638 3.63189 7.28104 3.7757L6.44375 4.47268C4.93544 5.79385 3.74894 7.17827 2.81273 8.70113C1.55471 10.7217 0.666172 13.0662 0.242463 15.4842C-0.227133 18.3366 -0.0120021 21.3244 0.865213 24.1267C1.85327 27.2201 3.72927 30.1191 6.14578 32.2894C7.32096 33.3653 8.74168 34.3213 10.4955 35.2158C12.0283 35.942 13.7612 36.4773 15.6509 36.8049C16.2844 36.9039 16.9644 36.9654 17.7212 36.9904L18.1396 37V29.8881C16.6444 29.8941 15.1569 29.3332 13.9686 28.1988C12.9406 27.2201 12.3083 26.0225 12.2112 24.5963C12.1218 23.3038 12.2499 22.0405 12.9907 20.9067C13.2142 21.1484 13.4323 21.3751 13.6343 21.6156C13.6665 21.6538 13.6486 21.766 13.6182 21.8239C13.1474 22.6617 12.887 23.5568 12.9126 24.5211C12.949 26.1054 13.5735 27.4248 14.7511 28.4745C15.6605 29.286 16.7373 29.7276 17.9501 29.8434C17.9971 29.8476 18.0454 29.844 18.1205 29.844V28.1481C19.3398 28.046 20.3278 27.5454 21.0531 26.5769C21.5441 25.9258 21.7813 25.1847 21.7903 24.3648C21.5495 26.2713 19.8606 27.6635 17.9912 27.4833C16.052 27.2971 14.4507 25.5075 14.5747 23.6481C14.707 24.5354 15.0556 25.31 15.7284 25.9217C16.397 26.5309 17.1753 26.8412 18.13 26.8293V23.4595C20.2474 23.4082 21.9523 22.5465 23.2628 20.9001C24.7556 22.8938 24.2306 26.4885 22.1889 28.3038C21.2754 29.116 20.2122 29.616 19.1181 29.8052V30.7629C19.1193 30.7635 19.1193 30.7641 19.1205 30.7647C19.2051 30.757 19.2849 30.7498 19.3255 30.7415C21.5447 30.3249 23.3343 28.9131 24.2372 26.8657C25.1394 24.8207 24.9773 22.5477 23.792 20.628L23.7878 20.5636C25.0369 18.4762 25.1507 16.3017 24.1293 14.1016C23.972 13.7602 23.7741 13.4523 23.5643 13.1253C23.4744 12.9857 23.3826 12.8442 23.2926 12.6969L23.0369 12.2738L22.8415 12.7285C22.1121 14.4316 20.2593 15.5319 18.1223 15.5325C16.0049 15.5325 14.2153 14.4835 13.4519 12.7941L13.2881 12.4325L12.9734 12.7947C12.9376 12.8359 12.9049 12.8723 12.8727 12.9135C11.1349 15.1488 10.9764 18.1456 12.4698 20.5481V20.6412V20.6424C11.7059 21.8669 11.3715 23.1803 11.477 24.5486C11.6773 27.1372 12.9734 29.0473 15.3285 30.2259C15.7403 30.4318 16.1968 30.5857 16.72 30.6955V34.6292C16.4686 34.6131 16.2177 34.5922 15.9715 34.5629C14.3286 34.3296 12.7785 33.9053 11.3662 33.3038C9.74702 32.5764 8.43239 31.7869 7.3466 30.8895C5.98727 29.7437 4.96763 28.6529 4.21913 27.5394C3.88005 27.1109 3.60531 26.6264 3.33834 26.1591C3.2406 25.9861 3.14228 25.8136 3.04395 25.6466L2.57852 24.6685C2.52489 24.542 2.46649 24.4149 2.40928 24.2884C2.30678 24.0688 2.20964 23.8599 2.13991 23.6451C1.20787 21.1126 0.861635 18.262 1.16675 15.6155C1.42539 13.3533 2.1709 11.143 3.38482 9.04187C4.49028 7.07862 5.86927 5.73418 6.80727 4.89815L7.6237 4.20355C7.78937 4.07347 7.95742 3.9589 8.11892 3.85029C8.21308 3.78644 8.30426 3.72378 8.38828 3.66351L9.06407 3.19806C9.19041 3.11154 9.31973 3.04351 9.43772 2.97966C9.50923 2.94206 9.57777 2.90507 9.63557 2.87105L10.7202 2.27432L11.8602 1.80409C11.9287 1.77784 11.9985 1.7474 12.0724 1.71697C12.1975 1.66386 12.331 1.60538 12.4776 1.56122L13.26 1.3273C13.3625 1.29926 13.4662 1.26644 13.5735 1.23362C13.76 1.17633 13.9555 1.11546 14.1551 1.07011L15.2088 0.86782C17.2075 0.534246 18.9155 0.516344 20.5888 0.794421C22.9857 1.16559 25.174 1.96939 27.0929 3.18374C29.3807 4.63261 31.3335 6.64121 32.7453 9.00248C32.8687 9.19165 32.9682 9.39752 33.0695 9.6022C33.1291 9.72214 33.1893 9.84268 33.2459 9.94771C33.3025 10.0682 33.3669 10.19 33.4318 10.3111C33.5427 10.5224 33.647 10.7217 33.7143 10.9198C33.7828 11.1018 33.8555 11.285 33.927 11.4688C34.1344 11.9921 34.3484 12.5345 34.4693 13.0764C34.8609 14.3385 35.0683 15.813 35.104 17.5817C35.1231 18.9954 34.9133 20.517 34.4664 22.2297C34.0385 23.7281 33.3949 25.2044 32.5582 26.6127C31.7495 27.9046 30.7084 29.1559 29.4748 30.3226L29.187 30.5618C28.6673 30.9975 28.1292 31.448 27.5368 31.812L27.4278 31.886C27.1221 32.0943 26.8342 32.2912 26.5071 32.4493L25.4767 33.0067C23.7592 33.78 22.3582 34.2222 20.7986 34.4848C20.3815 34.5427 19.8266 34.5904 19.1181 34.631V36.9952L19.2432 36.9928V36.9833C19.9309 36.9558 20.5567 36.9033 21.1526 36.8228C22.7902 36.5817 24.7109 36.0011 26.4373 35.2211L27.6799 34.5432C28.0791 34.3427 28.445 34.0873 28.7978 33.8415L28.8622 33.7955C29.5678 33.3504 30.2013 32.8068 30.8151 32.2804L31.0594 32.0698C32.4539 30.748 33.607 29.3004 34.4944 27.7632C35.4282 26.0726 36.0968 24.3863 36.486 22.7434C36.8894 20.8238 37.036 19.1159 36.9359 17.5214ZM12.1969 17.2099C12.1588 15.9234 12.2869 14.6667 13.1134 13.5854C13.3125 13.8641 13.5074 14.1266 13.6891 14.3993C13.7177 14.4453 13.6975 14.5557 13.6653 14.6142C13.3125 15.2037 13.0592 15.8351 12.9692 16.5165C12.7201 18.4398 13.3339 20.0546 14.7689 21.3447C15.617 22.1044 16.6235 22.5304 17.7498 22.6772C17.8624 22.6921 17.9816 22.6981 18.1306 22.713V21.0195C20.5924 20.8399 21.8385 18.7477 21.7968 17.3007C21.7086 17.5752 21.6353 17.935 21.4804 18.2578C21.3272 18.583 21.1317 18.9011 20.891 19.1684C20.649 19.4405 20.357 19.6876 20.0418 19.8732C19.7349 20.0552 19.3821 20.1912 19.0329 20.2646C18.6759 20.341 18.2915 20.3696 17.9304 20.3249C15.7946 20.0522 14.4895 18.2065 14.5753 16.501C14.7058 17.3896 15.0562 18.1659 15.7308 18.7776C16.397 19.3868 17.1795 19.6977 18.13 19.684V16.5004C19.1717 16.4724 20.1383 16.2301 21.0263 15.7068C21.9142 15.1834 22.624 14.4805 23.1347 13.577C24.7526 15.5236 24.2884 19.2567 22.2074 21.1448C19.7688 23.3569 16.1587 23.268 13.8393 20.9276C12.8256 19.903 12.2368 18.666 12.1969 17.2099Z" fill="white"/>
<path d="M21.5605 9.23477C20.7649 7.44636 19.6934 5.80892 18.7543 4.41555C18.6833 4.30874 18.6088 4.20371 18.5296 4.08974L18.1369 3.52344L17.5832 4.34932C17.3604 4.67812 17.1464 4.99618 16.9402 5.31662C16.1423 6.55783 15.2382 8.01206 14.5905 9.56894C14.3068 10.2498 14.0404 10.9832 14.1638 11.8204C14.3992 13.4179 15.2639 14.5153 16.7328 15.0816C17.2453 15.2797 17.7555 15.3793 18.2495 15.3793C19.1702 15.3793 20.0272 15.038 20.7995 14.3649C21.8531 13.4447 22.312 12.2739 22.1255 10.9772C22.0396 10.3733 21.8036 9.78257 21.5605 9.23477ZM18.6023 14.4437C17.2722 14.6603 15.597 13.7514 15.1971 12.2727C15.1518 12.0967 15.1328 11.9129 15.0976 11.7339C15.1191 11.7285 15.1393 11.722 15.1596 11.7166C15.3682 12.4977 15.8163 13.0843 16.5338 13.4555C17.088 13.7443 17.6977 13.8541 18.1726 13.7437V8.70129C18.1875 8.69592 18.1994 8.69114 18.2155 8.68458C18.7692 9.68112 19.3228 10.6765 19.8764 11.6736C19.8907 11.6665 19.9074 11.6611 19.9193 11.6545C19.3472 10.2391 18.7763 8.82243 18.2048 7.40459C17.5332 8.62013 16.8765 9.81062 16.2197 11.0017C16.1983 10.9904 16.1768 10.9802 16.1542 10.9695C16.2722 10.6783 16.3884 10.3894 16.504 10.0994C17.0433 8.77588 17.5856 7.45471 18.1148 6.12877C18.1726 5.98257 18.1673 5.80594 18.1726 5.64422C18.1798 5.35123 18.1726 5.05704 18.1726 4.76345C18.1959 4.74495 20.2703 8.1702 20.9616 10.0201C21.0367 10.2206 21.0909 10.4258 21.1535 10.6293C21.641 12.1337 20.5766 14.119 18.6023 14.4437Z" fill="white"/>
</svg>
