<svg width="80" height="80" viewBox="0 0 80 80" fill="none" xmlns="http://www.w3.org/2000/svg">
<path d="M78.2823 39.6397C78.2817 47.1913 76.0317 54.573 71.8167 60.8516C67.6018 67.1302 61.6112 72.0236 54.6025 74.9131C47.5938 77.8026 39.8818 78.5583 32.4417 77.0847C25.0015 75.6111 18.1674 71.9744 12.8035 66.6345C7.43963 61.2946 3.78686 54.4912 2.30712 47.0848C0.827378 39.6783 1.58712 32.0013 4.49028 25.0247C7.39343 18.048 12.3096 12.085 18.6172 7.88968C24.9247 3.69433 32.3403 1.45508 39.9263 1.45508C50.099 1.45658 59.8545 5.48017 67.0474 12.6409C74.2403 19.8017 78.2815 29.5132 78.2823 39.6397" fill="white"/>
<path d="M52.5174 59.1761C60.1346 54.2013 61.7217 48.026 61.4373 43.1191C61.2695 43.1418 61.2695 42.5528 61.4003 42.5528C61.3324 41.815 61.2232 41.0814 61.0732 40.3556L60.9537 39.7894C60.5594 38.0123 59.922 36.2974 59.0594 34.6928C56.3132 36.5011 53.8929 38.7572 51.9002 41.3665L51.5333 41.8676C51.2488 42.2782 50.9644 42.6972 50.68 43.1361C49.2186 42.4172 47.6415 41.96 46.0209 41.7855C45.6142 41.7629 45.253 41.7317 45.0027 41.6921C43.693 41.5992 42.3774 41.6343 41.0746 41.7968C40.2757 43.144 39.6362 44.5787 39.1689 46.0723L39.0466 46.4744C38.5946 47.9723 38.4022 49.5359 38.4777 51.0981C32.2202 52.0041 27.3592 55.382 27.3592 55.382C27.8155 55.9725 28.3136 56.5298 28.8496 57.0497L29.4185 57.5849C33.0849 60.9826 41.4472 66.3623 52.506 59.1507L52.5174 59.1761ZM29.2962 25.2924L29.7456 24.6214L30.5449 24.477C30.5174 23.7951 30.5364 23.1121 30.6018 22.4327C30.6018 22.4327 30.6501 22.3704 30.6302 22.1694C30.5733 21.4587 31.1763 19.4427 31.6172 18.4064C29.5422 16.865 26.9522 16.1748 24.3812 16.4782C23.4498 18.0587 22.9744 19.8644 23.0074 21.6965V21.8749C23.0233 22.5425 23.1081 23.2066 23.2605 23.8569C25.3494 23.8767 27.4076 24.3604 29.2848 25.2726L29.2962 25.2924ZM27.8143 51.4152C30.2016 50.1295 32.7389 49.1414 35.3689 48.4733C35.454 47.7553 35.5841 47.0432 35.7586 46.3413V46.3413C35.7586 46.3413 36.2307 44.6991 36.4725 44.045C35.5844 43.0557 34.5436 42.2136 33.3892 41.5505C26.9724 37.8102 21.9578 41.4429 21.9578 41.4429C21.9578 41.4429 21.2268 47.5701 27.6465 51.3246C27.7034 51.3586 27.7603 51.3812 27.8143 51.418V51.4152ZM27.6664 36.5983C26.7896 33.8594 26.8365 30.9102 27.8001 28.2003C25.5338 27.0974 22.9427 26.8499 20.5072 27.5038C20.5072 27.5038 18.4251 32.4531 22.3475 37.6318C24.0423 36.9468 25.8573 36.6051 27.6863 36.6267L27.6664 36.5983ZM43.8991 34.7239C44.0463 36.0408 44.4075 37.325 44.9685 38.5265C46.5018 38.6112 48.0207 38.8666 49.4967 39.2882C51.1559 37.1569 53.0722 35.2369 55.2025 33.5715C55.2025 33.4979 55.2025 33.4385 55.2025 33.3705C54.3065 26.0088 48.3761 24.2363 48.3761 24.2363C48.3761 24.2363 43.0315 27.3679 43.9218 34.7126L43.8991 34.7239ZM31.6911 27.5236C30.8394 28.9792 30.3653 30.6231 30.3117 32.3068C30.2581 33.9905 30.6266 35.661 31.3839 37.1675C33.8349 37.8852 36.0843 39.1609 37.9544 40.8936C38.1649 40.5142 38.3384 40.2367 38.3924 40.1348L39.1718 38.8861L40.6252 38.6681C40.7447 38.6681 41.0661 38.6143 41.5098 38.569C41.0981 37.4467 40.8175 36.281 40.6736 35.0948C40.5037 33.7638 40.5037 32.4166 40.6736 31.0855C39.5871 29.7949 38.1952 28.7935 36.6232 28.1717C35.0511 27.5499 33.3484 27.3272 31.6684 27.5236H31.6911ZM33.8472 24.2901C33.7251 21.7737 34.5245 19.2988 36.097 17.3248C36.097 17.3248 41.5013 17.4013 44.6898 23.0358C43.3873 24.3121 42.3485 25.83 41.6321 27.5038C39.4538 25.6238 36.7227 24.4964 33.8472 24.2901Z" fill="#212121"/>
<path d="M39.9933 2.44336C32.6032 2.44448 25.3794 4.62697 19.2353 8.71485C13.0912 12.8027 8.30281 18.6124 5.47552 25.4093C2.64824 32.2062 1.90908 39.6849 3.3515 46.9C4.79393 54.115 8.35315 60.7423 13.5791 65.9437C18.8051 71.1452 25.4631 74.6872 32.7113 76.122C39.9595 77.5568 47.4723 76.8198 54.2997 74.0044C61.1271 71.1889 66.9626 66.4213 71.0682 60.3045C75.1738 54.1877 77.3651 46.9964 77.3651 39.6398C77.3651 34.7546 76.3984 29.9173 74.5202 25.4041C72.6421 20.8908 69.8892 16.79 66.4188 13.336C62.9484 9.88187 58.8286 7.14211 54.2944 5.27315C49.7603 3.40418 44.9008 2.44262 39.9933 2.44336V2.44336ZM39.9933 10.5837C45.7664 10.5832 51.41 12.2868 56.2104 15.4792C61.0108 18.6716 64.7525 23.2093 66.9621 28.5186C69.1718 33.8278 69.7502 39.6701 68.6243 45.3067C67.4983 50.9432 64.7186 56.1208 60.6366 60.1846C56.5546 64.2485 51.3537 67.0161 45.6916 68.1374C40.0295 69.2588 34.1605 68.6836 28.8268 66.4845C23.4931 64.2854 18.9343 60.5612 15.7268 55.7828C12.5194 51.0045 10.8075 45.3867 10.8075 39.6398C10.8165 31.9369 13.8942 24.552 19.3656 19.105C24.837 13.6579 32.2552 10.5935 39.9933 10.5837" fill="#212121"/>
<path d="M0.96875 59.0269C12.8572 52.2729 26.3091 48.7207 39.9974 48.7207C53.6857 48.7207 67.1376 52.2729 79.0261 59.0269C75.7096 64.2821 74.0911 66.9266 70.9396 72.2327C61.5033 66.9109 50.8429 64.1137 39.9974 64.1137C29.1519 64.1137 18.4915 66.9109 9.05522 72.2327C5.89515 66.9266 4.26534 64.2906 0.96875 59.0269Z" fill="#212121"/>
<path d="M39.9915 48.0439C25.9373 48.0255 12.1324 51.7386 0 58.8005C3.618 64.5143 5.3815 67.3854 8.81746 73.1615C18.2887 67.6851 29.0469 64.8005 40 64.8005C50.9531 64.8005 61.7112 67.6851 71.1825 73.1615C74.61 67.3854 76.382 64.5143 80 58.8005C67.8624 51.7384 54.0532 48.0244 39.9943 48.0411L39.9915 48.0439ZM39.9943 49.3973C53.3211 49.3919 66.4268 52.7873 78.0602 59.2592C76.9224 61.0826 76.3535 62 75.2158 63.8348C73.751 66.2019 72.4227 68.3877 70.6848 71.3154C61.2883 66.1487 50.729 63.4386 39.9943 63.4386C29.2596 63.4386 18.7003 66.1487 9.30385 71.3154C7.65982 68.5604 6.82642 67.1844 5.15679 64.4492C3.87115 62.3681 3.23686 61.3346 1.93984 59.262C13.5681 52.7902 26.6692 49.3948 39.9915 49.4002" fill="white"/>
<path d="M13.3291 64.213C13.2424 64.3503 13.1257 64.4664 12.9878 64.5527C12.8614 64.6466 12.725 64.7264 12.5811 64.7906C12.4885 64.8378 12.3935 64.8803 12.2966 64.918C12.1902 64.966 12.0798 65.0048 11.9667 65.0341L11.0764 63.1229L11.5998 62.8709C11.7841 62.7884 11.9742 62.7193 12.1686 62.6642C12.326 62.6216 12.4896 62.6063 12.6522 62.6189C12.8038 62.6298 12.9485 62.686 13.0674 62.7803C13.2082 62.896 13.3178 63.0449 13.386 63.2135C13.4799 63.3867 13.5205 63.5837 13.5026 63.7798C13.4799 63.9384 13.4183 64.0891 13.3234 64.2186L13.3291 64.213ZM10.7635 61.5769L10.4023 61.7213L9.57174 59.9658L9.76231 59.8469C9.83203 59.8212 9.89956 59.7899 9.96426 59.7535C10.0887 59.6972 10.217 59.6498 10.3482 59.6119C10.4849 59.5787 10.6261 59.5672 10.7664 59.5779C10.9041 59.5984 11.0354 59.6497 11.1504 59.728C11.2807 59.8343 11.3848 59.9689 11.4547 60.1216C11.5372 60.2562 11.5837 60.4097 11.5896 60.5673C11.5956 60.725 11.5609 60.8815 11.4888 61.022C11.3093 61.2786 11.0567 61.4758 10.7635 61.5882V61.5769ZM15.2462 62.4716C15.1273 62.2259 14.9741 61.998 14.7911 61.7949C14.6298 61.6292 14.4471 61.4854 14.2478 61.3674C14.0709 61.2655 13.8789 61.1919 13.679 61.1494C13.4911 61.1168 13.3008 61.1007 13.1101 61.1012C13.2421 60.8156 13.3072 60.5039 13.3007 60.1895C13.3003 59.8376 13.2206 59.4902 13.0674 59.173C12.9212 58.8149 12.6816 58.5021 12.3734 58.267C12.105 58.0714 11.7906 57.9476 11.4604 57.9074C11.0923 57.8734 10.7212 57.907 10.3653 58.0065C9.96048 58.1158 9.56562 58.2588 9.18491 58.434C8.75542 58.6351 8.38281 58.8191 8.06424 59.0003C7.77001 59.1586 7.48511 59.3335 7.21094 59.5241L10.8375 67.2624C11.2926 67.1124 11.7107 66.9595 12.0748 66.8066C12.4388 66.6537 12.783 66.5234 13.0902 66.3734C13.5097 66.1769 13.9129 65.9478 14.2962 65.6882C14.6295 65.4583 14.9186 65.1705 15.1495 64.8387C15.3738 64.5276 15.5085 64.1615 15.5392 63.7798C15.5575 63.3295 15.4596 62.882 15.2547 62.4801" fill="white"/>
<path d="M20.8305 57.8868C20.7916 58.0645 20.7161 58.2323 20.6087 58.3794C20.5529 58.4844 20.4809 58.5799 20.3953 58.6626C20.1047 58.7794 19.801 58.8611 19.4908 58.9061L19.6075 59.3393L18.831 56.5079C18.8768 56.4877 18.9244 56.4716 18.9732 56.4597C19.0168 56.4451 19.0615 56.4337 19.1069 56.4257C19.2917 56.3715 19.4831 56.3429 19.6757 56.3408C19.8443 56.3334 20.0123 56.3634 20.1678 56.4286C20.3242 56.497 20.4618 56.6019 20.5689 56.7344C20.6924 56.905 20.7831 57.097 20.8362 57.3007C20.8931 57.4996 20.8931 57.7104 20.8362 57.9094L20.8305 57.8868ZM24.989 62.0461C25.0089 62.0461 24.9321 61.981 24.7927 61.8366C24.6533 61.6922 24.4542 61.5195 24.2409 61.3128C24.0276 61.1061 23.783 60.8711 23.5213 60.6276C23.2596 60.3841 23.0292 60.1576 22.8102 59.9339C22.5912 59.7102 22.3921 59.5516 22.2413 59.4044C22.0906 59.2572 22.0166 59.192 22.0166 59.192L22.065 59.1467C22.1884 59.0022 22.2997 58.8479 22.3978 58.6852C22.5219 58.5064 22.6179 58.3097 22.6822 58.1019C22.754 57.8722 22.797 57.6344 22.8102 57.3941C22.8204 57.1076 22.7868 56.8212 22.7106 56.5447C22.6077 56.0873 22.377 55.6681 22.0451 55.3356C21.7556 55.0569 21.4022 54.8528 21.0154 54.741C20.6078 54.6323 20.1842 54.5959 19.7639 54.6334C19.3218 54.6587 18.884 54.7327 18.4583 54.8543C18.1028 54.9477 17.7842 55.0582 17.4799 55.1686C17.1756 55.279 16.8485 55.4036 16.4844 55.5537L18.7428 63.7648L20.6855 63.2353L19.6274 59.3987L22.8756 62.6124L24.989 62.0461Z" fill="white"/>
<path d="M25.7734 53.0338L30.7965 52.2637C30.7624 52.578 30.7226 52.8724 30.6856 53.1612C30.6486 53.45 30.6088 53.7275 30.5832 54.0107L27.9579 54.4099C27.9637 54.4573 27.9752 54.5039 27.992 54.5486C27.992 54.6109 28.0119 54.6506 28.0205 54.6845L28.2082 55.9304L30.6174 55.5595L30.8847 57.2583L28.4784 57.6292L28.7287 59.2488V59.5319L31.8746 59.0506L32.1419 60.7353L27.0705 61.5168L25.7734 53.0338Z" fill="white"/>
<path d="M33.9727 51.8767H36.0661L37.1811 57.2252L38.4923 51.854H40.3042L41.6524 57.3272L42.7901 51.8398H44.7044C44.7044 51.8398 44.6731 51.9588 44.6219 52.2051C44.5707 52.4514 44.4996 52.7714 44.4 53.1763C44.3005 53.5812 44.1952 54.0399 44.0758 54.558C43.9563 55.0762 43.8226 55.5887 43.7032 56.1266C43.5837 56.6646 43.45 57.1941 43.3305 57.7037C43.2111 58.2134 43.0945 58.6862 42.9949 59.0826C42.8954 59.479 42.81 59.8075 42.7503 60.051C42.6906 60.2945 42.665 60.4191 42.665 60.4191L40.6142 60.4332L39.3371 55.2517L38.0088 60.4332H36.0803L33.9727 51.8767Z" fill="white"/>
<path d="M48.0621 52.418L49.9536 52.6785L49.0463 59.4654L50.4115 59.6523L50.7017 59.723L50.8154 58.9189L52.5334 58.3781L52.0954 61.6173L46.9102 60.9179L48.0621 52.418Z" fill="white"/>
<path d="M60.3014 59.2162L60.2246 59.3322C60.1962 59.4172 60.1791 59.4936 60.145 59.5842C59.8605 60.4648 59.5477 61.0764 59.1665 61.4417C58.986 61.6046 58.7656 61.7175 58.5275 61.769C58.2894 61.8205 58.0419 61.8088 57.8097 61.7351C57.5776 61.6614 57.3689 61.5283 57.2047 61.3491C57.0405 61.1699 56.9264 60.9509 56.874 60.714C56.7716 60.2015 56.874 59.5135 57.1584 58.6329C57.2673 58.2683 57.4082 57.914 57.5794 57.5739C57.585 57.5459 57.5956 57.519 57.6107 57.4946C57.8951 56.6679 58.7996 56.246 59.4851 56.5659C60.5546 57.0529 60.29 57.0728 60.4322 57.5484C60.5745 58.0241 60.4322 58.681 60.3099 59.2162H60.3014ZM62.301 56.951C62.1448 56.4872 61.8692 56.0723 61.5017 55.7477C61.0654 55.369 60.5508 55.0906 59.9942 54.9322C59.4462 54.745 58.8644 54.6764 58.2876 54.7312C57.8051 54.7969 57.345 54.9755 56.9451 55.2522C56.7977 55.3616 56.6571 55.4798 56.5241 55.6061L55.8699 56.4555C55.5829 56.9425 55.352 57.4601 55.1816 57.9986C54.9952 58.5661 54.8833 59.1552 54.8488 59.7513C54.8069 60.2668 54.8678 60.7855 55.028 61.2774C55.1926 61.7435 55.4677 62.1631 55.8301 62.5006C56.2601 62.8885 56.7754 63.1707 57.3348 63.3246C57.8808 63.5201 58.465 63.587 59.0414 63.5199C59.5307 63.4471 59.9956 63.2598 60.3981 62.9735C60.8166 62.6703 61.168 62.2848 61.4306 61.8409C61.74 61.3294 61.9891 60.784 62.173 60.2157C62.3525 59.6482 62.4652 59.062 62.5086 58.4687C62.5558 57.9534 62.4918 57.434 62.3209 56.9454" fill="white"/>
<path d="M66.9492 62.3182L70.8261 59.498L72.7915 60.4381L68.9431 63.1789L69.3015 68.284L67.3275 67.3326L66.9492 62.3182Z" fill="white"/>
<path d="M66.3416 58.9923L65.5253 58.6044L66.8735 57.5879L68.7565 58.4911L65.0048 66.2351L63.2441 65.3856L66.3416 58.9923Z" fill="white"/>
<path d="M4.8106 37.5973C4.80634 37.1924 4.95926 36.8015 5.23747 36.5061C5.51568 36.2107 5.8977 36.0336 6.30388 36.0117L6.25837 36.847C6.06054 36.8754 5.87901 36.972 5.74541 37.12C5.61182 37.268 5.53466 37.4579 5.52737 37.6568C5.48471 38.4213 6.12184 38.7412 6.80164 38.7893C7.48144 38.8375 8.12426 38.5742 8.16977 37.8153C8.19821 37.2915 7.86258 36.9801 7.3506 36.8866L7.39611 36.0599C7.6128 36.0782 7.82363 36.1395 8.01626 36.24C8.20889 36.3404 8.37946 36.4782 8.51798 36.645C8.6565 36.8119 8.76019 37.0047 8.82298 37.2119C8.88578 37.4192 8.90642 37.6368 8.8837 37.8521C8.81544 39.0442 7.8768 39.7039 6.75613 39.6416C5.63546 39.5793 4.73949 38.812 4.8106 37.6171" fill="white"/>
<path d="M7.21537 33.2911L7.41731 32.3794C7.49127 32 7.38603 31.7706 6.9992 31.6913C6.61237 31.6121 6.43033 31.7706 6.345 32.1444L6.14305 33.0561L7.21537 33.2911ZM5.3125 33.7498L5.76191 31.7083C5.78366 31.5632 5.83532 31.4241 5.91365 31.2997C5.99198 31.1754 6.09529 31.0686 6.21708 30.9859C6.33888 30.9032 6.47654 30.8464 6.62141 30.8192C6.76628 30.792 6.91524 30.7949 7.05893 30.8278C7.26477 30.8546 7.45601 30.9481 7.60306 31.094C7.75011 31.2399 7.84477 31.4299 7.87241 31.6347V31.6347C8.0772 31.2496 8.49532 31.2185 8.88784 31.2751C9.12676 31.3148 9.57617 31.4224 9.82078 31.3148L9.6359 32.1444C9.3217 32.1559 9.00714 32.1351 8.69727 32.0821C8.29053 32.0509 8.0772 32.167 7.99187 32.5804L7.8013 33.4298L9.29743 33.7328L9.10401 34.5822L5.3125 33.7498Z" fill="white"/>
<path d="M9.59311 27.4613L8.08277 27.4103L9.2205 28.3928L9.59311 27.4613ZM7.0332 27.4754L7.34893 26.6543L11.5074 26.6911L11.1916 27.5179L10.2729 27.4811L9.74955 28.8345L10.4521 29.4291L10.1392 30.2361L7.0332 27.4754Z" fill="white"/>
<path d="M8.70508 23.6568L10.0448 21.2812L10.6734 21.6295L9.7518 23.2632L10.5425 23.7021L11.3361 22.2836L11.922 22.6064L11.1228 24.0221L12.525 24.8035L12.1098 25.551L8.70508 23.6568Z" fill="white"/>
<path d="M12.2693 19.3433L11.5667 20.272L10.9922 19.8388L12.9207 17.3047L13.4895 17.7379L12.7898 18.6638L15.3213 20.5665L14.8065 21.246L12.2693 19.3433Z" fill="white"/>
<path d="M19.2337 15.6712C19.3284 15.5851 19.403 15.4794 19.4521 15.3615C19.5013 15.2435 19.5238 15.1163 19.5182 14.9888L18.4885 14.7934C18.4019 14.9183 18.3555 15.0664 18.3555 15.2181C18.3555 15.3699 18.4019 15.518 18.4885 15.6429C18.5851 15.7464 18.7184 15.8085 18.8602 15.8159C19.0019 15.8233 19.141 15.7755 19.248 15.6825L19.2337 15.6712ZM18.1102 13.3919C18.049 13.3182 17.9616 13.2709 17.8662 13.2598C17.7708 13.2487 17.6748 13.2747 17.5982 13.3324C17.5266 13.391 17.4813 13.4755 17.4723 13.5674C17.4632 13.6592 17.4911 13.7509 17.5499 13.8223C17.7168 13.974 17.9327 14.0614 18.1586 14.0686C18.2164 13.963 18.2426 13.8431 18.234 13.7232C18.2254 13.6032 18.1825 13.4883 18.1102 13.3919V13.3919ZM17.8514 14.6858C17.5378 14.6616 17.2451 14.52 17.0322 14.2894C16.9577 14.1891 16.9039 14.0751 16.8737 13.954C16.8435 13.8329 16.8377 13.7071 16.8564 13.5838C16.8752 13.4604 16.9182 13.342 16.983 13.2352C17.0479 13.1284 17.1332 13.0354 17.2342 12.9615C17.6864 12.5878 18.2667 12.5226 18.6563 12.9898C18.7837 13.1576 18.8605 13.358 18.8776 13.5676C18.8947 13.7772 18.8515 13.9873 18.7531 14.1734L19.5267 14.3234C19.4939 14.1605 19.4312 14.005 19.3418 13.8647L19.8481 13.4343C20.0503 13.7217 20.1702 14.0584 20.1951 14.4084L21.3926 14.6037L20.6502 15.2125L20.1553 15.1219C20.1456 15.3248 20.0935 15.5235 20.0024 15.7054C19.9114 15.8872 19.7832 16.0482 19.6263 16.178C19.0887 16.6282 18.3861 16.6565 17.9197 16.0959C17.567 15.6797 17.6352 15.136 17.8599 14.6802" fill="white"/>
<path d="M24.3786 8.21429C25.1409 7.83771 26.0198 7.95947 26.509 8.71829L25.7638 9.08354C25.6412 8.92867 25.4683 8.82109 25.2747 8.77925C25.0811 8.7374 24.879 8.7639 24.7029 8.8542C24.0089 9.19397 24.043 9.91315 24.3502 10.5191C24.6574 11.125 25.2035 11.5497 25.8804 11.2128C26.3469 10.9806 26.4493 10.5276 26.2786 10.0406L27.0239 9.66682C27.1167 9.86344 27.1691 10.0766 27.1779 10.2937C27.1867 10.5108 27.1518 10.7274 27.0752 10.9308C26.9986 11.1343 26.8818 11.3204 26.7318 11.4782C26.5819 11.6361 26.4017 11.7624 26.2018 11.8498C25.1267 12.385 24.0828 11.898 23.5851 10.8928C23.0873 9.88767 23.3006 8.74377 24.3815 8.21146" fill="white"/>
<path d="M27.957 6.77309L28.7648 6.50977L29.749 9.51108L31.5466 8.93064L31.7685 9.61018L29.1517 10.4511L27.957 6.77309Z" fill="white"/>
<path d="M34.8946 7.45702L34.1693 6.14041L33.9105 7.62408L34.8946 7.45702ZM33.5634 5.27116L34.4367 5.12109L36.5216 8.69436L35.6427 8.84159L35.2075 8.04313L33.7853 8.28946L33.6346 9.18136L32.7812 9.33143L33.5634 5.27116Z" fill="white"/>
<path d="M38.3982 7.29922C38.3982 7.81737 38.8163 8.00991 39.2742 7.99575C39.5757 7.99575 40.0337 7.89099 40.0195 7.49742C40.0052 7.10385 39.4222 7.0274 38.8533 6.88583C38.2844 6.74426 37.6871 6.52341 37.6643 5.80706C37.6387 5.01143 38.3897 4.62069 39.0865 4.60653C39.9 4.58388 40.6566 4.92082 40.6765 5.81272L39.8431 5.83537C39.809 5.37385 39.4819 5.26909 39.0666 5.26909C38.7822 5.26909 38.4977 5.39367 38.4977 5.72212C38.4977 6.05056 38.6968 6.05906 39.6725 6.2884C39.9569 6.34503 40.8301 6.51775 40.8614 7.39266C40.8614 8.09768 40.3266 8.64415 39.2629 8.6668C38.4096 8.68662 37.5819 8.28173 37.5762 7.32754L38.3982 7.29922Z" fill="white"/>
<path d="M43.0823 7.40117C43.0226 7.908 43.4037 8.15717 43.8503 8.21096C44.1518 8.24777 44.6154 8.21096 44.6638 7.82022C44.7121 7.42949 44.1347 7.27376 43.5829 7.05008C43.0311 6.82639 42.4907 6.53193 42.5703 5.82407C42.6613 5.02561 43.4549 4.74813 44.1546 4.83024C44.9567 4.92651 45.6621 5.36255 45.5455 6.24595L44.732 6.14968C44.7576 5.69099 44.4476 5.52394 44.038 5.4758C43.7536 5.44466 43.4407 5.52111 43.4037 5.84389C43.3667 6.16667 43.5431 6.20631 44.4817 6.5659C44.7662 6.66217 45.5967 6.95098 45.4972 7.81456C45.4118 8.52242 44.8031 8.98677 43.7422 8.85936C42.8889 8.76026 42.1294 8.24211 42.266 7.29358L43.0823 7.40117Z" fill="white"/>
<path d="M47.7348 5.5293L48.571 5.7275L47.6608 9.49613L46.8359 9.30076L47.7348 5.5293Z" fill="white"/>
<path d="M52.3647 6.8041C53.1611 7.1014 53.6703 7.81775 53.4541 8.69549L52.6719 8.41235C52.7012 8.21575 52.6603 8.01515 52.5564 7.84546C52.4525 7.67577 52.292 7.54774 52.103 7.48364C51.3806 7.2005 50.8857 7.72998 50.6496 8.36422C50.4135 8.99846 50.4761 9.66667 51.1985 9.94982C51.6878 10.1254 52.086 9.89602 52.3363 9.44016L53.1185 9.7233C53.0371 9.92421 52.9164 10.107 52.7634 10.261C52.6103 10.4151 52.4281 10.5373 52.2272 10.6205C52.0263 10.7038 51.8108 10.7464 51.5932 10.746C51.3755 10.7456 51.1602 10.7021 50.9596 10.618C49.8219 10.2046 49.4749 9.11738 49.8645 8.06975C50.2542 7.02212 51.2526 6.39637 52.3761 6.80693" fill="white"/>
<path d="M58.9303 12.065C58.9777 12.1118 59.0351 12.1471 59.0982 12.1684C59.1613 12.1897 59.2285 12.1963 59.2946 12.1879C59.3607 12.1794 59.424 12.156 59.4797 12.1195C59.5353 12.083 59.5819 12.0344 59.6158 11.9773C59.8206 11.6715 59.6357 11.4478 59.3797 11.2807L58.717 10.8305L58.2079 11.5837L58.9303 12.065ZM58.0258 13.4581C58.3103 13.6393 58.6089 13.7186 58.8365 13.3845C59.064 13.0504 58.9474 12.7899 58.6374 12.5832L57.8694 12.065L57.2721 12.9456L58.0258 13.4581ZM58.3757 9.80273L59.8889 10.8305C60.5004 11.2439 60.7848 11.7196 60.3753 12.3142C60.2824 12.4614 60.1465 12.5767 59.9858 12.6445C59.825 12.7124 59.6473 12.7295 59.4765 12.6936C59.6275 12.8568 59.7148 13.0685 59.7227 13.2903C59.7305 13.512 59.6583 13.7293 59.5191 13.9026C59.0754 14.5567 58.333 14.4689 57.7499 14.0669L56.1855 13.0136L58.3757 9.80273Z" fill="white"/>
<path d="M62.184 14.8277L62.8609 15.4591C63.1453 15.7196 63.4042 15.7423 63.6716 15.4591C63.9389 15.176 63.8906 14.9268 63.6061 14.6663L62.9206 14.0321L62.184 14.8277ZM62.7528 12.959L64.2888 14.3747C64.4025 14.4665 64.4959 14.5808 64.5631 14.7104C64.6302 14.8399 64.6698 14.9819 64.6791 15.1274C64.6885 15.2729 64.6675 15.4187 64.6174 15.5557C64.5674 15.6927 64.4894 15.818 64.3883 15.9235C64.2597 16.0838 64.0822 16.198 63.8826 16.2491C63.6831 16.3002 63.4722 16.2853 63.2819 16.2066V16.2066C63.5094 16.5747 63.3274 16.9428 63.0742 17.2486C62.9235 17.4383 62.6021 17.7724 62.5708 18.0357L61.9422 17.4553C62.0948 17.1827 62.2739 16.9257 62.4769 16.688C62.7102 16.3454 62.7102 16.1217 62.403 15.8131L61.7744 15.2468L60.739 16.3595L60.1133 15.7763L62.7528 12.959Z" fill="white"/>
<path d="M66.6548 16.8262L68.4666 19.0941L67.9006 19.5387L66.6292 17.9361L65.975 18.4542L67.144 19.9209L66.6292 20.3343L65.4516 18.8648L64.7064 19.4566L66.0148 21.0903L65.4488 21.5348L63.6113 19.2329L66.6548 16.8262Z" fill="white"/>
<path d="M68.1346 26.0029L67.725 25.2583L69.7274 23.4094L69.7246 23.398L67.0822 24.1087L66.6641 23.3442L69.5824 20.5723L69.9948 21.3226L67.9668 23.1319L67.9725 23.146L70.6234 22.4637L71.0131 23.1545L68.9822 25.0318L68.9879 25.0403L71.653 24.3041L72.0541 25.0374L68.1346 26.0029Z" fill="white"/>
<path d="M72.7647 26.8887L73.7204 29.638L73.0406 29.8673L72.3665 27.9335L71.5815 28.2053L72.1959 29.9834L71.5673 30.1986L70.9472 28.4233L70.0455 28.7319L70.7339 30.7083L70.0598 30.9433L69.0898 28.1628L72.7647 26.8887Z" fill="white"/>
<path d="M72.7131 32.9258L72.8781 33.8432C72.9492 34.2255 73.1454 34.3897 73.5351 34.3246C73.9248 34.2594 74.0272 34.0414 73.9589 33.6535L73.7883 32.7333L72.7131 32.9258ZM74.2917 31.7734L74.6615 33.8291C74.6986 33.9712 74.7057 34.1196 74.6821 34.2646C74.6586 34.4096 74.605 34.5482 74.5247 34.6715C74.4445 34.7948 74.3393 34.9001 74.216 34.9808C74.0926 35.0614 73.9537 35.1157 73.8082 35.14C73.6077 35.1949 73.3946 35.1821 73.2022 35.1037C73.0097 35.0254 72.8488 34.8858 72.7444 34.7068V34.7068C72.7046 35.1372 72.3348 35.324 71.9508 35.4231C71.7091 35.4798 71.2511 35.5534 71.0719 35.7459L70.9183 34.9107C71.2047 34.7798 71.504 34.6792 71.8114 34.6105C72.204 34.4774 72.3519 34.2934 72.2779 33.8687L72.1215 33.0193L70.6254 33.2883L70.4746 32.4388L74.2917 31.7734Z" fill="white"/>
<path d="M72.7495 38.1411L75.0819 36.6348L75.1075 37.5946L73.6 38.5545L75.1729 39.4011L75.2013 40.3496L72.7524 38.9962L71.2619 39.0471L71.2363 38.1949L72.7495 38.1411Z" fill="white"/>
</svg>
