<svg width="100" height="100" viewBox="0 0 100 100" fill="none" xmlns="http://www.w3.org/2000/svg">
<circle cx="50" cy="50" r="49" fill="#F6F9F5" stroke="#A1C39B" stroke-width="2"/>
<path d="M33.332 48.9361L45.0967 61.7021L66.6654 38.2979" stroke="#A1C39B" stroke-width="2"/>
<circle cx="50" cy="50" r="50" fill="#A1C39B"/>
<path d="M43.6548 44.2275C43.6548 46.0089 42.1651 47.453 40.3274 47.453C38.4897 47.453 37 46.0089 37 44.2275C37 42.4461 38.4897 41.002 40.3274 41.002C42.1651 41.002 43.6548 42.4461 43.6548 44.2275Z" fill="#212F4E"/>
<path d="M63.6157 44.2255C63.6157 46.0069 62.126 47.451 60.2883 47.451C58.4507 47.451 56.9609 46.0069 56.9609 44.2255C56.9609 42.4441 58.4507 41 60.2883 41C62.126 41 63.6157 42.4441 63.6157 44.2255Z" fill="#212F4E"/>
<path d="M41.5 52.2642C41.5 51.4357 42.1716 50.7642 43 50.7642C43.8284 50.7642 44.5 51.4357 44.5 52.2642H41.5ZM57.8491 53.7637L59.3191 54.062L59.3191 54.062L57.8491 53.7637ZM56.499 52.2642C56.499 51.4357 57.1706 50.7642 57.999 50.7642C58.8275 50.7642 59.499 51.4357 59.499 52.2642H56.499ZM44.5 52.2642C44.5 55.5776 47.1861 58.2637 50.4995 58.2637V61.2637C45.5292 61.2637 41.5 57.2344 41.5 52.2642H44.5ZM50.4995 58.2637C53.4004 58.2637 55.8234 56.2033 56.3791 53.4654L59.3191 54.062C58.4853 58.1707 54.8553 61.2637 50.4995 61.2637V58.2637ZM56.3791 53.4654C56.4576 53.0785 56.499 52.6769 56.499 52.2642H59.499C59.499 52.8784 59.4373 53.4798 59.3191 54.062L56.3791 53.4654Z" fill="#212F4E"/>
</svg>
