<svg width="98" height="82" viewBox="0 0 98 82" fill="none" xmlns="http://www.w3.org/2000/svg">
<path d="M48.2897 29.6866C48.8021 28.7711 50.1979 28.7711 50.7103 29.6866L57.7392 42.2458C58.5211 43.6428 59.8936 44.6042 61.4613 44.8903L75.891 47.5234C77.0034 47.7264 77.312 48.95 76.6413 49.6413L66.5557 60.0365C65.4406 61.1858 64.9043 62.7764 65.1164 64.369L67.0055 78.5556C67.1265 79.4642 66.1168 80.3576 65.0455 79.8621L51.7833 73.7274C50.3371 73.0585 48.6629 73.0585 47.2167 73.7274L33.9545 79.8621C32.8832 80.3576 31.8735 79.4642 31.9945 78.5556L33.8836 64.369C34.0957 62.7764 33.5594 61.1858 32.4443 60.0365L22.3587 49.6414C21.688 48.95 21.9966 47.7264 23.1089 47.5234L37.5387 44.8903C39.1063 44.6042 40.4789 43.6428 41.2608 42.2458L48.2897 29.6866Z" fill="white" stroke="#A1C39B" stroke-width="4"/>
<path d="M49 2V2.7686" stroke="#F8B814" stroke-width="4" stroke-linecap="round"/>
<path d="M49 9.68555V13.5285" stroke="#F8B814" stroke-width="4" stroke-linecap="round"/>
<path d="M72.251 8.23047L71.8667 8.89609" stroke="#F8B814" stroke-width="4" stroke-linecap="round"/>
<path d="M68.4072 14.8867L66.4857 18.2148" stroke="#F8B814" stroke-width="4" stroke-linecap="round"/>
<path d="M89.2715 25.25L88.6059 25.6343" stroke="#F8B814" stroke-width="4" stroke-linecap="round"/>
<path d="M82.6152 29.0928L79.2871 31.0143" stroke="#F8B814" stroke-width="4" stroke-linecap="round"/>
<path d="M95.5 48.5L94.7314 48.5" stroke="#F8B814" stroke-width="4" stroke-linecap="round"/>
<path d="M87.8145 48.5L83.9715 48.5" stroke="#F8B814" stroke-width="4" stroke-linecap="round"/>
<path d="M25.75 8.23047L26.1343 8.89609" stroke="#F8B814" stroke-width="4" stroke-linecap="round"/>
<path d="M29.5938 14.8867L31.5152 18.2148" stroke="#F8B814" stroke-width="4" stroke-linecap="round"/>
<path d="M8.72852 25.25L9.39414 25.6343" stroke="#F8B814" stroke-width="4" stroke-linecap="round"/>
<path d="M15.3848 29.0928L18.7129 31.0143" stroke="#F8B814" stroke-width="4" stroke-linecap="round"/>
<path d="M14.0293 48.5L13.2607 48.5" stroke="#F8B814" stroke-width="4" stroke-linecap="round"/>
<path d="M6.34375 48.5L2.50077 48.5" stroke="#F8B814" stroke-width="4" stroke-linecap="round"/>
<circle cx="49.5" cy="56.5" r="6.5" fill="white" stroke="#212F4E" stroke-width="4"/>
</svg>
